<?xml version="1.0" encoding="UTF-8"?>
<svg id="Layer_2" data-name="Layer 2" xmlns="http://www.w3.org/2000/svg" viewBox="0 0 1527.68 714.55">
  <g id="Layer_4" data-name="Layer 4">
    <g>
      <path d="M143.39,318.79c6.69,2.93,13.54,5.41,20.81,6.73,12.74,3.09,26.48,1.08,37.91-5.39,7.74-4.87,14.23-11.52,18.92-19.44,2.81-4.28,4.71-10.58,5.77-15.43.88-3.33.94-6.98,1.34-10.22.44-3.14.92-7.52,1.05-10.54.19-2.04.84-5.84.8-8.79-.19-4.02-.43-8.89-.77-12.91-.15-1.62-.35-4.46-.5-6.07-.25-2.97-1.03-6.21-1.43-8.29-.66-3.38-.33-6.53-.95-10.13-.37-3.16-2.48-7.65-2.76-9.88-.41-2.53-.17-7.05-.71-10.24-.43-3.02-1.19-5.66-1.63-8.52-.45-2.95-.71-5.61-1.43-8.94-.58-2.64-1.33-4.99-1.92-7.07-.84-3.45-2.17-7.02-3.41-10.33-.87-2.43-1.24-5.54-2.26-8.23-.92-2.57-2.75-6.03-3.3-7.75-.7-2.22-1.56-8.33-3.5-11.12-1.57-2.77-3.33-4.37-4.58-6.85-.52-1.02-2.82-6.18-3.34-7.42-1.26-3.19-3.6-9.17-5.21-12.7-1.21-2.97-2.95-6.58-4.18-9.35-1.22-3.06-1.7-5.9-2.93-9.48-.94-2.73-1.78-4.81-2.44-7.04l-.21-.73-.45-1.62-.9-3.24-.89-3.2c-.44-1.73-.74-4.26-1.03-6.16-.14-1.02-.35-2.4-.59-3.88,1.84-.34,4.18-.75,5.47-.99,6.48-1.27,13.24-.79,19.85-1.72,3.29-.32,7.12-1.74,10.09-2.3,1.99-.35,4.83-.42,7.15-.68,2.94-.29,6.01-1.08,8.67-1.37,2.97-.19,6.08-.54,8.94-.93,3.43-.53,6.34-.27,10.05-.73,3.74-.5,6.38-1.48,9.86-1.83,13.19-1.83,26.55-3.06,39.86-3.88,4.92-.22,9.8-1.7,14.66-1.67l5.02.07c1.57,0,3.61-.09,5.24-.14,0,0,5.14-.17,5.14-.17,6.94-.5,6.47-10.36-.26-10.43-2.56.05-4.78.08-7.62.13-.58.01-1.81.03-2.38.01l-5.06-.15c-3.5-.12-7.51.51-10.85,1.01-3.29.49-6.23.47-9.66.69-2.47.15-7.6.47-10.05.61-6.7.46-13.71,1.09-20.36,1.85-3.23.4-7.36.71-10.51,1.43-4.59,1.23-8.48.83-13.2,1.24-2.86.31-5.65.67-8.44.8-4.41.18-8.32,1.38-12.56,1.49-1.65.1-3.53.18-5.61.5-3.5.54-5.89,1.55-9.04,2-6.88.87-13.95.23-20.86,1.52-3.28.53-6.74,1.14-10.15,1.64-1.17-.15-2.37,0-3.47.44-.39.04-.79.1-1.17.14-3.68.45-6.33,1.32-9.73,1.5-3.21.26-11.99.97-15.08,1.2-3.57.35-6.34.2-10.09.51l-5.11.52c-4.96.39-10.13,1.3-14.99,1.75-4.59.42-10.34,1.02-14.92,1.54-7.02.6-12.49.04-20.16.47-3.3.29-5.82.7-8.89.88-1.96.19-4.71.63-6.18.75-2.53.12-7.64-.08-10.48-.09-2.81-.16-5.78-.8-8.72-.86-5.57-.21-11.57-.71-17.14-1.32-3.06-.37-6.38-.05-8.96-.68-2.44-.65-4.08-1.51-7.3-2.29-10.46-2.11-13.67,12.69-3.48,15.22,1.74.35,4.78,1.65,7.16,2.14,3.73.94,7.72.65,11.12.88,4.28.32,8.47.81,12.82.91,2.42.11,4.54.13,7.27.31,2.23.22,4.49.58,6.82.61h1.53s5.08,0,5.08,0c1.89-.03,3.52.08,5.59-.14,2.59-.27,4.24-.62,6.32-.86,2.81-.2,6.11-.73,8.66-1,5.74-.43,13.81-.08,20.14-.79,2.95-.37,7.3-.94,10.25-1.26,6.41-.58,13.54-1.85,19.92-2.54,2.95-.37,6.42-.78,9.54-.85,3.11-.09,7.48-.63,10.56-.88,2.14-.23,10.77-.98,12.75-1.28,1.29-.27,2.54-.51,3.77-.73.16,1.16.33,2.32.47,3.46.34,2.61.56,4.7,1.16,7.44.87,3.31,1.85,7.16,2.8,10.46,1.69,5.08,2.78,7.87,4.11,13.06.9,3.44,2.79,7.16,4.2,10.31.67,1.56,3.31,7.99,3.95,9.45,1.12,3.08,3.81,9.69,5.33,12.98.98,2.29,2.79,5.35,4.25,7.14.89,1.26,1.38,1.81,1.81,2.85.83,2.2.82,4.23,2.03,7.92,1.24,3.62,2.48,5.47,3.44,8.09.89,2.65,1.21,5.42,2.33,8.35,1.92,4.8,3.59,10.7,4.8,15.49.82,3.98,1.31,9.39,2.35,13.52,1.19,4.76.55,7.92,1.31,13.31.95,5.65,2.97,7.75,3.06,12.68-.08,4.26,1.32,10.25,1.96,14.04.19,2.17.67,7.9.85,9.98.13,2.53.39,6.11.52,8.62,0,2.76-.87,7.65-.88,10.94-.42,4.24-.98,9.18-1.32,13.34-.48,2.86-1.39,6.37-2.14,8.73-3.01,8.01-9.38,15.25-16.56,20-6.3,3.56-13.87,5.62-21.16,5.25-3.04-.03-6.18-.77-9.25-1.33-5.64-1.02-11.42-3.17-16.76-5.39-2.78-1.18-5.62-1.78-8.26-2.79-2.29-.92-4.35-2.13-6.66-3.53-3.64-2.21-7.28-4.74-10.61-7.37-4.89-4-10.66-9.37-15.6-13.43-3.97-3.02-5.07-5.12-7.95-9.3-2.25-3.18-4.57-5.25-6.66-7.99-3.57-4.64-6.41-8.35-8.77-13.83-1.66-3.5-4.46-6.82-6.02-10.33-.55-1.21-2.94-6.53-3.57-7.85-1.6-3.31-6.53-1.47-5.56,2.1.59,1.89,2.23,7.45,2.84,9.26.85,2.43,2.33,5.14,3.46,7.4,1.58,3.2,2.21,5.98,3.96,9.53,1.69,3.43,3.75,6.17,5.62,9.25,1.83,2.86,4.52,5.71,6.06,8.28,1.07,1.7,2.15,3.82,3.81,6.1,2.53,3.45,5.26,5.41,7.95,8,9.49,9.16,19.22,18.23,31.23,24.19,3.11,1.58,6.86,2.38,9.94,3.68Z"/>
      <path d="M385.1,303.09c4.61-5.42,7.06-12.1,9.28-18.68,2.13-5.93,3.69-12.5,4.7-18.79.7-3.46,1.87-7.56,1.99-11.28.29-5.13.99-11.31,1.41-16.58.29-3.24-.22-6.72-.28-9.71.03-3.63.19-7.85-.22-11.44-.48-4.56-.81-10.75-1.87-15.24-1.35-6.33-3.29-12.42-5.37-18.48-2.48-7.56-6.3-14.43-10.81-21.03-1.74-2.52-3.53-5.14-5.76-7.44-1.68-1.77-4.1-3.43-5.88-4.72-3.27-2.34-5.38-5.02-9.47-7.67-2.45-1.58-5.16-3.09-7.75-4.4-4.13-2.14-8.28-2.66-12.43-4.45-2.54-1.13-6.2-2.38-9.21-2.42-3.31-.13-5.86.25-7.55.26-10.31-.07-21.25,1.74-29.4,8.55-2.6,2.23-5.03,4.01-7.38,7.43-3.05,4.71,3.12,9.9,7.24,6.01,1.28-1.31,2.88-2.31,5.08-3.7,6.95-5,15.92-5.59,24.23-5.15,2.95.14,5.43-.34,8,.08,1.25.29,2.2.75,3.72,1.39,2.04.97,5.36,2.04,7.57,2.67,3.13.86,5.59,2.39,8.31,3.97,3.01,1.75,4.4,3.06,7.52,5.97,2.4,2.33,5.62,3.97,7.75,6.34,4.98,6.34,9.36,13.65,12.13,21.34.79,2.57,1.92,5.69,2.67,8.27.75,3.13,1.97,6.84,2.48,9.89.76,3.77,1.19,9.73,1.5,13.67.36,3.5.08,6.88.08,10.39-.01,3.03.45,5.71.25,8.47-.49,4.64-1.14,11.13-1.51,16.06-.15,3.54-1.21,6.54-1.92,10.18-.47,2.79-1.09,5.73-1.79,8.48-.85,3.71-2.38,7.67-3.69,11.37-1.61,4.46-3.51,8.94-7.07,12.09-5.2,4.36-12.84,5.72-19.43,4.8-2.02-.31-4.31-1.06-6.41-1.56-2.81-.79-6.57-1.34-8.72-2-1.74-.5-4.5-1.65-6.21-2.24-2.99-.95-6.56-2.74-9.43-4.14-3.65-1.52-6.6-3.42-10.6-5.34-2.34-1.15-5.11-1.88-7.15-3.15-1.37-.88-3.63-3.43-4.88-4.67-2.06-2.15-6.17-5.12-7.59-6.83-.75-.85-1.61-2.51-2.79-4.86-2.33-4.19-4.56-8.08-6.26-12.48-2.21-4.89-2.92-8.94-3.82-14.23-.56-3.53-1.99-7.17-1.65-10.75.19-2.4.59-4.73.72-7.47.15-3.74-.25-5.87.05-8.48.42-2.87,1.43-5.55,1.86-8.74.52-3.57.33-6.71,1.22-10.02,1.17-5.04,2.65-9.94,4.32-14.75.68-2.26,2.33-4.99,3.6-7.07,1.71-3.05,3.28-5.79,5.57-8.62,2.44-3.2-1.44-7.5-4.89-5.31-2.97,1.87-5.88,4.49-8.23,7.25-3,2.95-5.92,6.61-7.74,10.54-2.67,5.26-4.83,10.6-6.45,16.2-.91,3.16-1.05,6.61-1.55,9.61-.53,2.77-1.7,5.94-2.07,9.03-.45,3.16-.14,7.53-.25,9.71-.1,2.12-.62,4.57-.77,7.01-.3,2.79.05,6.53.65,9.25.22,1.05.88,4.15,1.06,5.16.54,3.17.95,6.09,1.85,9.57,1.06,4.15,2.68,7.56,4.14,11.27,1.4,3.45,3.51,6.92,5.17,10.12,1.01,1.97,2.19,4.77,4.54,7.69,2.85,3.36,5.05,4.81,7.46,6.99,2.34,2.16,4.24,4.73,6.94,6.73,2.86,2.31,6.59,3.69,9.78,5,2.61,1.16,4.59,2.43,7.74,4.01,3.45,1.53,6.83,3.34,10.36,4.84,2.61.95,6.45,2.44,9.05,3.36,3.79,1.32,7.82,1.91,11.1,2.74,3.23.85,6.68,1.84,10.09,2.15,12.18,1.03,24.96-2.57,33.12-12.06Z"/>
      <path d="M517.67,298.17c5.14-4.41,9.63-9,12.84-15.18,2.16-4.18,3.44-8.88,4.35-13.5.46-2.11,1.02-4.65,1.05-7.69-.06-4.09-.86-6.33-1.51-9.27-1.18-6.89-3.33-13.58-6.27-19.97-1.32-2.99-3.6-6.35-5.08-9.09-.84-1.65-2.31-5.61-3.82-7.91-.45-.68-2.1-3.01-2.56-3.71-6.04-8.88-12.61-17.3-19.73-25.4-1.19-1.49-3.09-3.23-4.41-4.67-1.4-1.43-2.36-2.55-3.66-4.22-3.17-3.73-6.39-8.27-9.35-12.25-1.77-2.2-3.49-4.56-4.96-6.96-2.16-3.49-3.99-5.87-5.03-9.51-1.74-5.42-2.92-11.4-.64-16.89,1.21-3.07,2.45-6.39,4.66-8.64,2.8-3.08,5.46-4.61,9.86-5.13,6.83-1.29,14.44-.01,20.65,3.03,4.82,2.48,9.74,5.49,13.47,9.34,1.89,1.99,3.95,4.48,6,6.67,2.23,2.29,4.61,4.21,7.03,6.21.54.47,1.27.7,2.03.53,1.24-.27,2.02-1.5,1.74-2.73-.5-2.28-1.43-4.38-2.34-6.31-2.79-6.01-5.92-12.32-11.37-16.48-5.55-4.32-11.26-8.07-17.89-10.38-6.41-1.96-12.78-3.11-19.49-2.29-3.01.38-5.61.63-9.04,1.87-4.48,1.73-8.11,4.7-11.24,8.19-2.56,2.95-4.31,6.39-5.74,9.72-1.33,3.07-2.47,6.31-2.8,9.75-.79,7.11.78,14.27,3.21,20.95,1.23,3.33,3.49,6.6,5.03,9.26,1.16,1.96,2.41,3.87,3.74,5.72,2.58,3.34,4.7,6.63,7.28,10.15l4.02,5.11c2.46,3.37,5.86,6.44,8.59,9.6,3.48,4.02,7.06,8.44,10.41,12.75,3.26,4.43,6.93,9.62,9.97,14.13,1.43,2.21,1.73,3.89,3.39,7.13.72,1.38,1.24,2.18,1.79,3.12,1.07,1.8,2.56,4.18,3.33,6.05,2.2,4.91,3.95,10.16,4.84,15.52.4,1.93,1.45,5.7,1.37,6.92,0,1.12-.26,2.68-.7,4.62-.65,3.19-1.4,6.71-2.89,9.63-1.82,3.81-5.19,7.43-8.38,10.34-2.06,1.61-5.03,5.07-6.37,6.2-1.98,1.51-4.29,1.92-6.77,3.07-2.58,1.15-5.46,2.86-7.61,3.55-2.28.68-4.59,1.22-6.9,1.68-3.38.72-6.12.13-10.07.35-4.32.34-6.45.56-10.09-.82-3.71-1.33-6.84-2.81-10.18-4.96-4.71-2.93-9.14-6.1-11.84-10.99-2.88-4.92-3.18-10.56-3.3-16.23-.03-1.72-.16-3.5.29-5.03.47-1.5,1.48-3.5,2.31-5.4,1.45-3.52-3.46-6.06-5.46-2.73l-1.53,2.7c-3.25,4.92-2.89,11.1-3.03,16.81-.21,9.54,4.38,18.92,11.73,25,6.14,5.18,12.72,9.58,20.38,12.2,3.23,1.25,8.15,1.2,10.91,1.21,3.28.13,7.95.96,11.68.36,2.79-.32,5.64-.78,8.35-1.41,3.88-.9,6.51-2.43,9.6-3.64,1.89-.73,3.98-1.2,6.13-2.2,3.89-1.54,7.58-5.64,9.99-7.89Z"/>
      <path d="M672.16,297.58c-3.32.84-5.64,1.94-8.52,2.45-5.07.96-10.1,1.68-15.3,1.5-2.94.07-5.97-.49-8.84-.61-4.36-.09-8.5-.04-12.56-.54-4.72-.24-8.6-1.66-13.12-3.06-3.17-.83-6.24-2.17-9.17-3.62-2.14-1.03-3.93-1.97-5.3-3-4.43-3.46-9.91-8.12-11.6-13.27-.39-.96-.79-2.02-1.21-3.15-1.02-3.02-3.11-7.18-3.77-9.66-.51-1.65-.77-5.56-1.22-8.18-.21-1.17-.83-4.45-1.09-5.61-1.02-4.69-1.06-9.03-1.49-13.8-.52-4.23-.83-6.76-.85-10.17,1.56-.01,3.78-.05,4.96-.08,2.93-.05,8.84-.22,11.76-.34,6.97-.05,16.89-1.61,23.88-2.28,2.17-.32,5.77-.03,8.49-.29,3.58-.32,6.94-1.3,10.2-1.67,2.08-.22,5.16-.47,7.26-.68,3.34-.46,6.7-.73,10.2-1.1,3.29-.28,7.24-1.64,10.16-2.14,6.39-1.12,5.16-10.41-1.27-9.87-4.24.51-7.29,1.63-11.25,1.69-4.56.16-9.85.65-14.52.76-2.94.08-6.54.67-9.16,1.02-4.1.6-6.83-.25-11.4.13-8.03.45-17.67,1.42-25.64,1.04-4.27,0-9.51-.2-13.85-.36-.02-.76-.03-1.47-.02-2.1.06-3.13.39-5.77.29-9.51-.09-2.82-.32-5.09-.25-6.79.13-3.18.74-7.81.59-11.43-.06-1.97-.14-3.62-.21-5.45.03-4.11.04-8.4.2-12.54.04-2.78.2-5.45.25-8.14,1.3-.09,2.61-.2,3.86-.37,2.64-.35,5.75-1.36,7.78-1.85,3.46-.91,7.22-1.22,10.69-2.33,2.5-.82,6.99-2.32,9.49-3.12,2.77-.86,5.84-2.21,8.28-2.99l5.77-1.78c1.38-.43,4.15-1.3,5.52-1.77,1.76-.51,6.81-2.06,8.45-2.61,2.89-.89,6.07-1.6,8.9-2.81,2.66-1.07,5.1-2.57,7.45-4.04,2.09-1.1,6.27-2.75,8.55-3.79,4.08-1.88,1.79-7.9-2.48-6.68-3.63,1.16-8.38,2.22-11.77,4.04-4.65,2.42-9.63,2.82-14.67,3.93-.74.2-6.32,1.28-7.14,1.44l-11.56,2.53c-3.78.87-6.48,1.89-9.99,2.62-1.74.42-6.6,1.57-8.36,1.99-2.03.42-4.82.63-6.96.91-3.32.38-7.13,1.58-10.02,2.05-3.45.41-6.7.36-10.4.8-3.93.6-6.63,4.28-6.02,8.21.19.92.07,4.95.02,6.1-.25,6.1-.59,12.19-.71,18.32-.06,1.06-.02,2.99,0,4.04.32,5.06-.29,8.65-.68,14-.12,6.16.35,8.72-.2,14.62-.24,3.58.06,7.91.08,11.48.04.95,0,2.4-.01,3.36-.37,4.41.18,11.24.87,15.56.35,3.61.48,7.59,1.09,11.31.38,2.39.98,5.17,1.47,7.52.15.79.45,2.36.56,3.16.35,2.2.58,4.97,1.56,8.3,1.41,4.5,3.01,6.99,4.4,10.72,1.94,5.39,5.05,10.9,9.35,14.86,3.08,2.82,5.88,5.27,9.58,7.72,2.67,1.73,5.32,2.85,7.64,3.81,3.41,1.45,6.96,2.73,10.59,3.53,3.97.86,8.32,2.28,12.49,2.54,4.95.4,10.74.42,15.41.04,6.43-.1,12.53.25,18.96-1.14,3.16-.71,6.19-1.43,9.28-2.42,3-.96,6.25-2.69,8.68-3.77,1.73-.71,2.72-2.61,2.24-4.48-.53-2.04-2.61-3.26-4.64-2.73Z"/>
      <path d="M683.26.26c-8.92,3.36-17.36,8.17-25.66,12.89-2.3,1.21-4.85,1.99-7.41,3.49-3.76,2.24-6.58,4.93-10.2,7.05-1.99,1.22-5.03,3.08-6.95,4.37-2.05,1.3-4.45,2.6-7.03,4.29-3.78,2.61-5.45,4.62-8.2,6.62-2.11,1.71-5.12,4.11-7.19,5.86-2.28,1.82-5.12,3.66-7.37,5.75-2.47,2.25-5.41,4.85-7.77,7.26-1.89,1.96-3.55,4.08-5.26,6.07-4.19,4.73-7.99,9.71-10.76,15.45-1.16,2.26,1.39,4.82,3.67,3.69,5.09-2.45,9.62-5.61,14.1-8.86,2.75-1.97,5.33-4.52,7.73-6.79.78-.75,3.58-2.99,4.44-3.7,1.46-1.17,2.87-2.47,4.35-3.61,2.14-1.57,4.61-3.24,6.75-5.1.97-.79,6.64-5.71,7.71-6.63,2.39-2.19,4.06-4.03,5.5-5.15,1.86-1.44,4.14-2.91,6.56-4.7,2.45-1.92,5.74-4.23,8.24-6.11,2.63-1.94,5.09-4.55,7.57-6.35,2.05-1.41,4.63-2.58,6.96-4.18,2.35-1.66,7.52-5.52,9.94-7.31,4.42-3.57,8.55-6,13.2-9.31,2.75-2.09.23-6.34-2.91-5Z"/>
      <path d="M1016.43,307.22c2.98-1.21,5.57-1.49,8.8-2.64,3.17-1.34,5.13-3.02,8.18-4.23,4.33-2.06,1.71-8.37-2.71-6.95-2.7.81-5.79,2.51-8.26,3.49-2.61.56-6,1.08-8.75,1.93-3.81,1.22-7.86,1.86-11.72,2.94-5.46,1.7-10.62,3.11-15.98,4.79-2.66.8-5.53,1.4-8.36,2.07-3.48.67-7.14.65-10.68,1.59-2.31.58-4.19,1.26-5.79,1.64-4.77.87-11.94,2.06-17.4,3.21-1.53.27-4.07.48-5.61.68-.98.1-3.33.39-4.29.48-2.92.18-7-.59-10.47-.2-4.57.23-10.57.57-14.85.81-2.54,0-5.05-.58-7.6-1.11-2.58-.54-5.39-1.1-7.87-2.11-2.81-1.13-5.81-2.17-8.1-4.04-6.34-4.91-6.84-13.11-6.97-20.55.19-5.53.6-11.73,1.11-17.2.25-1.84,1.01-7.03,1.26-8.92.24-1.73.74-3.07,1.28-4.88,1.36-3.81,1.62-9.12,2.11-12.81.48-2.89,1.5-6.85,2.11-9.93.73-3.29,2.2-6.96,2.78-10.57.43-2.58.58-4.92,1.06-7.34.19-1.07,1.2-6.24,1.41-7.46.48-2.92,1.44-5.58,2.12-8.58.5-2.28,1.26-6.93,1.73-9.31.78-3.97.97-8.2,1.55-12.18.75-5.57,1.48-12.07,2.07-17.54.37-4.84-.18-8.12.69-12.46.22-1.46.62-4.3.72-5.72.37-5.98.73-13.05.97-19.06.16-2.74.6-6.37.58-9.44,0-3.01-.27-6.25-.22-9.02.08-5.89.51-12.6.31-18.43-.72-9.69-14.48-9.02-14.45.49.21,5.56-.17,12.32-.22,17.86-.03,3.29.25,6.11.27,9.12,0,2.93-.34,5.4-.51,8.67-.21,5.84-.51,12.87-.84,18.71l-.05.62-.14,1.3-.39,2.86c-.76,3.69-.61,9.32-.63,12.67-.35,3.78-.79,8.14-1.22,11.82-.25,2.16-.81,6.69-1.06,8.86-.22,2.27-.45,5.01-.76,7.22-.34,1.99-1.21,6.88-1.55,8.87-.48,2.87-1.51,5.67-2.07,8.66-.96,5.2-2.13,11.42-2.67,16.61-.58,3.24-1.82,6.39-2.56,9.91-.19.98-.71,3.43-.92,4.43-.43,1.98-.89,4-1.26,6.38-.65,4.33-.39,7.15-1.61,11.05-.52,1.75-1.21,3.95-1.52,5.91-.1.45-.82,6.29-.94,6.95-.63,3.97-.88,8.68-1.04,12.5-1.72,20.76,1.03,38.68,23.26,45.87,2.95,1.15,6.49,1.89,9.65,2.53,3.35.67,6.83,1.37,10.36,1.28,5.63-.33,9.99-.67,15.35-.97,3.34-.33,6.77.31,10.68,0,2.89-.36,6.56-.85,9.45-1.22,3.66-.59,7.09-1.58,10.57-2.32,1.48-.3,4.42-.83,5.91-1.13,2.93-.48,6.79-1.87,9.16-2.63,3.27-.94,6.8-1.04,10.19-1.92,2.99-.81,6.09-1.65,9.15-2.68,2.64-.96,7.22-2.47,9.94-3.48,3.07-1.05,5.38-2.1,8.29-2.9,2.88-.83,6.23-1.75,8.99-2.82Z"/>
      <path d="M1194.74,247.45c1.17,3.75,2.84,6.06,3.64,9.52,1.68,6.75,2.69,14.16,4.62,20.9.19.7.81,2.96.94,3.61.55,2.77,1.2,7.3,1.65,10.07.26,2.03.2,3.8.22,6.15.1,3.7.29,6.6-.22,9.99-.61,5.11,6.67,6.49,8.01,1.56.96-3.65.94-7.91,1.07-11.36.16-2.54.37-5.87.03-8.65-.37-3.19-.59-7.88-1.21-11.05-1.79-7.91-2.39-15.73-3.97-23.71-.53-3.51-2.61-7.47-3.56-10.52-.43-1.45-.79-3.07-1.2-4.8-.56-2.33-1.25-5.07-1.99-7.9,2.76-.49,5.76-.11,8.61-.64,5.62-.94,4.7-9.07-.95-8.77-3.22.35-6.68-.37-9.95.32-.03,0-.06.01-.09.02-.37-1.4-.72-2.74-1.03-3.95-.97-3.43-1.7-7.23-2.9-10.59-3.12-8.32-5.37-16.22-8.34-25.25-1.68-4.76-3.79-10.52-5.62-15.21-1.67-4.02-2.21-7.45-3.92-11.65-1.44-3.39-3.79-6.71-6.04-9.41-3.16-3.81-5.91-7.75-11.17-9.26-8.48-2.41-14.4,5.48-17.99,11.52-2.4,3.38-4.92,7.42-6.6,11.25-2.21,4.83-6.57,14.64-8.74,19.48-2.94,6.24-5.93,13.79-8.15,19.98-2.27,5.5-6.01,13.57-8.46,19.02-.93,1.91-2.86,4.69-3.94,7.08-2.67,5.83-5.36,12.09-7.86,18.02-1.15,2.71-1.86,5.68-2.87,8.33-.32.71-2.05,5.29-2.44,6.17-2.64,6.62-5.1,12.96-7.94,19.27-.31.61-.34.77-.72,1.3-1.65,2.13-3.82,5.66-4.76,8.17-3.4,9,9.22,14.28,13.3,5.69,1.13-2.97,2.85-4.57,4.47-7.38,4.21-8.65,7.46-17.76,10.96-26.52,1.28-2.93,2.05-6.13,3.12-9.03.15-.46,1.76-4.15,2.31-5.49,2.99-.18,6.48-.42,9.26-1.06,2.82-.54,6.7-.93,9.81-1.79,3.19-.94,4.9-1.12,8.5-1.55,3.63-.53,5.37-.67,8.84-.67,2.7-.1,7.42-.79,10.05-1.01,3.13-.29,6.1-1.6,8.94-2.19,2.73-.11,7.06-.41,9.56-.83,1.98-.24,3.78-.34,6.08-.49,0,0,2.9-.36,4.82-.6,1.3,4.79,2.66,9.88,3.79,13.95ZM1157.79,149.81s-.04-.02,0,0h0ZM1185.64,223.88c-1.91.02-4.31.02-6.52.17-3.78.35-5.69.26-9.33.28-3.25.07-6.4,1.59-9.54,1.72-1.76.06-7.26.43-8.83.41-2.89-.23-7.41-.08-10.05.2-2.06.17-4.1.21-6.81.63-2.46.43-3.84.85-6.03,1.1-1.84.13-4.44.47-6.87.74.98-1.7,2.07-3.43,3-5.52,2.7-6.19,5.83-13.01,8.33-19.22,3.63-10.55,7.61-19.23,12.01-29.29,1.3-2.87,4.88-11.41,6.4-13.94.94-1.7,2.22-3.51,3.39-5.27.67-1.04,1.39-2.27,2.07-3.24.59-.88,1.22-1.69,1.71-2.23.67.59,1.36,1.32,1.97,2.1,1.44,1.76,3.43,3.9,4.53,5.71,2.63,3.85,3.29,9.31,5.3,13.58,1.86,4.54,3.99,10.14,5.69,14.71,1.13,3.36,3.96,11.72,5.04,15,1.52,5.06,3.87,9.77,5.1,14.81.53,2.08,1.32,4.88,2.03,7.39l-2.6.18Z"/>
      <path d="M1401.23,293.54c1.28-2.85,2.4-6.47,3.2-9.53.41-1.21,1.87-3.97,2.41-5.22.62-1.36,1.66-3.72,2.21-5.08.99-2.32,1.98-4.57,3.1-6.71,1.37-2.52,2.69-4.67,3.98-7.54,1.21-2.67,1.92-5.58,2.78-8.23.78-2.28,1.78-4.3,2.85-6.67.02-.04.04-.08.05-.12.35-.01.7-.02,1.09-.03,2.05.03,4.98-.44,6.98-.66,4.26-.48,8.62-1.18,12.93-1.82,4.41-1.07,7.33-1.98,11.8-2.3,3.64-.25,9.12-.86,12.81-1.26,4.25-.55,8.33-1.75,12.55-2.17,3.59-.5,8.45-1.19,12.08-1.36,1.53-.17,2.93-.35,4.27-.54.45,1.44.91,2.91,1.13,3.68,1.67,5.65,3.23,12.23,4.86,17.9.81,3.56,2.47,6.97,3.45,10.16,1.53,5.6,3.07,12.01,4.32,17.7.52,2.62.46,6.23.98,9.14.39,2.55.9,5.15,1.1,7.58l.09,1.3.17,2.59c.09,1.83.11,3.39,0,4.76-.11,1.85,1.08,3.6,2.95,4.11,5.58,1.14,5.55-5.58,5.59-9.04.06-3.62-.12-7.67-.55-11.16-.5-3.7-.05-6.82-.54-10.8-.75-5.03-1.75-11.22-2.85-16.2-.52-3.41-2.01-7.57-2.95-10.59-1.5-5.99-3.43-14.75-5.09-20.63-.13-.44-.3-1.04-.5-1.71,3.03-.42,5.76-2.08,8.72-2.39,5.64-.93,4.69-9.11-.98-8.77-2.28.16-5.04.84-7.11,1.53-.86.25-1.15.36-1.95.39-.29-.02-.6-.02-.9-.03-.18-1.38-.39-2.83-.85-4.59-1.09-4.09-2.85-6.47-3.75-10.14-1.23-4.58-3.72-13.16-4.92-17.78-.69-2.81-1.12-5.33-2.19-8.35-1.02-2.92-2.22-5.02-3.19-7.51-1.11-3.03-1.69-7.01-3.04-10.28-1.55-4.16-3.83-8.58-5.63-12.64-1.78-3.79-3.92-7.99-7.24-10.98-4.98-4.95-12.96-5.57-18.31-1.26-4,3.19-5.75,6.56-8.15,10.26-1.98,3.08-3.5,6.32-5.28,9.56-2.67,4.31-5.18,10.22-7.43,14.91-1.74,3.85-1.92,6.46-3.57,9.8-1.05,2.1-2.79,4.92-3.85,7.44-.7,1.55-2.53,5.71-3.25,7.3-.39.86-4.6,10.6-4.85,11.12-1.14,2.6-2.09,6.14-3.2,8.39-1.17,2.36-3.46,5.73-4.55,8.58-.46,1.08-1.25,3.24-1.93,5.08-1.18,1.26-1.9,2.94-1.94,4.74-.19.43-.37.83-.51,1.1-2,4-3.81,8.85-5.03,13.2-.98,2.97-2.68,5.49-4.25,8.44-1.38,2.58-2.54,5.23-3.66,7.82-.51,1.19-1.52,3.55-2.06,4.72-.76,1.61-1.57,3.3-2.35,5.04-1.35,3.38-1.85,6.79-3.4,10.12-3.42,9.03,9.29,14.3,13.32,5.65ZM1430.52,225.24c1.75-3.75,2.33-6.66,3.86-10.12,3.34-7.68,6.85-16.75,10.92-24.12,1.57-2.93,2.58-7.53,3.7-10.28l2.21-4.83c.57-1.26,1.56-3.4,2.13-4.62,3.13-5.62,6.28-12.38,9.97-17.71.94-1.32,1.71-2.27,2.32-2.67,0,0,0,0,.02,0,2.41,1.43,3.74,4.6,5.17,7.38l2.31,4.78c1.4,2.94,2.84,5.83,3.82,8.84.42,1.38.83,3.22,1.42,5.16.87,3.36,3.07,7.24,4.24,10.24,1.01,2.76,1.77,6.94,2.72,9.9,1.21,4.1,3.75,12.74,4.93,16.76.83,2.77,2.72,6.11,3.42,8.49.16.58.3,1.27.43,2.02-.86.07-1.69.13-2.47.18-4.9-.04-11.34.62-16.3,1.01-3.05.26-6.18,1-9.18,1.17l-6.03.31c-4.5.23-8.61.12-13.22.77-1.89.21-4.59.96-6.17,1.17-4.04.35-8.02.77-12.15,1.01-.15,0-.41.03-.72.05.83-1.45,1.72-2.9,2.66-4.87Z"/>
      <path d="M1345.76,295.95c1.3,1.42,3.49,5.67,5.4,7.59,1.97,2.16,4,4.48,5.72,6.86,1.33,1.69,2.49,3.14,3.4,4.62,1.25,2,3.84,2.78,6.02,1.74,2.34-1.12,3.34-3.93,2.21-6.28-1.06-2.22-2.31-4.14-3.38-5.87-1.48-2.54-3.68-5.57-5.49-7.94-.53-.69-.87-1.22-1.31-2-2.52-5.45-7.76-12.11-12.94-16.06-1.35-1.08-2.75-2.12-4.16-3.07-1.99-1.35-5.36-2.88-6.49-3.77-6.89-4.84-14.49-9.53-22-13.13-1.47-.75-4.86-3.42-7.33-4.42-.32-.14-.67-.28-1.03-.43,1.28-1.11,2.56-2.31,3.87-3.69,1.79-1.92,2.9-3.25,4.66-4.72,0,0,1.86-1.49,1.86-1.49,2.75-1.95,6.3-6.08,8.15-9.07,2.83-4.43,6.1-7.94,8.95-12.36l2.69-4.21c1.96-2.76,3.75-6.22,5.34-8.99,1.61-2.67,3.68-5.94,5.16-8.91,3.79-6.44,7.25-14.51,7.5-22.2-.17-5.41.8-8.64.02-14.1-2.56-13.48-15.18-20.37-27.96-20.51-2.33-.17-5.56-.74-8.36-.62-5.47.23-9.85,2.13-14.77,4.03-2.87,1.19-5.84,2.74-8.41,4.8-2.35,1.8-4.61,4.73-6.19,6.58-2.37,2.75-4.75,4.73-7.07,7.88-3.51,4.88-5.44,9.53-7.92,15.02-2.06,4.77-2.56,10.25-4.25,15.07-1.69,4.95-3.43,10.22-4.42,15.39-.97,5.13-1.34,11-1.71,15.97-.14,1.34-.33,2.76-.52,4.2-.33-2.37-.67-4.88-.78-5.51-.79-5.27-1.85-11.02-3.57-16.04-1.29-3.97-1.29-7.4-2.19-11.62-.87-4.07-2.47-7.97-3.33-11.94-.37-1.59-.96-5.03-1.47-6.54-.88-3.33-3.13-7.69-3.84-9.93-3.3-9.06-16.4-4.76-13.76,4.45,1.38,4.19,2.68,6.3,3.55,9.4.22.76,1.06,4.88,1.16,5.6.46,2.59,1.59,6.11,2.31,8.59,1.25,3.94,1.35,7.29,2.1,11.48,1.17,5.59,3.12,10.29,3.73,15.88.46,2.75,1.33,9.41,1.71,12.26.38,3.17,1.82,6.65,2.13,9.59.13,3.07-.29,7.25.14,10.46.28,2.19.58,5.9.76,7.98.06,2.43.13,6.47.21,8.89.03,1.83-.16,5.12-.19,7.01-.16,3.59.18,7.82.14,11.43-.02.88-.42,8.23-.44,9.23-.19,9.44,13.01,11.17,15.27,2.02.42-1.9,1.26-5.78,1.69-7.71.85-3.41.81-7.08,1.31-10.19,1.15-5.5,2.37-11.73,3.29-17.48.36-2.33.91-4.82,1.34-7.18.87-5.78,1.61-11.92,2.56-17.69.57-3.79,1.91-11.71,2.22-15.46.48-7.95,1.2-15.47,3.82-22.92.58-1.77,1.94-5.65,2.43-7.4.6-1.93,1.39-5.66,1.87-7.68.72-3.11,1.69-4.87,3.11-7.89,1.14-2.45,2.52-5.45,4.06-7.52.96-1.4,3.08-3.44,4.43-4.92,2.07-2.07,4.04-5.09,5.97-6.72,1.37-1.08,2.91-1.9,4.68-2.64,2.26-.88,5.71-2.32,8.02-2.76,2.79-.46,4.77.19,7.97.37,2.62.24,4.56.17,6.69.79,3.6,1.24,6.78,3.27,7.62,7.17.25,1.76,0,3.34-.12,5.73-.23,3.69.29,5.6-.51,8.6-1.13,4.48-2.68,8.03-5.14,12.2-1.48,3.01-3.1,5.51-4.89,8.54-1.74,3.06-2.99,5.63-4.88,8.36-1.5,2.33-3.54,5.8-5.26,7.93-1.93,2.45-4.49,5.9-6.15,8.51-1.83,2.68-2.54,3.83-5.17,5.91-2.79,2.09-5.88,5.24-8.01,7.69-2.1,2.43-5.72,5-8.7,7.39-.52.43-1.26.97-1.89,1.41-2.35.08-4.5.72-6.1,2.91-2.88,3.79-1.12,9.26,3.18,11.06,1.71.86,3.63.93,5.48.55.48.07.95.21,1.48.48,2.66,1.37,5.4,1.91,7.96,2.92.53.23,1.21.42,1.73.78,4.12,3.07,11.81,5.98,16.5,8.82,3.09,1.67,7.14,4.21,10.2,6.06,3.63,2.29,5.34,2.52,8.17,4.4,4.01,2.45,7.17,5.28,10.19,8.98Z"/>
      <path d="M459.27,678.73c-1.27.42-2.79.71-4.4,1.01-1.21.23-2.46.46-3.76.78-1.12.28-2.24.58-3.34.88-1.73.47-3.36.92-4.88,1.19-1.25.22-2.71.3-4.24.39-1.38.08-2.8.16-4.3.34-1.33.16-2.56.39-3.75.6-1.59.29-3.09.56-4.3.57h-.24c-2.83.04-5.49.08-7.94-.15-3.45-.32-6.01-.65-8.29-1.06-.96-.17-2.21-.68-3.52-1.22-1.25-.51-2.67-1.09-4.22-1.54-1.52-.44-2.98-.72-4.27-.96-1.39-.26-2.7-.51-3.5-.86-2.01-.89-4.13-2.16-6.31-3.77-1.23-.91-2.47-2.09-3.78-3.34-.78-.75-1.56-1.48-2.35-2.19-2.24-2-3.72-3.65-4.81-5.36-1.42-2.23-2.61-4.57-3.54-6.95-.35-.9-.6-2.23-.86-3.65-.28-1.47-.59-3.14-1.1-4.88-.36-1.21-.75-2.34-1.14-3.43-.58-1.66-1.14-3.23-1.39-4.67-.3-1.7-.43-3.63-.57-5.68-.06-.97-.13-1.94-.21-2.92-.14-1.64-.24-3.3-.35-4.98-.09-1.42-.18-2.86-.3-4.3-.14-1.83-.39-3.55-.64-5.22-.21-1.44-.41-2.81-.52-4.1-.05-.65-.1-1.31-.14-1.97.84-.03,1.66-.05,2.44-.03,1.07.03,2.23.14,3.45.25,1.61.15,3.39.32,5.27.32.36,0,.71,0,1.08-.02,2.09-.08,4.05-.39,5.79-.66,1.31-.21,2.56-.4,3.66-.47,1.09-.07,2.37.02,3.73.11,1.7.11,3.64.24,5.68.1,2.27-.16,4.33-.63,6.15-1.06,1.23-.29,2.39-.56,3.39-.67,1.48-.17,3.03-.25,4.67-.34,1.46-.08,2.96-.16,4.51-.31,1.46-.14,2.88-.32,4.25-.5,1.69-.22,3.29-.43,4.84-.54,1.11-.08,2.31-.08,3.59-.09,1.93,0,3.92-.01,6.07-.26,2.08-.24,4.04-.62,5.93-.99,1.23-.24,2.4-.46,3.54-.64l1.06-.17c2.62-.41,5.33-.83,7.98-1.17,3.96-.51,6.76-4.13,6.25-8.1-.51-3.96-4.13-6.75-8.1-6.25-2.84.37-5.64.8-8.36,1.22l-1.06.16c-1.4.22-2.75.48-4.06.73-1.71.33-3.32.64-4.86.82-1.34.16-2.85.16-4.45.17-1.46,0-2.97,0-4.56.12-1.97.14-3.85.38-5.67.62-1.31.17-2.55.33-3.77.45-1.25.12-2.54.19-3.91.26-1.78.1-3.62.19-5.53.41-1.82.21-3.52.6-5.02.95-1.42.33-2.75.64-3.86.72-1.07.08-2.37-.01-3.75-.1-1.67-.11-3.56-.23-5.56-.11-1.79.11-3.44.37-5.03.62-1.47.23-2.85.45-4.08.5-1.31.05-2.83-.09-4.45-.25-1.41-.13-2.86-.27-4.42-.31-.85-.02-1.67-.01-2.48,0,.01-.22.04-.43.05-.66.09-1.96.04-3.8,0-5.57-.03-1.22-.07-2.37-.05-3.45.04-2.12-.16-4.11-.33-5.87-.11-1.16-.22-2.26-.25-3.23-.03-1.07.15-2.39.35-3.78.19-1.36.4-2.89.46-4.52.06-1.68-.03-3.25-.1-4.64-.08-1.37-.15-2.67-.04-3.62.1-.92.36-2,.64-3.15.44-1.81.94-3.86,1.01-6.14.08-2.62-.23-5-.49-6.91-.13-.98-.25-1.91-.29-2.63-.04-.75-.07-1.45-.11-2.1.75-.12,1.5-.23,2.25-.33,1.03-.14,2.17-.23,3.37-.32,1.99-.15,4.24-.32,6.57-.79,1.01-.2,2.04-.39,3.07-.57,2.13-.38,4.33-.77,6.61-1.36,1.84-.48,3.51-1.08,5.12-1.66,1.37-.49,2.66-.95,3.84-1.26,1.4-.36,2.9-.63,4.5-.92,1.49-.27,3.03-.55,4.6-.92.95-.22,1.89-.43,2.83-.64,2.22-.49,4.51-.99,6.78-1.67,2.34-.69,4.53-1.45,6.64-2.19.88-.31,1.74-.61,2.6-.9,1.92-.65,3.66-1.41,5.2-2.07,1.28-.55,2.48-1.08,3.51-1.42,2.68-.88,4.58-1.46,6.05-1.91,1.21-.37,2.15-.66,3.01-.95,1.36-.46,2.46-.91,3.74-1.44,1.26-.52,2.83-1.17,5.25-2.07,3.99-1.48,6.02-5.9,4.54-9.89-1.47-3.99-5.9-6.02-9.89-4.54-2.7,1-4.41,1.71-5.79,2.28-1.14.47-1.9.79-2.77,1.08-.74.25-1.56.5-2.6.82-1.54.47-3.53,1.08-6.33,2-1.71.56-3.31,1.25-4.85,1.93-1.38.6-2.68,1.17-3.98,1.6-.9.3-1.82.62-2.75.95-1.94.68-3.94,1.38-5.93,1.96-1.76.52-3.69.95-5.74,1.4-1.01.22-2.02.45-3.04.69-1.18.28-2.46.51-3.81.75-1.79.32-3.65.66-5.58,1.16-1.88.48-3.58,1.09-5.22,1.68-1.35.48-2.62.94-3.79,1.25-1.69.44-3.5.76-5.42,1.1-1.15.2-2.3.41-3.43.63-1.4.28-3,.4-4.7.53-1.37.1-2.79.21-4.27.41-1.4.19-2.8.41-4.18.63-1.83.29-3.55.57-5.13.74-2.11.23-4.02,1.31-5.3,3-1.28,1.69-1.81,3.83-1.46,5.92.3,1.82.51,5.53.64,8.16.07,1.36.24,2.65.41,3.9.21,1.56.4,3.04.36,4.4-.02.67-.31,1.85-.58,2.98-.36,1.5-.78,3.2-.99,5.12-.24,2.19-.12,4.28-.02,6.12.06,1.17.12,2.27.09,3.25-.03.84-.17,1.87-.32,2.96-.26,1.86-.55,3.96-.49,6.3.04,1.52.18,2.95.32,4.32.15,1.47.28,2.86.26,4.1-.02,1.43.01,2.81.05,4.14.04,1.56.08,3.04.02,4.42-.04.96-.15,2-.27,3.1-.19,1.84-.4,3.93-.37,6.14.06,3.14.14,6.51.42,9.84.15,1.79.39,3.46.63,5.09.22,1.47.42,2.87.52,4.16.11,1.38.19,2.75.28,4.11.11,1.78.23,3.54.38,5.28.07.88.13,1.76.19,2.64.16,2.38.32,4.83.77,7.36.47,2.67,1.3,5.01,2.03,7.08.34.95.65,1.86.9,2.69.29.99.51,2.13.74,3.35.36,1.95.78,4.15,1.64,6.37,1.29,3.33,2.94,6.59,4.91,9.67,2.43,3.81,5.46,6.7,7.52,8.55.67.6,1.33,1.23,1.99,1.86,1.52,1.46,3.25,3.1,5.26,4.59,3.07,2.27,6.17,4.1,9.2,5.45,2.43,1.08,4.8,1.53,6.9,1.92,1.04.2,2.03.38,2.84.62.77.22,1.71.61,2.69,1.01,1.9.78,4.06,1.66,6.62,2.12,2.73.49,5.68.87,9.59,1.24,2.12.2,4.21.25,6.26.25,1.12,0,2.22-.01,3.32-.03h.24c2.48-.04,4.78-.45,6.82-.82,1.03-.19,2-.36,2.92-.47.99-.12,2.09-.18,3.27-.25,1.83-.1,3.91-.22,6.08-.6,2.2-.39,4.26-.95,6.25-1.5.97-.27,1.95-.53,2.93-.77.9-.22,1.9-.41,2.95-.61,1.95-.37,4.16-.78,6.42-1.54,4.03-1.34,6.21-5.7,4.87-9.73-1.34-4.03-5.7-6.21-9.73-4.87Z"/>
      <path d="M801.93,678.43c-2.45.82-4.97,1.46-8,2.19-.87.21-1.73.42-2.59.64-2,.5-3.89.97-5.7,1.29-1.33.24-2.9.29-4.56.35-1.18.04-2.4.08-3.68.19-1.56.13-3.24.1-5.02.07-1.12-.02-2.23-.04-3.34-.02-1.43.02-2.76.12-4.05.21-1.56.11-3.04.22-4.27.14-1.85-.12-3.8-.5-5.87-.89-.69-.13-1.38-.26-2.08-.39-2.54-.46-5.04-1.23-7.68-2.04-2.9-.89-5.29-1.69-7.49-2.67-1.15-.51-2.25-.94-3.32-1.36-1.55-.61-3.02-1.18-4.12-1.82-2.02-1.19-4.04-2.68-5.98-4.42-2-1.79-3.51-3.56-4.62-5.41-1.1-1.83-2.19-4.17-3.42-7.35-.96-2.47-1.77-5.4-2.52-8.17-.22-.82-.46-1.65-.7-2.49-.59-2.07-1.15-4.02-1.49-5.95-.34-1.88-.58-3.9-.84-6.03-.12-.97-.24-1.94-.37-2.92l-.12-.87c-.35-2.65-.72-5.38-.92-8.02-.08-.99.09-2.36.26-3.8.18-1.47.38-3.13.39-4.91,0-.6,0-1.2-.01-1.79.43.02.87.03,1.31.03.25,0,.51,0,.77,0,1.89-.05,3.68-.22,5.4-.38,1.41-.13,2.73-.26,3.99-.31,2.31-.09,4.43-.39,6.47-.69,1.14-.17,2.21-.32,3.24-.43,1.4-.14,2.92-.16,4.54-.17,1.46-.01,2.98-.03,4.56-.13,1.53-.1,3.01-.27,4.43-.42,1.64-.18,3.2-.35,4.68-.42,1.05-.05,2.11-.07,3.16-.09,2.1-.05,4.27-.09,6.52-.31,1.23-.12,2.46-.22,3.69-.33,1.89-.16,3.78-.33,5.67-.53,1.29-.14,2.64-.21,4.07-.28,1.71-.09,3.47-.18,5.31-.4,2.15-.25,4.17-.73,5.96-1.16,1.25-.3,2.43-.58,3.53-.76,1.2-.19,2.39-.41,3.59-.63,1.87-.34,3.63-.66,5.38-.89,3.96-.51,6.76-4.14,6.25-8.1-.51-3.96-4.15-6.77-8.1-6.25-2.12.27-4.15.64-6.12,1-1.11.2-2.21.4-3.32.58-1.62.26-3.12.62-4.57.97-1.53.36-2.97.71-4.26.86-1.39.16-2.85.24-4.4.32-1.56.08-3.17.17-4.83.34-1.79.19-3.59.34-5.39.5-1.27.11-2.55.22-3.82.34-1.73.16-3.54.2-5.47.25-1.16.03-2.32.05-3.48.1-1.96.09-3.83.29-5.63.49-1.34.15-2.6.29-3.83.37-1.15.08-2.39.09-3.7.1-1.87.02-3.81.03-5.88.24-1.34.14-2.62.32-3.86.5-1.75.25-3.39.49-4.93.55-1.67.06-3.27.21-4.82.36-1.55.15-3.01.29-4.41.32-.74.02-1.55-.02-2.4-.08-.07-.73-.12-1.45-.14-2.11-.04-1.38.05-2.88.15-4.48.08-1.26.16-2.56.19-3.92.03-1.96-.12-3.83-.25-5.48-.1-1.25-.2-2.42-.2-3.46,0-1.31.14-2.74.29-4.24.13-1.35.28-2.75.33-4.23.06-1.67,0-3.26-.07-4.66-.06-1.4-.11-2.72-.03-3.77.08-.97.33-2.09.58-3.28.38-1.73.81-3.7.87-5.84.08-2.49-.22-4.75-.46-6.57-.14-1.04-.26-2.02-.28-2.72-.01-.75-.02-1.46-.03-2.15.83-.15,1.66-.29,2.51-.41,1.06-.16,2.22-.26,3.46-.37,1.94-.17,4.13-.37,6.38-.82,1.92-.39,3.77-.87,5.55-1.33,1.32-.34,2.56-.67,3.79-.94,3.23-.73,6.39-1.48,9.39-2.25,1.68-.43,3.26-.92,4.78-1.4,1.48-.46,2.88-.9,4.22-1.23,1.11-.27,2.34-.47,3.64-.69,1.91-.31,3.89-.64,5.97-1.25,2.7-.8,5.18-1.7,7.57-2.57l1.77-.64c1.72-.62,3.33-1.31,4.74-1.92,1.39-.6,2.7-1.16,3.83-1.53,2.52-.83,4.33-1.28,5.78-1.65,1.26-.32,2.35-.6,3.47-.99,1.31-.47,2.36-.95,3.47-1.46,1.3-.6,2.78-1.28,5.32-2.22,3.99-1.48,6.02-5.9,4.55-9.89-1.48-3.99-5.9-6.02-9.89-4.55-3.1,1.15-5.02,2.03-6.42,2.68-.89.41-1.53.7-2.18.94-.44.16-1.17.34-2.09.58-1.59.4-3.78.96-6.8,1.95-1.79.59-3.48,1.32-5.12,2.02-1.33.57-2.58,1.11-3.85,1.57l-1.84.67c-2.17.79-4.42,1.61-6.67,2.27-1.15.34-2.58.58-4.1.82-1.47.24-3.13.51-4.84.93-1.78.44-3.48.97-5.11,1.48-1.4.44-2.73.85-4.02,1.18-2.85.73-5.86,1.45-8.94,2.15-1.48.33-2.91.71-4.3,1.07-1.65.43-3.21.84-4.7,1.14-1.42.29-3.02.43-4.72.58-1.39.12-2.83.25-4.32.47-1.45.21-2.83.46-4.17.7-1.74.31-3.38.61-4.88.77-2.11.23-4.03,1.31-5.31,3-1.28,1.69-1.81,3.83-1.46,5.92.13.79.14,2.62.15,4.4,0,1.02,0,2.13.03,3.3.03,1.55.22,3.01.4,4.42.19,1.46.37,2.84.33,4.09-.02.73-.27,1.85-.53,3.05-.34,1.54-.72,3.29-.88,5.26-.17,2.02-.09,3.9-.01,5.72.05,1.23.1,2.39.06,3.45-.04.99-.15,2.08-.26,3.25-.17,1.74-.37,3.72-.37,5.82,0,1.64.13,3.18.25,4.66.12,1.42.22,2.76.2,3.96-.02,1-.08,2.08-.16,3.21-.12,1.88-.24,3.83-.18,5.93.05,1.66.21,3.22.36,4.72.14,1.4.28,2.73.3,3.94.02,1.16.06,2.33.09,3.5.06,1.97.12,3.83.1,5.66,0,.93-.14,2.04-.28,3.22-.24,2.02-.52,4.31-.32,6.81.24,3.07.63,6.02,1.01,8.87l.12.86c.12.93.24,1.85.35,2.77.28,2.24.56,4.56.97,6.85.48,2.7,1.21,5.24,1.84,7.47.22.77.43,1.52.64,2.27.86,3.18,1.8,6.55,3.03,9.73,1.56,4.02,3.01,7.11,4.58,9.71,1.92,3.19,4.39,6.12,7.55,8.96,2.71,2.42,5.55,4.51,8.45,6.22,2.16,1.27,4.37,2.13,6.33,2.89.94.37,1.83.71,2.66,1.08,3.08,1.37,6.25,2.4,9.22,3.32,2.83.87,6.03,1.86,9.49,2.48.63.11,1.27.24,1.9.36,2.33.45,4.96.95,7.77,1.13.65.04,1.3.06,1.93.06,1.57,0,3.07-.11,4.43-.21,1.12-.08,2.17-.16,3.16-.17.95-.01,1.91,0,2.87.02,2.09.04,4.25.07,6.59-.13.89-.08,1.87-.11,2.9-.14,2.03-.07,4.32-.15,6.73-.58,2.33-.41,4.57-.97,6.74-1.52.81-.2,1.62-.41,2.43-.6,2.96-.71,6.14-1.51,9.29-2.56,4.03-1.34,6.21-5.7,4.87-9.73-1.34-4.03-5.7-6.21-9.73-4.87Z"/>
      <path d="M811.71,380.41c-1.54.91-2.95,1.86-4.32,2.78-1.22.82-2.38,1.6-3.52,2.27-1.05.62-2.22,1.19-3.45,1.8-1.6.79-3.26,1.6-4.93,2.64-2,1.25-3.7,2.62-5.35,3.94-.87.7-1.69,1.36-2.49,1.95-1.89,1.39-3.91,2.73-5.86,4.03l-2.08,1.39c-2.43,1.63-4.95,3.31-7.37,5.06-1.13.81-2.32,1.58-3.59,2.4-1.36.87-2.76,1.77-4.15,2.78-1.1.79-2.12,1.6-3.11,2.38-1.4,1.1-2.72,2.14-4.02,2.97-2.74,1.74-5.4,3.63-8.12,5.78-.85.67-1.72,1.3-2.59,1.93-1.7,1.24-3.45,2.51-5.15,4.06-.85.77-1.69,1.55-2.52,2.33-1.45,1.35-2.82,2.63-4.22,3.84-1.34,1.16-2.51,2.34-3.63,3.49-1.05,1.07-2.04,2.08-3.03,2.9-.84.7-1.76,1.39-2.74,2.12-1.59,1.19-3.24,2.41-4.85,3.93-2.42,2.29-4.64,4.44-6.8,6.57-1.39,1.38-2.58,2.79-3.74,4.15-.89,1.04-1.72,2.03-2.57,2.91-2.56,2.65-2.49,6.88.17,9.44,1.3,1.25,2.97,1.87,4.64,1.87s3.5-.68,4.8-2.04c1.15-1.19,2.17-2.39,3.15-3.55,1.01-1.2,1.97-2.32,2.95-3.29,2.09-2.07,4.24-4.15,6.59-6.37,1.03-.98,2.3-1.92,3.64-2.92,1.09-.81,2.22-1.65,3.36-2.61,1.47-1.23,2.73-2.52,3.96-3.76.99-1,1.92-1.95,2.85-2.75,1.59-1.38,3.12-2.8,4.6-4.18.8-.74,1.59-1.49,2.4-2.22,1.16-1.06,2.55-2.07,4.03-3.14.97-.71,1.98-1.44,2.99-2.24,2.37-1.86,4.66-3.5,7.02-5,1.87-1.19,3.52-2.48,5.11-3.74.93-.73,1.81-1.42,2.68-2.06,1.09-.79,2.29-1.56,3.55-2.37,1.36-.87,2.76-1.78,4.18-2.8,2.23-1.61,4.54-3.16,6.99-4.8l2.05-1.37c2.08-1.38,4.23-2.82,6.38-4.39,1.04-.77,2.01-1.55,2.96-2.31,1.4-1.13,2.73-2.19,4.06-3.03,1.08-.68,2.36-1.31,3.72-1.97,1.42-.69,2.88-1.41,4.38-2.3,1.46-.87,2.83-1.79,4.16-2.68,1.27-.85,2.46-1.65,3.67-2.37,3.18-1.88,4.23-5.97,2.35-9.15-1.88-3.18-5.97-4.23-9.15-2.35Z"/>
      <path d="M1296.69,677.95c-1.24.41-2.41.85-3.54,1.28-1.58.6-3.08,1.16-4.45,1.52-1.45.38-3.09.61-4.83.86-1.14.16-2.27.32-3.39.52-1.07.19-2.14.41-3.2.63-1.78.37-3.46.72-4.97.85-1.8.17-3.71.16-5.74.16-.88,0-1.75,0-2.62,0-2.24.04-4.5-.11-6.89-.27l-1.46-.09c-2.51-.15-4.99-.54-7.94-1.07-2.52-.45-5.38-.97-7.88-1.71-2.18-.65-4.47-1.52-7.41-2.83-.55-.25-1.11-.49-1.66-.73-1.98-.86-3.84-1.67-5.28-2.61-2.25-1.47-4.35-3.27-6.1-4.84-1.93-1.72-3.54-3.58-4.81-5.52-1.67-2.56-2.83-4.75-3.66-6.89-.43-1.1-.73-2.65-1.06-4.28-.25-1.27-.51-2.59-.88-3.99-.27-1.03-.56-2.07-.87-3.12-.54-1.87-1.05-3.64-1.36-5.37-.14-.79-.29-1.58-.44-2.38-.41-2.15-.8-4.19-.97-6.16-.1-1.16-.07-2.5-.05-3.92.03-1.63.06-3.48-.09-5.4-.11-1.47-.28-2.88-.45-4.24-.2-1.68-.4-3.28-.46-4.78-.02-.52-.02-1.05-.03-1.59.91-.02,1.8-.05,2.66-.08,1.52-.06,3.04-.08,4.55-.09,1.59-.02,3.18-.04,4.76-.1,1.69-.06,3.32-.18,4.9-.3,1.53-.11,2.98-.22,4.39-.27,2.11-.07,4.11-.37,5.88-.64,1.3-.19,2.52-.38,3.64-.45,1.46-.1,2.97-.13,4.57-.15,1.51-.03,3.08-.05,4.68-.15,1.09-.06,2.18-.11,3.27-.15,2.04-.08,4.15-.17,6.31-.37.98-.09,1.97-.16,2.96-.24,2.19-.16,4.46-.32,6.82-.71,1.71-.28,3.25-.68,4.75-1.06,1.47-.38,2.85-.74,4.06-.88,1.28-.15,2.72-.17,4.24-.19,1.56-.02,3.18-.04,4.9-.19.79-.07,1.59-.14,2.39-.21,2.33-.2,4.74-.4,7.19-.71,3.96-.51,6.76-4.14,6.25-8.1-.51-3.96-4.15-6.76-8.1-6.25-2.13.27-4.27.46-6.55.65-.83.07-1.65.14-2.47.21-1.17.1-2.44.12-3.79.14-1.82.02-3.71.05-5.73.28-2.2.25-4.23.78-6.02,1.24-1.23.32-2.4.62-3.45.79-1.72.28-3.57.41-5.53.55-1.1.08-2.2.16-3.29.26-1.77.17-3.59.24-5.52.32-1.17.05-2.35.09-3.52.16-1.31.08-2.66.1-4.09.12-1.71.03-3.48.06-5.31.19-1.69.12-3.27.35-4.79.58-1.52.23-2.96.44-4.25.49-1.7.06-3.36.18-4.96.3-1.51.11-2.94.22-4.36.27-1.46.05-2.92.07-4.4.09-1.64.02-3.28.04-4.94.1-.66.03-1.34.05-2.04.07.01-.54.03-1.07.03-1.61.02-1.22.13-2.53.25-3.91.13-1.55.27-3.16.3-4.86.03-1.93-.12-3.76-.26-5.38-.11-1.26-.21-2.46-.2-3.49,0-1.21,0-2.41-.02-3.59-.02-1.75-.04-3.4.02-4.95.04-1.1.14-2.23.25-3.43.16-1.84.33-3.74.3-5.74-.01-.95-.03-1.89-.06-2.8-.04-2.01-.09-3.91-.04-5.62.07-2.12-.06-4.04-.18-5.73-.08-1.19-.16-2.3-.13-3.16.02-.73.05-1.44.09-2.13,1-.14,1.98-.27,2.94-.42,2.16-.32,4.16-.83,6.09-1.32,1.23-.31,2.4-.61,3.53-.83,1.04-.21,2.33-.3,3.71-.39,1.71-.12,3.66-.25,5.69-.66.78-.15,1.57-.3,2.35-.45,2.38-.45,4.84-.92,7.33-1.56,2.37-.61,4.44-1.52,6.27-2.33,1.11-.49,2.15-.95,3.07-1.26,1.4-.46,2.74-.96,4.04-1.43,1.64-.6,3.19-1.17,4.66-1.61,1-.3,2.32-.44,3.71-.6,1.66-.19,3.53-.4,5.46-.92,2.36-.63,4.45-1.46,6.3-2.19,1.08-.43,2.1-.83,3-1.12,2.63-.86,4.48-1.29,5.96-1.64,1.09-.25,2.12-.5,3.15-.83,2.45-.8,4.21-1.41,9.19-3.26,3.99-1.48,6.02-5.9,4.54-9.89-1.47-3.98-5.9-6.02-9.89-4.54-4.78,1.77-6.34,2.32-8.62,3.06-.4.13-1.08.29-1.87.47-1.68.39-3.98.93-7.25,2-1.34.44-2.62.95-3.86,1.44-1.61.64-3.13,1.24-4.64,1.64-.8.22-1.96.35-3.18.48-1.9.21-4.06.45-6.36,1.14-1.94.57-3.8,1.26-5.6,1.92-1.17.43-2.36.87-3.57,1.27-1.63.54-3.13,1.21-4.46,1.79-1.4.62-2.73,1.21-3.86,1.5-2.02.52-4.14.92-6.38,1.35-.82.16-1.65.31-2.47.48-1.08.21-2.38.3-3.76.4-1.72.12-3.66.25-5.67.66-1.5.3-2.91.66-4.28,1.01-1.64.42-3.19.81-4.58,1.02-2.77.42-5.74.79-9.06,1.15-2.11.23-4.02,1.3-5.3,2.99-1.28,1.69-1.81,3.82-1.46,5.9.07.5-.04,2.1-.11,3.26-.08,1.2-.16,2.56-.2,4.07-.04,1.57.06,3.11.16,4.59.1,1.47.19,2.86.15,4.22-.07,2.12-.02,4.22.03,6.45.02.88.04,1.77.05,2.68.02,1.21-.11,2.64-.24,4.15-.12,1.34-.24,2.73-.3,4.23-.07,1.92-.05,3.84-.03,5.69.01,1.1.03,2.2.02,3.32,0,1.72.12,3.32.25,4.87.12,1.37.22,2.67.2,3.82-.02,1.18-.13,2.47-.24,3.83-.13,1.57-.27,3.19-.3,4.92-.01.75-.03,1.5-.05,2.26-.05,2.2-.1,4.46-.06,6.78.02,1.25.01,2.5,0,3.75-.01,1.87-.03,3.79.05,5.77.09,2.12.32,4.09.56,6,.15,1.26.3,2.45.38,3.58.09,1.2.07,2.54.05,3.96-.03,1.74-.06,3.54.1,5.46.23,2.78.74,5.43,1.19,7.77.14.73.28,1.46.41,2.19.45,2.52,1.12,4.86,1.72,6.93.26.91.52,1.82.76,2.72.25.97.46,2.02.68,3.12.42,2.1.89,4.49,1.8,6.84,1.22,3.15,2.84,6.24,5.1,9.72,2,3.08,4.51,5.98,7.45,8.61,2.18,1.95,4.83,4.22,7.94,6.25,2.53,1.66,5.1,2.77,7.58,3.84.51.22,1.02.44,1.53.67,3.57,1.59,6.42,2.67,9.26,3.52,3.08.92,6.03,1.48,9.56,2.11,3.01.54,6.28,1.07,9.73,1.29l1.41.09c2.33.15,4.73.3,7.26.3.27,0,.55,0,.83,0,.79-.01,1.59-.01,2.39,0,2.28,0,4.64,0,7.16-.23,2.37-.22,4.56-.67,6.68-1.11.92-.19,1.84-.38,2.78-.55.94-.17,1.88-.3,2.84-.43,2.01-.28,4.28-.6,6.6-1.21,2.14-.56,4.08-1.29,5.96-2,1.04-.39,2.02-.76,2.97-1.08,4.03-1.34,6.21-5.7,4.87-9.73-1.34-4.03-5.71-6.21-9.73-4.87Z"/>
      <path d="M319.08,700.41c-.35-1.25-.75-2.65-1.14-3.92l-1.12-3.75c-.94-3.03-1.17-6.09-1.69-9.3-.67-3.29-1-6.51-1.58-9.94-.7-3.95-2.02-7.42-2.29-11.32-.24-2.52-.44-5.75-.92-8.27-.74-5.45-2.24-12.5-2.9-17.76-.38-2.63-1.03-5.19-1.3-7.68-.05-1.05-.45-4.9-.48-5.92-.27-3.62-.79-8.25-1.1-11.82-.24-5.22-.54-10.88-.9-16.1-.13-3.68-.95-8.52-1.12-11.81-.22-4.69-.21-11.35-.65-15.97-.44-3.41.63-6.82.77-10.43.02-.82-.05-4.41-.08-5.31-.03-.82-.05-4.65-.12-5.38-.13-2.22-.64-5.33-1.01-7.53-.57-3.89-.28-6.94-.49-11.35-.15-2.89-.36-5.37-.25-7.35.08-2.03.61-4.66.72-8.17.07-3.72-.64-6.8-.91-9.03-.56-3.94.54-7.34.16-11.63-.2-3.27-1.21-6.11-1.42-8.94-.07-.65-.1-2.02-.16-2.72-.1-4.04-.36-8.76-1.02-12.68-.69-4.32-.59-8.71-2.58-12.9-2.71-5.84-11.38-6.59-13.99-.24-1.75,4.57-2.57,8.33-4.19,12.59-1.2,3.31-3.01,8.71-4.21,11.95-.88,2.13-3.26,6.06-4.21,8.92-1.8,4.55-4.05,10.69-5.52,15.31-.93,2.5-2.88,6.18-3.84,9.2-1.02,3.08-1.66,5.94-2.89,8.82-3.87,10-8.01,19.85-11.99,30.18-1.9,4.67-4.11,10.61-5.56,15.38-.23.68-.85,1.94-1.15,2.62-2.59,5.52-5.42,12-7.95,17.37l-1.32,2.84c-1.46,3.27-2.8,4.2-4.94,8.13-2.53,5.19-4.91,9.14-7.63,13.85-1.7,2.81-3.29,4.24-5.53,7.56-1.43,2.13-2.47,4.01-3.44,5.41-2.06,2.9-4.98,5.76-7.5,8.31-.62-.61-1.25-1.25-1.93-1.89-1.85-1.75-3.18-2.88-4.54-4.54-1.66-2.15-3.67-4.44-5.12-6.56-1.78-2.59-2.95-5.86-4.49-8.86l-.95-2.12c-.48-1.1-1.39-3.39-1.82-4.51-1.11-2.69-2.1-4.4-2.99-6.67-.76-2.06-1.02-3.79-1.62-6.32-.7-2.88-1.88-7.02-2.65-9.93-.74-3.1-2.35-6.79-3.2-9.57-.45-1.6-.72-4.55-1.08-6.67-.74-3.38-1.27-7.08-1.86-10.6-.61-3.32-1.93-6.39-2.46-9.33-.6-2.66-1.45-5.42-2.03-7.9-.48-2.43-.33-5.07-.82-7.68-.66-3.93-2.19-7.08-2.67-10.76-.31-2.16-.63-5.4-1.28-7.86-.75-2.5-1.95-6.72-2.73-9.23-.41-1.24-1.05-2.82-1.52-3.97-1.52-3.05-1.75-6-4.57-7.97-3.25-2.21-7.67-1.38-9.89,1.87-4.07,6.06-8.88,12.43-11.43,19.39-2.37,6.63-3.69,13.49-6,19.92-2.89,7.71-3.76,16.51-5.32,24.44-.42,2.26-1.06,4.6-1.38,7.08-.34,2.78-.75,8.02-1,10.78-.14,2.6-.68,8.09-.7,10.67-.07,2.88.25,6.04.21,8.89.1,2.77.71,6.44.75,8.41-.14,9.38-.49,18.75.56,28.26.59,4.15,1.56,6.22,1.76,9.56.05,3.16-.13,7.18.16,10.37.23,7.06,1.77,14.31,2.93,21.19,1.27,6.72,1.81,13.08,2.75,20.11.32,3.65,1.77,7.57,2.92,10.85.92,3.06,1.19,6.07,1.9,9.54,1.71,7.26,12.1,5.16,11.07-2.03-.54-3.29-.92-7.18-1.89-10.74-.64-2.19-1.41-4.34-1.9-6.28-.09-.42-.13-.67-.21-1.23l-.19-1.53c-.55-5.42-1.14-11.57-1.85-17.3-1.1-7.78-2.73-15.37-2.9-23.19-.34-4.29.31-8.1-.14-12.45-.26-2.83-1.37-6.58-1.55-8.54-.73-8.76-.33-17.76-.03-26.7,0-3.67-.58-5.94-.62-8.72.06-3.8-.34-7.69.12-11.48.4-4.66.96-11.89,1.53-16.46.46-3.02,1.55-6.76,1.99-9.94.7-3.63,1.76-9.77,2.52-13.1.76-3.14,1.97-6.09,3-9.25,1.54-4.84,3.23-11.58,4.88-16.13.56-1.4,1.22-2.75,1.94-4.07.23.79.45,1.56.67,2.28.59,2.22.65,3.98,1.04,6.63.38,3.46,1.9,7.62,2.63,10.78.46,2.79.29,5.9,1.01,8.81.74,3.2,1.64,6.01,2.26,9.07.63,2.79,1.57,5.27,2.06,7.62.51,3.1.9,6.3,1.61,9.48.62,3.07.58,5.48,1.55,9.03,1.02,3.67,2.31,6.07,3.12,9.43.44,1.61,1.54,5.79,1.97,7.34,1.05,4.11,1.84,9.05,3.85,13.08,2.34,4.89,3.74,9.17,6.07,13.88,1.05,2.19,2.28,5.11,3.75,7.44,1.46,2.34,3.4,4.73,5.01,6.76,2.06,2.83,5.1,5.93,7.49,8.07,4.32,4.1,11.31,12.67,17.8,6.62,3.83-3.79,8.45-8.12,11.92-12.2,2.2-2.41,4.51-6.45,6-8.73,1.36-2.03,4.4-5.51,5.89-8.17,2.7-4.64,5.79-10,7.96-14.55.91-1.7,4.15-6.04,5.1-8.5,0,0,1.41-3.04,1.41-3.04,3.13-6.78,6.18-13.68,9.24-20.4.97-2.42,1.63-5.01,2.4-7.31.64-1.84,2.63-6.78,3.36-8.77,4.14-10.95,8.97-22.25,13.13-33.55.73-2.16,1.21-4.22,1.88-6.21,1.02-3.05,2.31-5.18,3.64-8.74,1.84-5.63,3.28-9.71,5.42-15.2.83-2.33,1.81-3.87,2.91-6.09.38,2.14.91,4.14,1.11,6.02.14,2.21-.24,4.62-.3,7.28-.23,3.58,1.22,9.3,1.18,12.02,0,1.85-.46,4.51-.6,7.83-.11,3.37.23,6.23.37,8.68.21,3.57.07,8.68.79,12.67l.67,3.95c.17,1.16.32,2.05.34,3.22.08,1.91.16,5.78.25,7.68.09,2.68-.51,4.63-.67,7.63-.12,1.4.02,3.34.14,4.79.39,4.69.77,11.32.99,16.09.21,3.1.73,5.89,1.03,8.3.24,2.11.52,5.54.7,7.79.5,5.27.67,10.98,1.4,16.21.52,3.53.98,8.35,1.38,11.89.24,3.4,1.2,6.95,1.8,10.15.45,3.36,1.32,7.06,1.95,10.06.23,1.1,1.58,8.74,1.76,9.59.26,1.39.51,4.3.74,5.81.41,4.12,1.93,8.28,2.92,12.15.66,2.86,1.09,5.96,1.92,8.92.6,2.29.91,4.41,1.52,6.84,1.08,4.08,2.89,7.86,4.4,11.75,1,2.52,2.05,5.09,3.32,7.63.81,1.62,2.71,2.44,4.48,1.84,1.94-.65,2.98-2.78,2.3-4.71-.81-2.39-1.54-4.87-2.26-7.42Z"/>
      <path d="M657.77,610.7c-.34-3.34-.61-8.05-.88-11.42-.28-3.23-.89-5.98-1.32-8.97-.52-3.41-.82-6.86-1.6-10.44-.61-2.92-1.8-5.6-2.21-8.4-.87-8.35-1.36-17.73-2.18-26.12-.24-4.69-.9-9.17-.91-13.73.02-3.03-.01-7.93.34-10.89.64-4.84-.47-10.19-.75-14.79-.06-2.86.18-5.59.06-8.66-.07-1.94-1.43-3.67-3.4-4.13-2.43-.58-4.86,1.01-5.34,3.46-.59,2.61-1.42,5.7-1.87,8.52-.68,3.88-.18,7.87-.76,11.46-.46,2.71-1.14,5.96-1.39,8.69-1.54,11.65.12,23.77.65,35.38.38,4.23.59,8.19,1.03,12.61.33,2.95,1.35,6.02,2.1,8.71.64,2.53.84,4.72,1.2,7.52.38,3.49,1.25,7.81,1.58,11.17.38,5.39.84,11.95,1.43,17.31.47,3.99.41,6.71.38,10.7-.01,3.17.2,5.32,0,8-.36,3.08-1.07,7.93-1.46,11-.34,2.55-1.11,5.75-1.5,8.33-.69,4.83-1.79,9.32-4.38,13.22-1.15,1.7-4.48,3.06-6.45,4.14-1,.45-1.64.75-2.5.68-.83-.18-1.51-.47-2.56-.91-3.16-1.45-7.11-2.76-10.09-4.31-2.28-1.29-5.21-2.56-7.45-3.8-2.86-1.55-5.42-4.76-8.61-6.78-1.64-1.09-3.56-2.19-5.16-3.14-2.17-1.33-3.72-2.71-5.75-4.53-6.63-5.75-11.58-13.76-16.14-21.15-2.59-4.69-4.81-10.32-7.42-15.04-2.11-4.49-4.38-10.81-6.22-15.52-1.49-3.67-2.36-7.07-3.89-10.96-1.18-2.92-2.34-4.97-3.22-7.53-.49-1.75-1.73-6.08-2.24-7.92-.43-1.52-.82-3.62-1.12-5.19-.48-3.06-1.99-7.29-2.08-10.25.03-2.33.66-4.14.19-6.71-.57-4.01-4.14-7.33-7.32-8.99-3.22-1.61-7.12-.3-8.73,2.91-1.37,2.76-3.35,5.96-4.7,8.87-1.34,2.91-1.98,5.38-3.12,8.1-.79,1.83-1.61,3.37-2.55,5.6-1.35,3.14-2.05,7.05-2.87,10.18-1.44,4.54-2.92,10.44-3.08,15.28-.33,4.95-3.01,9.29-3.22,14.37-.18,2.88-.04,4.27-.43,6.6-.45,2.56-1.08,4.78-1.32,7.78-.32,3.1-1.15,11.44-1.43,14.42-.67,6.66-.67,12.92-1.46,19.59-.31,3.12.45,7,.33,9.84-.19,2.72-.86,7.01-.69,9.97,0,1.52.06,5.89.05,7.33.01,1.75.21,5.76.22,7.61-.11,2.95,1.15,6.84,1.22,9.42.47,8.81,13.09,8.41,13.12-.28-.09-3.98-1.19-6.38-1.25-9.84-.04-1.78-.18-5.14-.22-6.97-.05-1.29-.01-6.01-.07-7.26-.14-3.49.46-5.66.65-9.42.09-2.16-.09-4.11-.23-5.69-.35-3.04-.02-5.31.33-8.45.49-4.09.34-8.19.77-12.19.4-4.39,1.24-12.61,1.69-17.05.26-2.85,1.37-6.49,1.56-9.62.21-2.66.05-4.38.41-6.4.51-2.25,1.26-3.91,2.01-6.64.98-3.58,1.05-7.19,1.46-10.4.72-4.2,2.62-9.22,3.44-13.51.68-3.25,2.15-5.73,3.54-8.91.24,1.03.48,2.06.67,3.11.22,1.14.6,3.36.88,4.51.16.92,1.78,6.47,1.99,7.37.83,3.77,2.91,8.1,4.29,11.34,1.21,3.17,2.4,7.44,3.75,10.79.99,2.7,3.06,8.12,4.11,10.79,2.47,6.48,5.94,12.45,8.67,18.88,1.79,3.69,4.16,7.12,6.22,10.51,3.98,6.2,8.33,12.07,13.88,17.05,2.2,2.07,5.05,4.52,7.78,6.2,2.3,1.46,4.35,2.45,6.32,4.19,1.81,1.63,5.07,4.74,7.81,6.16,2.09,1.26,4.45,2.23,6.53,3.4,4.11,2.38,8.23,3.72,12.42,5.61,7.07,3.46,13.38,2.47,19.93-1.36,7.58-3.42,11.51-9.4,14.1-17.02,1.41-3.97,1.92-8.35,2.71-12.26.98-4.47,1.68-10.17,2.33-14.73.32-2.12.6-4.55.56-6.63-.1-4.55-.08-7.35-.12-11.74-.09-3.84-.72-8.37-1.04-12.05Z"/>
      <path d="M1157.4,598.4c-.5-2.59-.86-6.94-1.98-10.22-1.11-3.3-2.75-5.94-3.82-9.09-.88-2.32-1.7-5.33-2.76-7.62-1.55-3.61-3.51-7.41-5.29-10.88-2.83-5.27-5.29-10.29-8.47-15.62-1.32-2.39-2.54-5.01-4.27-7.37-2.92-3.93-6.67-6.22-9.32-10.13-2.89-4.31-8.35-8.45-12.03-11.55-1.71-1.52-3.64-3.54-6.24-5.53-2.58-1.93-4.99-3.29-7.12-4.59-3.58-2.1-6.57-4.73-10.55-6.54-3.14-1.43-8.68-2.84-11.98-3.81-5.38-1.5-9.99-2.98-15.7-4.04-4.11-.76-8.38-.1-12.4-.36-5.79-.49-11.83.45-17.57,1.25-3.65.6-7.61,2.21-10.75,3.14-2.36.68-5.01,1.34-7.7,2.33-1.78.65-2.89,2.51-2.54,4.45.4,2.18,2.52,3.61,4.69,3.17,2.3-.42,4.77-.65,7.48-1.07,3.8-.53,6.68-1.53,10.08-1.74,2.47-.07,5.9-.16,8.37-.28,1.94-.15,5.15.4,7.05.53,3.37.49,7.01.2,10.22.75,7.24,1.66,15.02,4.68,22.33,6.79,4,1.07,6.67,3.68,10.19,5.91,2.52,1.6,5.84,3.4,7.77,4.88,1.54,1.15,3.24,2.85,5.4,4.79,3.21,2.89,5.74,4.39,8.3,7.14,2.41,2.79,5.33,6.82,8.27,9.15,1.79,1.59,2.87,2.46,4.01,4.3,3.67,6.37,7.72,13.21,11.46,19.83,1.09,1.87,2.64,4.84,3.68,6.76,1.78,3.14,3.02,6.75,4.35,10.11,1.19,3.47,3.51,6.62,4.45,10.05.64,2.3,1.09,6.25,1.95,9.35,1.16,4.64,1.61,9.28,1.5,14.13-.23,4.18.66,8.3-.65,12.18-1.14,4.09-3.82,9.73-5.53,13.7-.95,2.15-2.74,4.76-4.18,7.31-2.1,3.95-4.72,7.6-7.85,10.82-1.34,1.41-2.66,2.52-4.13,3.89-1.82,1.72-3.4,3.68-5.26,5.14-2.43,1.88-4.89,2.92-7.95,4.95-3.54,2.31-5.24,4.2-8.78,5.1-1.5.4-3.76.74-5.45,1.06-3.02.61-6.18,1.37-9.19,1.59-3.48.34-7.53-.38-11.09-.51-5.61-.24-9.7-1.93-12.9-6.07-2-3.3-3.9-7.93-4.89-11.67-.59-2.98-.52-6.81-.71-9.91.03-2.24.18-5.21.18-7.67-.02-1.78-.17-8.25-.19-9.98-.1-3.3-.89-6.43-.89-9.48.18-5.79.26-13.53.21-19.47-.03-4.55-.03-11.09-.19-15.68-.1-2.93-.72-5.54-.93-7.96-.13-1.47.19-3.75.35-6.9.17-2.8-.22-6.14-.5-8.82-.44-3.76-.1-7.27-.24-11.2-.21-6.17-.58-13.57-1.13-19.77-.24-2.64-.88-5.49-1.37-8.07-1.63-8.62-14.07-6.9-13.32,1.82.33,2.76.78,4.84.87,7.33.21,4.56.29,10.82.37,15.32.15,3.76-.13,7.56-.14,11.45-.01,3.25.51,6.67.59,9.81,0,3.05-.69,5.45-.47,9.99.13,2.77.81,5.22.86,7.49.06,5.07.21,18.33.2,23.22.17,5.26-.52,11.09.28,16.38.27,1.85.81,5.1.75,6.91l.29,7.69c.07,2.9-.13,5.46,0,8.59.33,4.17.48,8.45,1.73,12.56.92,3.03,2.31,5.65,3.71,8.24,2.15,4.1,5.1,8.52,9.22,11.12,2.75,1.88,5.81,3.18,8.91,3.95,5.07,1.16,8.5.55,12.96.59,5.82.23,11.88-.68,17.52-2.09.6-.16,2.04-.35,2.68-.49,2.8-.45,6.13-1.13,8.75-2.56,2.86-1.51,4.96-3.27,6.88-4.51,1.86-1.23,4.2-2.38,6.68-4,2.96-1.85,5.42-4.64,7.84-6.95,3.65-3.08,7.13-6.54,9.97-10.44,1.46-1.95,2.75-4.02,3.95-6.14,1.45-2.47,3.12-4.69,4.7-7.78,2.76-6.06,6.67-12.86,7.7-19.52.54-3.62.12-6.86.41-10.25.15-3.52.18-6.91-.23-10.56-.28-2.71-.87-5.49-1.39-8.14Z"/>
      <path d="M1527.57,666.49c-.47-1.84-2.34-2.95-4.18-2.48-1.15.29-2.29.55-3.42.76-2.16.42-4.62.55-6.83,1.31-1.51.5-3.05,1.2-4.42,1.61-4.3,1.59-8.82,1.73-13.28,2.91-5.08,1.5-9.73,3.03-14.82,3.79-4.22.71-8.67,2.38-12.79,3.47-5.07,1.06-10.57,2.4-15.91,3.06-5,.65-9.64,3.17-14.52,4.14-1.98.44-5.02,1.04-7.07,1.45-2.46.51-5.95.75-8.86,1.25-1.22.17-4.24.77-5.51.93l-3.68.62c-3.6.53-6.89,1.77-10.37,2.07-2.34.24-5.7.07-8.6.17-4.67-.21-11.42-.19-13.26-5.39-.53-1.54-1.38-3.81-1.5-5.26-.07-2.43,1.22-3.95,2.36-7.59,1.67-5.08,2.49-7.4,5.5-11.82,1.73-2.81,3.54-5.43,5.94-7.79,1.24-1.21,3.77-3.69,5-4.9,2.82-2.6,4.8-5.64,7.53-8.2,1.65-1.6,3.79-3.52,5.76-5.95,1.88-2.35,3.14-4.29,4.34-5.64,2.77-3.04,6.83-7.69,9.81-10.45,2.69-2.49,5.24-5.97,7.58-8.66,2.2-2.4,5.16-4.83,7.28-7.54.12-.15,5.02-6.21,5.36-6.65,1.46-1.96,5.22-7.13,6.64-8.95,3.16-3.9,5.86-8.74,8.5-12.98,4.71-8.06,9.38-16.8,10.47-26.22,1.25-7.32.76-12.51-4.5-18.32-2.61-2.8-5.13-6.27-8.06-8.84-3.02-2.75-7.85-4.62-11.08-6.07-3.16-1.5-7.75-3.79-11.72-4.35-2.67-.48-5.17-.49-7.66-.81-3.65-.46-7.63-1.45-11.41-1.53-6.62-.05-12.44-.15-19.07.03-6.25.61-12.42.97-18.74,1.42-8.5.87-17.58,2.31-25.98,3.39-3.83.53-7.1.55-11.29,1.16-8.19,1.46-5.77,13.22,2.23,11.48,2.44-.68,6.02-.98,8.9-1.55,6.29-1.11,13.76-2.6,20.06-3.49,7.06-1.08,14.82-1.31,21.91-1.86,7.07-.67,14.44-.08,21.5-.08,3.63.15,6.9,1.13,10.6,1.6,2.42.3,4.86.47,7.07.85,3.32.66,5.45,2.02,8.94,3.68,4.38,2.1,7.53,3.03,10.37,6.67,1.16,1.4,3.5,4.3,4.71,5.65.99,1.23,1.68,2.14,2.09,3.41.26,1.18-.1,3.18-.52,5.89-1.14,7.84-5.31,14.66-9.34,21.35-2.55,3.86-5.02,8.13-8,11.65-1.59,1.93-5.26,6.77-6.82,8.76-.35.41-5.05,6.04-5.23,6.24-2.96,3.36-6.96,6.4-9.73,10.06-2.55,3.3-5.82,5.99-8.72,8.96-.85.91-5.5,5.83-6.47,6.87-2.11,2.33-3.58,4.53-4.83,6-1.17,1.4-2.73,2.79-4.67,4.58-2.3,2.04-4.58,4.85-6.61,7.03-.79.79-2.98,2.9-3.85,3.74-3.49,3.24-6.96,6.96-9.48,11.06-1.78,2.81-3.53,5.17-5.21,8.79-1.84,4.11-2.55,7.11-4.08,10.77-2.58,5.77-2.46,11.72-.17,17.59,1.73,6.11,6.09,11.37,11.84,13.9,5.72,2.43,10.17,2.65,15.76,2.81,3.25-.09,6.13-.02,9.93-.37,3.87-.33,7.74-1.7,11.41-2.4,1.8-.31,5.45-1.05,7.25-1.35,3.82-.76,7.11-1.04,11.27-1.99,2.23-.55,5.16-1.19,7.4-1.79,3.53-.8,7.52-2.59,10.84-3.77,3.32-1.06,6.62-1.42,10.42-2.44,1.27-.36,8.1-2.17,9.2-2.5,3.01-.9,5.96-2.21,8.83-3.2,1.81-.67,4.86-1.33,6.82-1.89,3.99-1.03,8.08-2.87,11.71-4.25,4.41-1.47,9.28-2.23,13.51-4.38,1.49-.68,2.79-1.37,4.11-2.01,1.81-.81,3.76-1.12,5.76-1.8,2.71-.93,6.59-1.64,5.78-5.37Z"/>
      <path d="M993.58,613.75l-1.27-10.8c-.31-3.2-.64-8.17-1.18-11.25-.12-1.11-.52-6.21-.7-7.19-.83-5.6-1.81-12.39-2.5-18.02-.1-.6-.18-1.8-.25-2.4-.17-4.43-.62-9.77-1.42-14.23-.47-4.21-.1-8.93-.53-13.33-.25-3.79-.53-7.72-.99-11.5-.76-4.69.05-8.47,0-13.32-.08-2.88-.63-5.9-.81-8.52-.46-5.13-7.75-5.44-8.73-.48-.41,2.14-.56,4.18-.73,5.99-.52,5.46-2.75,11.51-2.31,17.11,0,1.45.06,2.37.03,4.03-.09,3.13-.12,6.57-.11,9.7-.05,3.79-.52,7.88-.07,11.88.26,2.73.78,5.27.91,8,.12,2.11.16,4.89.4,7.27.12.9.36,3.49.51,4.38.51,4.61,1.41,10.76,2.01,15.34.09.7.55,5.96.59,6.77.43,3.38.84,7.7,1.1,11.08l1.32,11.49c.71,4.79,1.3,9.72,1.47,14.43.1,2.3-1.08,5.63-1.43,8.55-.67,4.97.22,8.45-1.26,13.08-.35,1.37-.86,3.33-1.06,4.91-.34,2.38-.47,5.54-.91,7.14-.71,2.41-2.41,4.79-3.69,7.02-.87,1.42-1.72,2.58-2.23,3.06-.53.46-.32.3-1,.48-3.66.31-8.62-.73-12.17-2.48-1.82-.83-4.1-2.06-6.08-3.04-1.75-.88-4.25-1.91-5.9-2.87-2.81-1.65-5.58-3.9-8.24-5.92-1.64-1.33-4.03-3.23-5.71-4.5-4.47-3.17-8.6-6.73-11.9-10.98-1.69-2.21-6.43-11.08-8.02-13.69-2.95-5.4-6.33-11.22-8.76-16.81-.55-1.24-1.63-3.74-2.19-4.98-1.16-2.48-1.63-4.51-2.59-7.47-1.04-3.5-3.06-6.88-4.16-10.28-.61-1.95-1.2-5.12-1.94-7.48-.19-.56-.85-2.71-1.07-3.34l-1.69-5.23c-1.41-5.01-3.84-8.62-3.2-13.81.06-.68.24-1.95.31-2.64,1.03-6.2-2.03-11.04-7.96-13.44-3.18-1.43-6.92-.01-8.35,3.17l-3.97,8.84c-1.14,2.6-3.49,6.49-4.74,10.27-.89,2.6-1.29,5.88-2,8.23l-2.62,9.26c-.92,3.4-2.54,6.49-3.25,10.2-.16.79-.57,2.83-.73,3.65l-.97,4.87c-.61,3.05-.46,6.84-.81,9.72-.3,2.56-1.05,5.75-1.46,9.35l-.91,9.72c-.24,3.68-.02,6.83-.19,9.46-.11,2.48-.78,5.72-.88,9.62.08,6.11-.03,12.86-.2,18.78-.05,2.5-.64,5.71-.67,9.59.27,7.45.36,11.62.25,19.01.5,8.78,13.06,8.37,13.12-.28-.07-2.82.1-5.92.05-9.37-.05-3.48-.35-6.62-.34-9.32-.02-2.41.51-5.43.64-9.21.18-5.36.24-13.93.19-18.93.02-2.39.62-5.35.87-9.15.2-3.65,0-6.8.19-9.39l.86-9.06c.28-2.65,1-5.6,1.46-9.28.43-3.36.2-5.96.73-9.06.66-2.97,1.71-9.69,3.06-12.51,1.34-3.29,3.17-10.52,4.22-14.02.9-3,1.08-5.39,1.97-8.03,1.38,4.27,3.01,8.81,4.2,12.91.44,1.42,1.15,3.56,1.49,5.01.57,2.48,1.42,6.38,2.6,9.06,1.06,2.58,2.2,4.69,3,7.28.74,2.35,1.68,5.86,2.88,8.43,4.51,11.23,11.08,22.58,16.94,33.18,4.07,8.11,11.78,15.03,19.05,20.29,1.95,1.58,4.59,3.74,6.57,5.3,2.34,1.82,4.99,3.84,7.63,5.41,1.75,1.01,3.73,1.98,5.53,2.82,4.44,2.21,8.88,4.86,13.87,6.22,4.98,1.24,8.6,2,14.19,1.38,6.09-.65,10.79-5.58,13.47-10.19,1.68-2.71,3.51-5.52,4.67-8.57,1.61-3.74,1.74-8.32,2.22-11.74.65-3.11,1.67-5.86,1.98-9.55.37-4.21-.11-6.58.8-10.23.41-1.79,1.13-4.96,1.15-7.76.06-2.74-.33-5.77-.55-8.47-.24-2.78-.72-6.1-1.1-8.62Z"/>
    </g>
  </g>
</svg>