<svg width="240" height="112" viewBox="0 0 240 112" fill="none" xmlns="http://www.w3.org/2000/svg">
<g clip-path="url(#clip0_17_145)">
<path d="M22.5315 49.9447C23.5822 50.4043 24.6643 50.7775 25.8061 50.9845C26.8065 51.2276 27.84 51.2276 28.8546 51.0818C29.8676 50.9359 30.8743 50.6693 31.7711 50.1627C32.3805 49.7801 32.8752 49.2562 33.3746 48.7434C33.8725 48.2321 34.3704 47.7177 34.7379 47.0982C35.1792 46.427 35.3975 45.417 35.564 44.6564C35.7022 44.1341 35.7462 43.5742 35.809 43.0661C35.8781 42.5736 36.0493 41.8961 36.0697 41.4225C36.0996 41.1026 36.0697 40.505 36.0635 40.0424C36.0336 39.4119 36.0226 38.6497 35.9692 38.0192C35.9457 37.7652 35.9394 37.3166 35.9158 37.0657C35.8766 36.5999 35.7289 36.098 35.6661 35.7734C35.5625 35.2433 35.7258 34.732 35.6284 34.1659C35.5703 33.6703 35.1887 32.974 35.1431 32.6242C35.0787 32.2274 35.0662 31.5264 34.9813 31.0261C34.9138 30.5525 34.873 30.1259 34.8054 29.6789C34.7348 29.2163 34.5761 28.8226 34.4646 28.3004C34.3735 27.8863 34.3751 27.4895 34.2824 27.1633C34.1505 26.6223 33.8961 26.0749 33.7013 25.5558C33.5647 25.1747 33.5773 24.6603 33.4171 24.2384C33.2726 23.8354 32.971 23.3021 32.8831 23.0324C32.7731 22.6842 32.5203 21.784 32.2156 21.3449C31.969 20.9104 31.8151 20.5905 31.6188 20.2C31.5371 20.04 31.1539 19.2449 31.0722 19.0504C30.8743 18.5501 30.4141 17.6499 30.1613 17.0963C29.9712 16.6305 29.6791 16.0706 29.4844 15.6377C29.2927 15.1578 29.2566 14.6936 29.0634 14.1322C28.9158 13.704 28.7949 13.3731 28.6912 13.0234C28.6739 12.9669 28.6912 12.9606 28.6755 12.9042C28.641 12.7771 28.7116 12.7567 28.6755 12.6297C28.6048 12.3756 28.5687 12.3866 28.498 12.1325C28.4274 11.8816 28.3787 11.8957 28.3111 11.6448C28.242 11.3735 28.2153 10.972 28.1698 10.674C28.1478 10.514 28.1023 10.2898 28.0661 10.0577C28.3551 10.0043 28.7415 9.99179 28.9441 9.95415C29.9618 9.75497 31.0078 9.73145 32.0459 9.5856C32.5627 9.53541 33.1611 9.308 33.6275 9.22175C33.9401 9.16685 34.3939 9.19195 34.7583 9.15117C35.2201 9.10569 35.7101 9.07746 36.1294 9.03198C36.5959 9.00218 37.0859 8.92376 37.5351 8.8626C38.0738 8.77948 38.5183 8.734 39.1009 8.66029C39.6883 8.58187 40.1124 8.49718 40.6574 8.44072C41.6939 8.29644 42.7321 8.14117 43.7781 8.0408C44.8225 7.94043 45.8669 7.80085 46.9114 7.73655C47.6841 7.70204 48.4537 7.5954 49.2154 7.6001C49.6096 7.60481 49.6112 7.49346 50.0054 7.49816C50.252 7.49816 50.5739 7.57658 50.8284 7.56874C51.232 7.55619 51.6325 7.47307 51.6325 7.47307C52.7225 7.39465 52.6502 5.90632 51.5932 5.89534C51.1912 5.90318 50.8409 5.83104 50.3949 5.83888C50.3038 5.84045 50.1138 5.81692 50.0242 5.81536C49.6269 5.80438 49.6253 5.8624 49.228 5.84986C48.6783 5.83104 48.039 5.87495 47.5145 5.95337C46.9978 6.03021 46.5501 6.13843 46.0099 6.1745C45.6219 6.19802 44.8115 6.1745 44.4267 6.19803C43.3745 6.27017 42.2766 6.40347 41.2322 6.52267C40.7249 6.5854 40.0731 6.62147 39.5784 6.73439C38.8575 6.92729 38.2403 6.79712 37.5005 6.86142C37.0513 6.91004 36.6226 7.08726 36.1844 7.10765C35.4918 7.13588 34.8761 7.29428 34.2102 7.31153C33.951 7.32722 33.6574 7.33506 33.3307 7.38524C32.781 7.46993 32.4072 7.64088 31.9109 7.70989C30.8303 7.84633 29.7231 7.7585 28.6378 7.95925C28.1227 8.04237 27.5777 8.14901 27.0421 8.22743C26.8584 8.20391 26.6605 8.16783 26.4893 8.23684C26.428 8.24311 26.3793 8.34506 26.3197 8.35133C25.7417 8.4219 25.3208 8.53169 24.7852 8.56148C24.2811 8.60226 22.9005 8.68381 22.4152 8.72145C21.8545 8.77634 21.4116 8.66656 20.8227 8.71518C20.4206 8.75282 20.4285 8.83594 20.028 8.87201C19.249 8.93317 18.4307 8.99904 17.6658 9.06962C16.9449 9.13549 16.0544 9.35348 15.3351 9.43661C14.2326 9.5307 13.3656 9.35349 12.161 9.42249C11.6427 9.46797 11.2454 9.50404 10.7632 9.53227C10.4554 9.56207 10.025 9.65617 9.79572 9.67342C9.39837 9.69224 8.59738 9.6546 8.15291 9.65303C7.71158 9.62794 7.24669 9.49777 6.78494 9.48679C5.91013 9.45386 4.9568 9.51189 4.08356 9.41622C3.60297 9.35819 3.10196 9.29546 2.69675 9.19665C2.31353 9.09471 2.03083 9.06962 1.52511 8.94729C-0.117704 8.61637 -0.623427 10.9391 0.975411 11.3358C1.24869 11.3907 1.74185 11.5256 2.11564 11.6025C2.70146 11.7499 3.32498 11.7514 3.85897 11.7875C4.53118 11.8377 5.19239 11.88 5.87558 11.8957C6.25566 11.913 6.59333 11.8346 7.02367 11.8628C7.3739 11.8973 7.72414 11.993 8.09008 11.9992C8.20944 11.9992 8.20945 12.0337 8.33038 12.0337C8.7293 12.0337 8.7293 11.9789 9.12823 11.9757C9.42507 11.971 9.67793 12.0134 10.003 11.9804C10.4098 11.9381 10.6737 11.9224 11.0003 11.8848C11.4417 11.8534 11.9584 11.753 12.3589 11.7107C13.2604 11.6432 14.5373 11.7781 15.5314 11.6652C15.9947 11.6072 16.667 11.4205 17.1303 11.3703C18.137 11.2794 19.2552 11.0771 20.2573 10.9673C20.7206 10.9093 21.2671 10.801 21.7572 10.7901C22.2456 10.776 22.9304 10.7383 23.4157 10.6975C23.7518 10.6615 25.1103 10.5752 25.4213 10.5266C25.6239 10.4842 25.7872 10.4874 25.9804 10.4529C26.0055 10.6348 26.0338 10.7728 26.0558 10.9516C26.1092 11.3609 26.2254 11.673 26.3197 12.1012C26.4563 12.6203 26.6118 13.221 26.761 13.7369C27.0264 14.5336 27.1206 14.9932 27.328 15.8071C27.4693 16.3466 27.7473 16.9426 27.9688 17.4382C28.074 17.6828 28.4792 18.6928 28.5797 18.9218C28.7556 19.4048 29.2189 20.4258 29.4577 20.9418C29.6116 21.3009 29.8974 21.7824 30.1267 22.0647C30.2665 22.2623 30.3026 22.3596 30.3702 22.5242C30.5005 22.8693 30.5728 23.161 30.7628 23.7381C30.9575 24.3058 31.1837 24.5834 31.3345 24.9959C31.4743 25.4115 31.4554 25.871 31.6313 26.3305C31.9329 27.0833 32.2234 28.0008 32.415 28.7505C32.5438 29.3747 32.569 30.2357 32.7323 30.8834C32.9192 31.6299 32.8407 32.1192 32.96 32.963C33.1092 33.8491 33.4061 34.1769 33.4218 34.9485C33.4092 35.6166 33.6495 36.5576 33.75 37.152C33.7799 37.4923 33.8364 38.3909 33.8631 38.7187C33.8835 39.1155 34.0311 39.6722 34.0531 40.0659C34.0531 40.4988 33.8568 41.2688 33.8552 41.7848C33.7893 42.4497 33.6605 43.2198 33.6071 43.8722C33.5317 44.3207 33.4814 44.8979 33.3652 45.268C32.8925 46.5242 31.8559 47.6817 30.7282 48.4266C29.7388 48.9849 28.52 49.3143 27.3735 49.2562C26.8961 49.2515 26.3935 49.1418 25.9113 49.0555C25.0255 48.8955 24.1052 48.5568 23.2665 48.207C22.8299 48.022 22.4058 47.8777 21.9896 47.7193C21.6299 47.575 21.3017 47.3915 20.9389 47.172C20.3672 46.8254 19.7594 46.4709 19.2364 46.0569C18.4684 45.4296 17.5637 44.5858 16.7863 43.9491C16.1628 43.4754 16.067 43.0677 15.6147 42.4137C15.2613 41.9149 14.8796 41.6028 14.5514 41.1716C13.9907 40.4439 13.5368 39.8699 13.1662 39.012C12.9054 38.4631 12.4594 37.9455 12.2144 37.395C12.128 37.2053 11.7024 36.3945 11.6019 36.1874C11.3506 35.6683 10.5841 35.9459 10.7381 36.5058C10.8307 36.8022 11.1605 37.6507 11.2563 37.9361C11.3898 38.3172 11.6286 38.7344 11.806 39.0888C12.0542 39.5907 12.0542 40.0753 12.329 40.6321C12.5945 41.17 12.9683 41.5762 13.262 42.0592C13.5494 42.5078 14.0347 42.9171 14.2765 43.3202C14.4446 43.5868 14.5435 43.9647 14.8043 44.3223C15.2016 44.8634 15.6225 45.1865 16.045 45.5927C16.791 46.3125 17.581 46.9916 18.3867 47.644C19.1893 48.2949 20.0311 48.9018 20.9719 49.3692C21.4603 49.617 22.0493 49.744 22.533 49.9463L22.5315 49.9447Z" fill="black"/>
<path d="M60.4684 47.4448C61.1925 46.5948 61.6558 45.5879 62.0029 44.5575C62.3374 43.6275 62.5196 42.5783 62.6782 41.5918C62.7882 41.0492 63.0552 40.4125 63.074 39.8291C63.1196 39.0245 63.1133 38.0474 63.1792 37.2225C63.2248 36.7144 63.1745 36.1717 63.1635 35.7028C63.1682 35.1335 63.1572 34.4779 63.0944 33.9149C63.019 33.1998 62.9782 32.2321 62.8133 31.5279C62.6013 30.5352 62.3625 29.5628 62.0343 28.6124C61.6448 27.4268 61.0276 26.354 60.3192 25.319C60.0459 24.9237 59.7146 24.5615 59.3643 24.1992C59.1005 23.9216 58.8083 23.5577 58.5288 23.3554C58.0152 22.9884 57.6587 22.6011 57.0163 22.1855C56.6315 21.9377 56.1886 21.7275 55.7819 21.5221C55.1332 21.1864 54.4861 21.0908 53.8359 20.81C53.437 20.6328 52.8575 20.4242 52.3832 20.418C51.8633 20.3976 51.4612 20.4085 51.1958 20.4101C50.387 20.4054 49.5577 20.5669 48.7661 20.7693C47.973 20.9716 47.2113 21.2837 46.5705 21.8185C46.1621 22.1682 45.7569 22.4348 45.3878 22.9712C44.9088 23.7099 45.8763 24.5113 46.5234 23.9012C46.7244 23.6957 47.0401 23.6189 47.3856 23.4009C48.4771 22.6167 49.8545 22.4505 51.1581 22.5179C51.6214 22.5399 52.0141 22.4678 52.4161 22.5352C52.6125 22.5807 52.7538 22.6842 52.9925 22.7846C53.3129 22.9367 53.8281 23.1296 54.1752 23.2284C54.6668 23.3633 55.0563 23.5797 55.4835 23.8275C55.9562 24.1019 56.2216 24.2525 56.7116 24.7104C57.0886 25.0759 57.5393 25.3864 57.8739 25.7597C58.656 26.754 59.3172 27.9035 59.7523 29.1096C59.8763 29.5126 60.0569 29.9988 60.1747 30.4019C60.2925 30.8928 60.4559 31.4762 60.5375 31.9545C60.6569 32.5458 60.7119 33.4758 60.7606 34.0937C60.8171 34.6426 60.8108 35.1664 60.8092 35.7169C60.8077 36.1921 60.9082 36.6109 60.8768 37.0437C60.7998 37.7714 60.6412 38.7861 60.5831 39.5593C60.5595 40.1145 60.5234 40.6007 60.4119 41.1715C60.3381 41.6091 60.1685 42.0576 60.0601 42.4874C59.9266 43.0692 59.7271 43.7028 59.5214 44.2846C59.2685 44.9841 58.9528 45.6914 58.3921 46.1854C57.5755 46.8692 56.3567 47.1014 55.3217 46.9571C55.0044 46.9084 54.6385 46.8002 54.3087 46.7218C53.8673 46.5979 53.2752 46.5117 52.9376 46.4082C52.6643 46.3297 52.2559 46.071 51.9858 45.9784C51.5162 45.8294 50.9665 45.5315 50.5157 45.3135C49.9425 45.0751 49.4415 44.8602 48.8133 44.5575C48.4457 44.3772 47.995 44.2815 47.6746 44.0823C47.4594 43.9443 47.1123 43.5177 46.916 43.3233C46.5925 42.9861 45.9328 42.5297 45.7098 42.2615C45.592 42.1282 45.5512 41.8067 45.3659 41.4366C44.9999 40.7795 44.5586 40.2133 44.2916 39.5248C43.9445 38.7579 43.866 38.107 43.723 37.279C43.6351 36.7253 43.3728 36.1513 43.4262 35.5899C43.456 35.2135 43.5079 34.8496 43.5283 34.4199C43.5519 33.8334 43.4969 33.4962 43.544 33.0868C43.61 32.6367 43.8801 32.2321 43.9492 31.7318C44.0309 31.1719 43.8613 30.6528 44.001 30.1337C44.1848 29.3433 44.4345 28.5748 44.6984 27.8189C44.8052 27.4644 45.1585 27.0786 45.3596 26.7524C45.6281 26.2741 45.7758 25.7753 46.1339 25.3315C46.5171 24.8296 45.9909 24.2415 45.4491 24.585C44.9826 24.8783 44.5507 25.2954 44.1832 25.7299C43.7121 26.1925 43.1561 26.6959 42.8687 27.3123C42.4493 28.1372 42.1964 29.0076 41.942 29.8875C41.7991 30.3831 41.6719 30.9006 41.5918 31.3711C41.5085 31.8055 41.452 32.3215 41.3955 32.8061C41.3248 33.3017 41.3892 33.9824 41.3719 34.3242C41.3562 34.6567 41.1819 35.0363 41.1583 35.4189C41.1112 35.8565 41.2431 36.4305 41.3358 36.8571C41.3703 37.0218 41.4127 37.5205 41.4394 37.6789C41.5242 38.176 41.6295 38.6246 41.7708 39.1688C41.9373 39.8196 42.1493 40.3654 42.3786 40.9488C42.5985 41.4899 42.9739 42.0122 43.2362 42.5124C43.3948 42.8214 43.4875 43.3248 43.8565 43.7812C44.3042 44.3082 44.6512 44.545 45.0313 44.8869C45.3988 45.2256 45.702 45.6303 46.1276 45.9455C46.5768 46.3078 47.2317 46.4066 47.7311 46.612C48.141 46.794 48.4536 46.9963 48.9483 47.2441C49.4902 47.484 50.0194 47.7616 50.5739 47.9953C50.9838 48.1443 51.568 48.4219 51.9764 48.5662C52.5716 48.7732 53.1998 48.872 53.715 49.0037C54.2223 49.137 54.7547 49.3597 55.2918 49.4068C56.2467 49.4883 57.2111 49.2844 58.111 48.9786C59.0141 48.6712 59.8261 48.1866 60.4669 47.4417L60.4684 47.4448Z" fill="black"/>
<path d="M81.2767 46.6513C82.0839 45.9596 82.8928 45.3198 83.3969 44.3505C83.7362 43.695 83.821 42.9155 83.9639 42.191C84.0362 41.86 84.2215 41.4727 84.2262 40.9959C84.2168 40.3545 84.0707 40 83.9686 39.5389C83.7833 38.4584 83.4629 37.395 83.0012 36.3913C82.7938 35.9224 82.4248 35.397 82.1923 34.9688C82.0604 34.7101 81.7887 34.111 81.5515 33.7503C81.4808 33.6436 81.2107 33.286 81.1385 33.1763C80.6626 32.4799 80.2228 31.7601 79.7061 31.0967C79.191 30.4348 78.5957 29.8342 78.0366 29.2006C77.8497 28.9669 77.5513 28.6956 77.344 28.4713C77.1241 28.247 76.9875 28.0557 76.7833 27.7954C76.2854 27.2104 75.8425 26.4497 75.3776 25.824C75.0996 25.4789 74.8326 25.1151 74.6002 24.7387C74.2609 24.1914 73.9453 23.8432 73.7819 23.2723C73.5086 22.4223 73.3139 21.5017 73.6736 20.6407C73.8636 20.1592 74.0112 19.604 74.3599 19.2511C74.7997 18.7681 75.2473 18.5627 75.9367 18.4811C77.0094 18.2788 78.1701 18.5391 79.1438 19.0159C79.9009 19.4048 80.6689 19.8455 81.2563 20.4493C81.5531 20.7614 81.9206 21.1096 82.2441 21.4531C82.5944 21.8122 82.9446 22.1416 83.3231 22.4552C83.4079 22.5289 83.5383 22.5274 83.6561 22.5023C83.8508 22.4599 83.9247 22.2937 83.8807 22.1008C83.8022 21.7432 83.6372 21.4342 83.4943 21.1316C83.0561 20.189 82.6556 19.1398 81.8012 18.4858C80.9296 17.8083 79.9935 17.3033 78.9522 16.941C77.9455 16.6336 76.9702 16.458 75.9163 16.5866C75.4436 16.6462 75.0541 16.6932 74.5138 16.8877C73.8102 17.159 73.1961 17.5417 72.7045 18.089C72.3025 18.5517 71.9899 19.0833 71.7653 19.6056C71.5564 20.0871 71.4858 20.625 71.4324 21.1645C71.3083 22.2796 71.4873 23.4025 71.8705 24.4517C72.0637 24.9739 72.37 25.5182 72.6134 25.9353C72.7956 26.2427 73.0453 26.5125 73.2542 26.8026C73.6594 27.3264 74.0269 27.8157 74.4321 28.3678C74.7431 28.7724 74.7887 28.7379 75.0996 29.1425C75.486 29.6711 75.9839 30.1776 76.4126 30.6732C76.9592 31.3037 77.4398 32.0612 77.9675 32.7371C78.4795 33.4319 79.0747 34.227 79.5538 34.9359C79.7784 35.2825 79.827 35.5413 80.0878 36.0479C80.2008 36.2643 80.2919 36.3882 80.3783 36.5356C80.5464 36.8179 80.8605 37.152 80.9814 37.4452C81.3269 38.2153 81.6191 39.0481 81.7588 39.8902C81.8217 40.1929 81.8955 40.7952 81.8829 40.9865C81.8829 41.1621 81.9096 41.4178 81.8421 41.7205C81.74 42.2208 81.5201 42.7367 81.2877 43.1947C81.0018 43.7922 80.5118 44.3678 80.0108 44.8226C79.6873 45.0751 79.2114 45.6068 79.0009 45.7824C78.69 46.0192 78.3633 46.14 77.9753 46.3204C77.5701 46.5007 77.1162 46.7752 76.7786 46.8834C76.4205 46.99 76.0561 47.081 75.6933 47.1531C75.1625 47.266 74.7211 47.0904 74.1023 47.1233C73.4238 47.1767 73.083 47.2802 72.5129 47.0637C71.9302 46.8551 71.4858 46.5399 70.9612 46.2012C70.2215 45.7416 69.5006 45.2978 69.0765 44.5309C68.6242 43.7593 68.5504 42.8826 68.5315 41.9949C68.5268 41.7252 68.5881 41.4664 68.6587 41.2264C68.7326 40.9912 68.7969 40.6462 68.9273 40.3466C69.155 39.7946 68.4059 39.4041 68.0933 39.9279C67.9708 40.138 68.0399 40.1819 67.9111 40.3874C67.4007 41.159 67.462 42.0969 67.44 42.9908C67.4243 43.7405 67.5923 44.4556 67.9127 45.13C68.2331 45.8028 68.6053 46.485 69.1802 46.9602C70.1445 47.7726 71.2298 48.3827 72.4328 48.7936C72.9401 48.9896 73.7003 49.0665 74.1353 49.068C74.6505 49.0884 75.3902 49.1982 75.976 49.1041C76.4142 49.0539 76.8587 48.9536 77.2843 48.8548C77.8937 48.7136 78.2942 48.436 78.7795 48.2462C79.0763 48.1318 79.4108 48.0722 79.7485 47.9153C80.3595 47.6738 80.9029 46.9979 81.2814 46.6466L81.2767 46.6513Z" fill="black"/>
<path d="M105.581 46.5995C105.06 46.7313 104.692 46.8881 104.24 46.9665C103.444 47.1171 102.66 47.1751 101.842 47.1469C101.38 47.1578 100.904 47.1265 100.452 47.1092C99.7671 47.0951 99.12 47.07 98.4839 46.9932C97.7426 46.9555 97.1426 46.7391 96.4312 46.5195C95.9333 46.3894 95.4056 46.2906 94.9454 46.0631C94.6093 45.9016 94.336 45.7213 94.1209 45.5581C93.4251 45.0155 92.5644 44.2627 92.299 43.4535C92.2378 43.3029 92.2456 43.1131 92.1812 42.9344C92.021 42.4607 91.5781 41.8428 91.4745 41.4554C91.3944 41.1967 91.465 40.5568 91.3944 40.1459C91.3614 39.9624 91.2514 39.448 91.2106 39.2661C91.0504 38.5305 90.975 37.8608 90.9075 37.1127C90.8258 36.4493 90.8824 36.0808 90.8808 35.5444C91.1258 35.5429 91.4069 35.5805 91.5923 35.5774C92.0524 35.5695 92.9806 35.4597 93.4377 35.4409C94.5324 35.4331 96.0841 35.1476 97.1835 35.0426C97.5243 34.9924 98.096 35.099 98.5232 35.0582C99.0854 35.0081 99.6163 34.8795 100.128 34.8214C100.455 34.7869 100.929 34.6756 101.259 34.6442C101.784 34.5721 102.319 34.5987 102.869 34.5407C103.386 34.4968 103.997 34.2161 104.457 34.1392C105.46 33.9636 105.27 32.5082 104.259 32.5929C103.593 32.6728 103.116 32.8234 102.494 32.8344C101.777 32.8595 100.948 32.9943 100.215 33.0116C99.7529 33.0241 99.1969 33.1763 98.7855 33.2312C98.1415 33.3253 97.7033 33.1402 96.9856 33.1998C95.7244 33.2704 94.2088 33.4742 92.9555 33.4131C92.2849 33.4131 91.4666 33.3064 90.785 33.2813C90.7818 33.1622 90.719 33.0633 90.7206 32.9645C90.73 32.4737 90.8054 32.0612 90.7897 31.4762C90.7756 31.0339 90.7457 30.6764 90.7567 30.4097C90.7771 29.911 90.8462 29.188 90.8227 28.6203C90.8133 28.3113 90.8133 28.051 90.8023 27.764C90.807 27.1194 90.7803 26.445 90.8054 25.7942C90.8117 25.3582 90.8619 24.9191 90.8698 24.4988C91.074 24.4846 91.3331 24.5552 91.5294 24.5285C91.9441 24.4737 92.409 24.1976 92.7293 24.1208C93.2728 23.9781 93.8806 23.9953 94.4271 23.8212C94.8198 23.6926 95.503 23.3884 95.8956 23.2645C96.3307 23.1296 96.8207 22.943 97.2039 22.8206C97.6562 22.6795 97.6782 22.7469 98.1305 22.6074C98.3473 22.5399 98.765 22.3486 98.9802 22.2749C99.2566 22.1949 100.036 21.9079 100.293 21.8216C100.747 21.6821 101.24 21.5676 101.685 21.3778C102.102 21.21 102.519 21.05 102.886 20.8179C103.214 20.6454 103.84 20.3239 104.198 20.1592C104.838 19.8644 104.491 18.9312 103.821 19.1226C103.251 19.3045 102.55 19.5742 102.018 19.8597C101.287 20.2392 100.471 20.2329 99.6791 20.407C99.5629 20.4384 98.6849 20.5983 98.5562 20.6234C97.6484 20.821 97.6672 20.9057 96.7594 21.1065C96.1658 21.2429 95.7244 21.3245 95.1732 21.439C94.8999 21.5048 94.1224 21.624 93.846 21.6899C93.5272 21.7558 93.0984 21.8091 92.7623 21.853C92.2409 21.9126 91.6551 22.1949 91.2012 22.2686C90.6593 22.3329 90.152 22.3454 89.5709 22.4145C88.9537 22.5086 88.5375 23.0198 88.6333 23.6362C88.6632 23.7805 88.6443 24.4156 88.638 24.596C88.5988 25.5527 88.4872 26.5062 88.4684 27.4676C88.459 27.6338 88.492 27.9381 88.4951 28.1028C88.5454 28.8963 88.5391 29.4625 88.4778 30.3015C88.459 31.2676 88.4543 31.666 88.3679 32.5897C88.3302 33.1512 88.3899 33.8303 88.393 34.3901C88.3993 34.5391 88.3349 34.7634 88.3333 34.914C88.2752 35.6056 88.3867 36.6846 88.4935 37.3605C88.5485 37.9267 88.6035 38.5462 88.6993 39.1296C88.759 39.5044 88.8767 39.9342 88.9537 40.3027C88.9773 40.4266 88.9631 40.6838 88.9788 40.8093C89.0338 41.1543 89.139 41.5731 89.2929 42.0953C89.5144 42.801 89.7154 43.2072 89.9322 43.7938C90.2369 44.6391 90.7363 45.5017 91.4101 46.1212C91.8938 46.5634 92.3179 46.9712 92.899 47.3554C93.3183 47.6268 93.7298 47.8306 94.0926 47.9812C94.6282 48.2086 95.2124 48.3356 95.7825 48.4611C96.406 48.596 97.083 48.8532 97.7379 48.894C98.5153 48.9567 99.4278 48.9912 100.161 48.9316C101.171 48.9159 102.121 48.9002 103.131 48.6807C103.628 48.5693 104.133 48.5552 104.619 48.3999C105.09 48.2494 105.594 47.9436 105.976 47.7742C106.247 47.6628 106.326 47.3413 106.249 47.0481C106.166 46.7281 105.899 46.5148 105.58 46.5964L105.581 46.5995Z" fill="black"/>
<path d="M107.353 0.0438838C106.653 0.307362 105.977 0.627299 105.307 0.975466C104.638 1.32206 103.94 1.61691 103.29 1.98703C102.929 2.1768 102.549 2.3352 102.148 2.57045C101.558 2.92175 101.071 3.26992 100.502 3.6024C100.19 3.79374 99.7642 4.16857 99.4627 4.37245C99.1407 4.57633 98.7732 4.79276 98.368 5.05937C97.7743 5.4687 97.4429 5.68827 97.011 6.00193C96.6796 6.27011 96.2618 6.71709 95.9367 6.98997C95.5787 7.27541 95.1279 7.55614 94.7745 7.88392C94.3866 8.23679 93.9201 8.63828 93.5495 9.01624C93.2526 9.32363 93.0375 9.69689 92.7689 10.0074C92.1108 10.7492 91.5282 11.5161 91.0931 12.4164C90.9109 12.7708 91.2423 13.1378 91.6004 12.9606C92.3998 12.5763 93.094 12.0572 93.7976 11.5491C94.2295 11.2401 94.6457 10.8574 95.0227 10.5014C95.1452 10.3838 95.6085 10.0607 95.7436 9.95096C95.9729 9.76747 96.1708 9.53379 96.4048 9.355C96.7409 9.10877 97.1162 8.83275 97.4523 8.54104C97.6047 8.41714 98.4716 7.62201 98.6413 7.47615C99.0166 7.13269 99.293 6.85353 99.5176 6.67788C99.8098 6.45204 100.224 6.29521 100.604 6.01605C100.989 5.71493 101.479 5.31814 101.872 5.0233C102.285 4.71905 102.649 4.27992 103.04 3.99762C103.362 3.77649 103.779 3.60868 104.145 3.35774C104.514 3.0974 105.355 2.53124 105.736 2.25051C106.43 1.69062 107.047 1.26874 107.777 0.74806C108.209 0.420281 107.849 -0.164703 107.358 0.0454521L107.353 0.0438838Z" fill="black"/>
<path d="M159.667 48.1553C160.135 47.9655 160.515 47.8557 161.024 47.6753C161.522 47.4652 161.822 47.1892 162.301 47.001C162.981 46.6779 162.609 45.7934 161.913 46.0161C161.489 46.1431 161.004 46.4129 160.616 46.5665C160.206 46.6544 159.675 46.7391 159.243 46.8724C158.645 47.0637 157.985 47.0951 157.38 47.2629C156.523 47.5295 155.725 47.7883 154.883 48.0518C154.465 48.1772 154.001 48.2258 153.556 48.3293C153.009 48.4344 152.436 48.4407 151.88 48.5865C151.517 48.6775 151.206 48.7057 150.955 48.7669C150.206 48.9033 149.1 49.195 148.243 49.3754C148.003 49.4178 147.599 49.4256 147.355 49.457C147.202 49.4726 146.834 49.526 146.683 49.5401C146.225 49.5683 145.578 49.3629 145.031 49.424C144.313 49.4601 143.376 49.5495 142.703 49.5887C142.304 49.5887 141.904 49.5777 141.502 49.4946C141.097 49.4099 140.646 49.3252 140.256 49.1668C139.815 48.9896 139.379 48.7606 139.017 48.4674C138.022 47.6973 137.963 46.4317 137.943 45.2648C137.973 44.3976 137.946 43.4189 138.026 42.5611C138.066 42.2725 138.205 41.4585 138.246 41.1621C138.284 40.8908 138.362 40.6744 138.449 40.3905C138.662 39.793 138.697 38.9649 138.774 38.3862C138.849 37.9329 138.997 37.3056 139.093 36.8226C139.207 36.3066 139.561 35.7545 139.652 35.1868C139.719 34.7822 139.715 34.4121 139.788 34.0325C139.818 33.8647 139.947 33.0476 139.982 32.8563C140.057 32.3983 140.26 31.9937 140.366 31.5232C140.445 31.1656 140.443 30.4113 140.517 30.0365C140.64 29.4138 140.772 28.7677 140.863 28.1435C140.98 27.2699 141.057 26.2458 141.15 25.388C141.208 24.6289 141.145 24.1192 141.282 23.4385C141.317 23.2096 141.375 22.7594 141.392 22.5367C141.45 21.5989 141.546 20.4917 141.584 19.5475C141.609 19.1178 141.533 18.5454 141.53 18.0639C141.53 17.5918 141.626 17.0837 141.632 16.6508C141.645 15.7271 141.604 14.6763 141.573 13.762C141.46 12.2423 139.35 12.3442 139.355 13.8373C139.388 14.7093 139.32 15.7694 139.314 16.6383C139.309 17.1543 139.286 17.5965 139.289 18.0702C139.289 18.5297 139.353 18.9186 139.327 19.4315C139.294 20.3474 139.163 21.4452 139.11 22.3611C139.107 22.4097 139.077 22.4066 139.072 22.4552C139.061 22.5571 139.053 22.554 139.041 22.6559C139.013 22.8802 139.16 22.9022 139.121 23.1249C139.002 23.7036 138.909 24.5724 138.906 25.0978C138.851 25.6906 138.873 26.3823 138.805 26.9578C138.766 27.2966 138.559 27.9945 138.518 28.3348C138.483 28.6908 138.471 29.1206 138.422 29.4672C138.369 29.7793 138.351 30.565 138.3 30.8771C138.224 31.3272 137.954 31.7475 137.868 32.2164C137.717 33.0319 137.599 34.0184 137.516 34.8324C137.425 35.3405 137.178 35.8251 137.06 36.3772C137.031 36.5309 137.013 36.9292 136.98 37.0845C136.913 37.395 136.861 37.7118 136.803 38.0851C136.701 38.7642 136.644 39.1845 136.451 39.7961C136.369 40.0706 136.355 40.4376 136.306 40.7449C136.291 40.8155 136.187 41.733 136.17 41.8365C136.071 42.4591 135.98 43.1884 135.955 43.7875C135.868 44.832 135.78 45.8388 135.915 46.75C136.068 47.7757 136.423 48.7261 137.065 49.4742C137.632 50.1345 138.463 50.685 139.576 51.0441C140.04 51.2245 140.604 51.3484 141.1 51.4472C141.626 51.5522 142.184 51.524 142.738 51.5115C143.622 51.4597 144.307 51.4205 145.149 51.3734C145.673 51.3217 146.214 51.4377 146.826 51.3907C147.28 51.3342 147.866 51.3389 148.32 51.2794C148.895 51.1868 149.427 50.9892 149.974 50.8716C150.206 50.8245 150.665 50.7257 150.899 50.6802C151.359 50.605 151.973 50.4183 152.345 50.2976C152.859 50.1502 153.404 50.1015 153.936 49.962C154.406 49.8349 154.916 49.7738 155.397 49.6122C155.811 49.4617 156.518 49.1841 156.944 49.0272C157.426 48.8626 157.798 48.734 158.255 48.6101C158.707 48.4799 159.235 48.3231 159.669 48.1553H159.667Z" fill="black"/>
<path d="M187.692 38.7344C187.876 39.3225 188.163 39.6801 188.289 40.2227C188.553 41.2813 188.628 42.4638 188.931 43.5209C188.961 43.6307 189.101 43.9741 189.121 44.0776C189.208 44.5121 189.354 45.2178 189.425 45.6507C189.465 45.969 189.346 46.2576 189.349 46.6262C189.365 47.2064 189.368 47.6503 189.289 48.1819C189.194 48.9833 190.405 49.2076 190.615 48.4344C190.766 47.862 190.786 47.1955 190.808 46.6544C190.833 46.256 190.769 45.7432 190.717 45.3072C190.659 44.8069 190.705 44.0604 190.609 43.5648C190.328 42.3243 190.279 41.09 190.031 39.8385C189.948 39.288 189.607 38.6654 189.459 38.187C189.392 37.9596 189.256 37.7259 189.194 37.4546C189.106 37.0892 189.011 36.6328 188.895 36.1874C189.329 36.1106 189.819 36.1325 190.266 36.051C191.149 35.9036 191.015 34.6975 190.128 34.7446C189.622 34.7995 189.09 34.7289 188.578 34.8371C188.573 34.8371 188.548 34.7822 188.543 34.7822C188.485 34.5626 188.476 34.3399 188.426 34.1502C188.273 33.6122 188.195 32.999 188.006 32.4721C187.516 31.1672 187.075 29.9596 186.608 28.5434C186.345 27.7969 186.101 26.8591 185.814 26.1251C185.551 25.4946 185.457 24.9598 185.187 24.3011C184.961 23.7695 184.518 23.2849 184.166 22.8614C183.67 22.2639 183.263 21.5895 182.437 21.3511C181.105 20.9731 180.169 22.2623 179.604 23.2096C179.227 23.7397 178.804 24.3607 178.54 24.9614C178.193 25.7189 177.462 27.2354 177.121 27.9929C176.659 28.9716 176.29 30.1996 175.941 31.1704C175.585 32.0329 174.967 33.2876 174.583 34.1408C174.437 34.4403 174.179 34.8967 174.008 35.2715C173.588 36.1858 173.083 37.13 172.689 38.0616C172.508 38.4866 172.379 38.9461 172.222 39.3633C172.172 39.4746 171.906 40.1945 171.845 40.3325C171.431 41.3707 171.094 42.387 170.65 43.3766C170.601 43.4723 170.611 43.5099 170.551 43.5915C170.292 43.9255 170 44.4901 169.852 44.8838C169.318 46.2952 171.198 47.0825 171.837 45.7353C172.015 45.2696 172.254 44.9998 172.508 44.5591C172.838 43.8832 173.257 43.2496 173.535 42.5548C173.815 41.8538 174.064 41.1433 174.339 40.4532C174.54 39.9937 174.567 39.4558 174.737 38.9994C174.76 38.9273 175.081 38.405 175.167 38.1933C175.637 38.1651 176.156 38.038 176.595 37.9361C177.037 37.8514 177.663 37.8577 178.151 37.7228C178.652 37.5754 178.91 37.4891 179.475 37.4201C180.045 37.337 180.326 37.4342 180.871 37.4327C181.295 37.417 182.032 37.2068 182.446 37.1723C182.938 37.1268 183.406 36.9418 183.852 36.8492C184.281 36.832 184.972 36.854 185.365 36.7881C185.676 36.7504 185.952 36.6924 186.312 36.6689C186.692 36.6313 186.712 36.6313 187.014 36.5936C187.218 37.3448 187.518 38.0961 187.697 38.7344H187.692ZM181.842 23.4652C181.842 23.4652 181.909 23.4433 181.916 23.4448C181.912 23.4621 181.842 23.4652 181.842 23.4652ZM186.23 35.0833C185.93 35.0865 185.556 35.1131 185.209 35.1366C184.615 35.1915 184.311 35.0927 183.739 35.0959C183.229 35.1068 182.734 35.3876 182.241 35.408C181.964 35.4174 181.096 35.5193 180.851 35.5162C180.397 35.4801 179.685 35.3923 179.271 35.4378C178.947 35.4644 178.621 35.4456 178.193 35.5099C177.807 35.5773 177.603 35.7216 177.259 35.7608C176.97 35.7812 176.574 35.8157 176.192 35.8581C176.346 35.5915 176.433 35.3029 176.58 34.9735C177.004 34.0027 177.571 32.9661 177.964 31.9906C178.248 31.1672 178.588 30.4333 178.9 29.6914C179.214 28.9434 179.533 28.2015 179.88 27.4111C180.084 26.961 180.576 25.584 180.815 25.1872C180.962 24.9206 181.174 24.6399 181.357 24.3654C181.462 24.2023 181.556 23.9969 181.664 23.8432C181.757 23.7052 181.902 23.5938 181.978 23.5091C182.084 23.6017 182.239 23.6942 182.333 23.8165C182.56 24.0925 182.831 24.4627 183.006 24.745C183.419 25.3488 183.481 26.2255 183.796 26.8951C184.088 27.6071 184.385 28.4964 184.653 29.2131C184.831 29.7401 185.363 31.0198 185.533 31.5358C185.771 32.3294 186.049 33.0916 186.243 33.882C186.326 34.2082 186.461 34.6144 186.572 35.008C186.532 35.2104 186.436 35.0755 186.232 35.0849L186.23 35.0833Z" fill="black"/>
<path d="M220.074 45.9659C220.275 45.5189 220.437 44.9496 220.563 44.4697C220.627 44.2799 220.948 43.8831 221.032 43.6871C221.13 43.4738 221.299 43.1053 221.386 42.892C221.541 42.5281 221.598 42.1313 221.774 41.7957C221.989 41.4005 222.198 41.0664 222.4 40.6163C222.59 40.1976 222.746 39.76 222.881 39.3429C223.003 38.9853 223.156 38.6669 223.324 38.2968C223.327 38.2905 223.318 38.267 223.321 38.2607C223.376 38.2592 223.432 38.3235 223.492 38.3219C223.814 38.3266 224.28 38.2466 224.594 38.2121C225.263 38.1368 225.945 37.9925 226.622 37.8922C227.315 37.7244 227.772 37.5675 228.474 37.5173C229.045 37.4781 229.906 37.3825 230.486 37.3197C231.153 37.2335 231.802 37.1174 232.466 37.0515C233.03 36.9731 233.787 36.8461 234.359 36.8194C234.599 36.7928 234.809 36.7191 235.021 36.6908C235.092 36.9167 235.216 37.1253 235.252 37.246C235.515 38.1321 235.673 39.1876 235.929 40.0784C236.056 40.6367 236.405 41.148 236.557 41.6467C236.798 42.525 236.933 43.5569 237.129 44.4477C237.211 44.8586 237.214 45.4201 237.296 45.8765C237.357 46.2764 237.445 46.6779 237.476 47.0606C237.484 47.1625 237.519 47.1594 237.526 47.2629C237.541 47.4652 237.473 47.4699 237.486 47.6722C237.5 47.9592 237.514 48.196 237.497 48.4109C237.479 48.701 237.712 49.0539 238.004 49.1323C238.88 49.3111 238.847 48.1819 238.855 47.6408C238.865 47.0731 238.813 46.4474 238.745 45.9C238.667 45.3197 238.734 44.8304 238.657 44.2062C238.539 43.4174 238.401 42.4466 238.228 41.6671C238.147 41.1323 237.933 40.4783 237.786 40.0047C237.55 39.0653 237.259 37.6867 236.999 36.7661C236.978 36.6971 236.992 36.6595 236.963 36.5528C237.439 36.4869 237.845 36.1796 238.312 36.1294C239.198 35.9835 239.042 34.6097 238.152 34.663C237.793 34.6881 237.352 34.8339 237.029 34.9422C236.894 34.9814 236.861 35.0676 236.735 35.0723C236.689 35.0692 236.581 35.0582 236.535 35.0566C236.507 34.8402 236.465 34.6097 236.393 34.3336C236.221 33.6922 235.961 33.3142 235.819 32.7387C235.626 32.0204 235.26 30.6669 235.072 29.9439C234.963 29.5032 234.96 29.0876 234.792 28.614C234.632 28.156 234.363 27.8565 234.213 27.4644C234.038 26.9892 234.06 26.3211 233.85 25.8083C233.606 25.1558 233.112 24.5207 232.829 23.8839C232.549 23.2895 232.331 22.5477 231.808 22.0788C231.026 21.3025 229.725 21.2664 228.887 21.9423C228.259 22.4426 227.992 22.9727 227.615 23.553C227.304 24.0361 227.016 24.5144 226.737 25.0225C226.317 25.6985 225.995 26.663 225.644 27.3985C225.37 28.0023 225.328 28.4054 225.067 28.9292C224.902 29.2586 224.612 29.6914 224.444 30.0866C224.334 30.3297 224.108 31.0088 223.994 31.2582C223.933 31.393 223.151 32.8673 223.112 32.9488C222.933 33.3566 222.895 33.9635 222.721 34.3164C222.537 34.6865 222.099 35.179 221.928 35.6259C221.855 35.7953 221.7 36.1121 221.593 36.4007C221.408 36.5983 221.401 36.8979 221.395 37.1801C221.365 37.2476 221.243 37.2852 221.222 37.3276C220.908 37.9549 220.682 38.7406 220.491 39.4228C220.337 39.8886 220.09 40.2995 219.843 40.7622C219.627 41.1668 219.46 41.5856 219.286 41.9918C219.206 42.1784 218.939 42.4999 218.856 42.6834C218.736 42.9359 218.603 43.2009 218.479 43.4738C218.267 44.0039 218.223 44.5528 217.978 45.0751C217.44 46.4913 219.446 47.3209 220.077 45.9627L220.074 45.9659ZM224.675 35.2542C224.949 34.6661 225.028 34.2035 225.267 33.6624C225.791 32.4579 226.429 31.0794 227.068 29.9235C227.315 29.464 227.483 28.7394 227.657 28.3097C227.825 27.9286 227.731 27.8878 227.905 27.5083C227.995 27.3107 228.153 26.9751 228.243 26.7822C228.734 25.9008 229.27 24.8657 229.85 24.0282C229.997 23.8212 230.11 23.6722 230.208 23.6095C230.208 23.6095 230.209 23.5891 230.211 23.5891C230.589 23.8134 230.745 24.345 230.968 24.781C231.153 25.1543 231.155 25.1527 231.335 25.5275C231.555 25.9886 231.811 26.4262 231.967 26.8982C232.033 27.1147 232.111 27.3985 232.202 27.7028C232.339 28.2297 232.684 28.8383 232.868 29.3087C233.027 29.7416 233.077 30.4176 233.226 30.8818C233.416 31.5248 233.834 32.8735 234.019 33.504C234.15 33.9384 234.487 34.4497 234.599 34.823C234.624 34.9139 234.692 35.0519 234.712 35.1696C234.577 35.1805 234.409 35.1162 234.286 35.1225C233.517 35.1162 232.51 35.3107 231.731 35.3719C231.252 35.4126 230.754 35.4189 230.281 35.4456C229.809 35.4707 229.809 35.4832 229.336 35.5083C228.629 35.5444 227.982 35.535 227.257 35.6369C226.96 35.6699 226.54 35.822 226.292 35.8565C225.658 35.9114 225.028 35.9098 224.381 35.9474C224.357 35.9474 224.378 36.0431 224.329 36.0463C224.459 35.8188 224.527 35.5648 224.676 35.2542H224.675Z" fill="black"/>
<path d="M211.318 46.4003C211.523 46.623 211.895 47.2692 212.195 47.5703C212.504 47.9091 212.815 48.2729 213.087 48.6446C213.296 48.9096 213.472 49.1355 213.615 49.3676C213.811 49.6813 214.287 49.8318 214.629 49.6671C214.997 49.4915 215.077 49.0194 214.901 48.6524C214.734 48.3043 214.609 47.9655 214.441 47.6942C214.208 47.2958 213.88 46.8034 213.596 46.4317C213.513 46.3235 213.454 46.2529 213.385 46.1306C212.99 45.2758 212.154 44.2204 211.34 43.6024C211.128 43.4331 210.872 43.3201 210.649 43.1712C210.337 42.9594 209.867 42.6348 209.69 42.4936C208.608 41.7346 207.379 41.0398 206.202 40.4752C205.971 40.3576 205.446 39.92 205.057 39.7632C205.006 39.7412 204.929 39.7569 204.874 39.7334C205.075 39.5593 205.265 39.3601 205.47 39.1437C205.751 38.8426 205.952 38.6607 206.228 38.4301C206.373 38.3109 206.465 38.1227 206.465 38.1227C206.897 37.8169 207.463 37.2084 207.753 36.7395C208.198 36.0447 208.736 35.5099 209.184 34.8167C209.396 34.4874 209.407 34.4952 209.625 34.169C209.933 33.7361 210.156 33.159 210.406 32.7246C210.659 32.3058 211.029 31.8197 211.262 31.3539C211.857 30.3439 212.349 29.0782 212.388 27.8722C212.361 27.0237 212.592 26.514 212.47 25.6577C212.269 24.6007 211.653 23.8008 210.857 23.2629C210.06 22.7265 209.062 22.3846 208.058 22.3737C207.692 22.347 207.183 22.3705 206.743 22.3894C205.884 22.4254 205.195 22.6811 204.42 22.9775C203.97 23.1641 203.517 23.426 203.114 23.7491C202.745 24.0314 202.357 24.4564 202.11 24.7465C201.738 25.1778 201.334 25.4695 200.972 25.9636C200.42 26.7289 200.221 27.5178 199.831 28.3788C199.508 29.1269 199.311 29.9408 199.046 30.6967C198.781 31.4731 198.526 32.3121 198.371 33.1229C198.218 33.9275 198.185 34.8544 198.127 35.6354C198.105 35.8455 198.143 36.0431 198.112 36.269C198.06 35.8973 198.036 35.5178 198.02 35.4205C197.896 34.594 197.642 33.7079 197.37 32.9206C197.168 32.298 197.199 31.7522 197.058 31.0904C196.921 30.4521 196.723 29.8279 196.588 29.2053C196.53 28.9559 196.417 28.418 196.337 28.1796C196.199 27.6573 195.809 26.983 195.696 26.6317C195.178 25.2108 193.178 25.8695 193.591 27.3139C193.808 27.971 194.009 28.3035 194.146 28.7897C194.18 28.9089 194.22 29.5785 194.235 29.6915C194.308 30.0976 194.447 30.6638 194.56 31.0543C194.757 31.6722 194.807 32.1835 194.925 32.8422C195.109 33.7189 195.435 34.4513 195.533 35.328C195.605 35.7593 195.666 36.8132 195.726 37.2602C195.786 37.7573 196.04 38.2968 196.087 38.7579C196.107 39.2394 196.038 39.8996 196.106 40.4015C196.15 40.745 196.232 41.3205 196.26 41.6483C196.269 42.0294 196.32 42.6615 196.331 43.041C196.335 43.328 196.263 43.844 196.258 44.1404C196.233 44.7034 196.335 45.3684 196.327 45.9345C196.324 46.0726 196.214 47.2253 196.211 47.3821C196.181 48.8626 198.201 49.1167 198.556 47.6801C198.622 47.3821 198.861 46.7987 198.928 46.496C199.062 45.9612 199.002 45.3731 199.081 44.8869C199.261 44.0243 199.476 43.0504 199.621 42.1502C199.677 41.7848 199.703 41.3848 199.772 41.0147C199.908 40.1082 200.112 39.1594 200.26 38.2545C200.35 37.6601 200.574 36.4164 200.623 35.8283C200.698 34.5815 200.733 33.388 201.146 32.218C201.237 31.9404 201.441 31.3303 201.518 31.0559C201.612 30.7532 201.732 30.1698 201.809 29.853C201.922 29.3652 202.082 29.0814 202.305 28.6093C202.484 28.2251 202.765 27.7906 203.009 27.466C203.159 27.2464 203.51 26.9485 203.72 26.7163C204.045 26.3917 204.353 25.9275 204.656 25.6718C204.871 25.5025 205.064 25.3049 205.342 25.1888C205.697 25.0508 206.241 24.8077 206.604 24.7387C207.042 24.6666 207.362 24.7732 207.865 24.7999C208.276 24.8375 208.561 24.9143 208.895 25.0116C209.46 25.2061 209.903 25.4836 210.034 26.0969C210.073 26.3729 210.14 26.6081 210.12 26.983C210.084 27.5617 210.104 27.8518 209.979 28.3223C209.801 29.0249 209.541 29.5628 209.154 30.2184C208.922 30.6905 208.752 31.1296 208.471 31.6048C208.198 32.0847 207.94 32.4486 207.642 32.8767C207.406 33.2421 207.072 33.7722 206.801 34.1063C206.498 34.4905 206.126 35.0567 205.865 35.466C205.578 35.8863 205.476 36.0714 205.063 36.3976C204.625 36.7254 204.194 37.2664 203.858 37.6507C203.528 38.0318 202.875 38.3486 202.407 38.725C202.325 38.7924 202.231 38.8583 202.132 38.9257C201.763 38.9383 201.425 39.0904 201.176 39.4354C200.723 40.0298 201.011 40.8924 201.685 41.1731C201.953 41.308 202.258 41.3488 202.548 41.2892C202.624 41.3002 202.715 41.2531 202.798 41.2954C203.216 41.5103 203.645 41.5872 204.047 41.7456C204.13 41.7816 204.252 41.813 204.334 41.8679C204.981 42.3494 206.159 42.8434 206.896 43.2888C207.381 43.5507 207.987 43.9977 208.468 44.2878C209.038 44.647 209.307 44.683 209.751 44.9779C210.381 45.3621 210.843 45.8185 211.317 46.3972L211.318 46.4003Z" fill="black"/>
<path d="M72.1363 106.352C71.9369 106.418 71.7107 106.505 71.4578 106.552C71.2678 106.588 71.0699 106.617 70.8657 106.666C70.6898 106.71 70.5108 106.74 70.3365 106.788C70.0647 106.862 69.8135 106.952 69.5763 106.994C69.38 107.028 69.1507 107.038 68.9088 107.052C68.6921 107.064 68.4753 107.126 68.2397 107.155C68.0309 107.181 67.8408 107.218 67.6539 107.251C67.4042 107.297 67.1592 107.25 66.9692 107.251C66.9503 107.251 66.9503 107.251 66.9315 107.253C66.487 107.259 66.0708 107.287 65.686 107.253C65.1442 107.202 64.7327 107.209 64.3746 107.143C64.2238 107.116 64.0526 106.95 63.8453 106.865C63.649 106.785 63.3883 106.806 63.1448 106.735C62.9061 106.666 62.6862 106.61 62.4836 106.572C62.2653 106.531 62.0407 106.498 61.9166 106.443C61.601 106.304 61.2947 106.04 60.9523 105.789C60.7591 105.647 60.5157 105.513 60.3084 105.317C60.1859 105.2 60.0995 105.048 59.9754 104.936C59.6236 104.623 59.4681 104.306 59.2985 104.039C59.0755 103.689 58.7786 103.38 58.6342 103.006C58.5792 102.865 58.5933 102.636 58.5509 102.414C58.5069 102.184 58.5085 101.906 58.4268 101.633C58.3703 101.444 58.3232 101.259 58.2635 101.086C58.1724 100.826 58.0797 100.594 58.0405 100.368C57.9934 100.101 57.9761 99.8047 57.9557 99.4832C57.9463 99.3311 57.7908 99.1899 57.7782 99.0362C57.7562 98.779 57.83 98.5109 57.8128 98.2489C57.7986 98.0262 57.7625 97.802 57.7452 97.5761C57.7232 97.2891 57.6353 97.0272 57.5976 96.7653C57.5646 96.5395 57.6494 96.3121 57.6337 96.1082C57.6259 96.0062 57.5693 95.9247 57.563 95.8212C57.695 95.8165 57.8096 95.7553 57.9321 95.76C58.1002 95.7647 58.2824 95.8086 58.474 95.8275C58.7268 95.851 59.0064 95.8729 59.3001 95.8729C59.3566 95.8729 59.4132 95.9137 59.4697 95.9121C59.7979 95.8996 60.1168 95.8918 60.3885 95.8494C60.5942 95.8165 60.7811 95.7443 60.9539 95.7334C61.1251 95.7224 61.3245 95.713 61.5381 95.7271C61.8051 95.7443 62.1098 95.7757 62.4302 95.7537C62.7867 95.7287 63.1103 95.644 63.3961 95.5781C63.5893 95.5326 63.7715 95.4981 63.9285 95.4809C64.161 95.4542 64.3997 95.3664 64.6573 95.3523C64.8866 95.3397 65.1269 95.4009 65.3688 95.3774C65.5981 95.3554 65.8242 95.3554 66.041 95.3272C66.3064 95.2927 66.5498 95.1782 66.7933 95.1609C66.9676 95.1484 67.1592 95.1201 67.3602 95.1186C67.6634 95.1186 67.9759 95.1892 68.3136 95.1499C68.6402 95.1123 68.9544 95.0888 69.2528 95.0323C69.4459 94.9947 69.6171 94.8959 69.7962 94.8692C69.8794 94.8567 69.8951 94.9555 69.9784 94.9429C70.3899 94.8786 70.7982 94.6904 71.2144 94.6371C71.8363 94.5571 72.3044 94.0364 72.2243 93.4154C72.1442 92.7943 71.5442 92.2831 70.9223 92.363C70.4762 92.4211 70.0428 92.5434 69.6156 92.6093C69.5323 92.6218 69.537 92.6469 69.4538 92.6595C69.2339 92.694 69.0297 92.7755 68.824 92.8147C68.5554 92.8665 68.3026 92.9465 68.0607 92.9747C67.8503 92.9998 67.6037 92.9966 67.3524 92.9982C67.1231 92.9982 66.8844 92.9041 66.6331 92.9229C66.3237 92.9449 66.0394 93.0766 65.7535 93.1143C65.5478 93.1409 65.3421 93.0719 65.1504 93.0907C64.9541 93.1096 64.7547 93.1676 64.5395 93.1786C64.2599 93.1942 63.9757 93.2444 63.6757 93.2789C63.3898 93.3119 63.1181 93.3244 62.8825 93.3793C62.6595 93.4311 62.4444 93.4185 62.27 93.4311C62.102 93.4436 61.9025 93.4373 61.6873 93.4232C61.4251 93.406 61.1235 93.3809 60.8078 93.3997C60.5267 93.4169 60.2691 93.4969 60.0194 93.5361C59.7885 93.5722 59.5718 93.5785 59.3786 93.5863C59.1729 93.5942 58.9341 93.6098 58.6813 93.5863C58.4598 93.5659 58.2321 93.555 57.9855 93.5487C57.852 93.5455 57.7091 93.5926 57.5819 93.5957C57.5835 93.5612 57.5238 93.4656 57.5253 93.4295C57.5395 93.1221 57.6306 92.8367 57.6227 92.5591C57.618 92.3677 57.6117 92.189 57.6149 92.0196C57.6211 91.6871 57.6149 91.3687 57.5882 91.0943C57.5709 90.9123 57.5725 90.743 57.5677 90.5908C57.563 90.423 57.5348 90.2191 57.5646 89.9996C57.5944 89.7863 57.6541 89.5463 57.6635 89.2923C57.673 89.0288 57.6902 88.7779 57.6777 88.5599C57.6651 88.345 57.5473 88.1396 57.563 87.9906C57.5787 87.8463 57.6227 87.6706 57.6667 87.4918C57.7358 87.208 57.8583 86.8959 57.8693 86.5399C57.8819 86.129 57.8536 85.7526 57.8128 85.453C57.7923 85.2993 57.6855 85.1597 57.6808 85.0468C57.6745 84.9292 57.7154 84.8006 57.7107 84.6987C57.8285 84.6798 57.9588 84.65 58.0766 84.6328C58.2384 84.6108 58.4174 84.5732 58.6059 84.5591C58.9184 84.5356 59.2749 84.5559 59.6409 84.4822C59.7995 84.4509 59.9644 84.4415 60.1262 84.4117C60.4607 84.3521 60.8015 84.2658 61.1596 84.1733C61.4486 84.098 61.7329 84.0698 61.9858 83.9788C62.2009 83.9019 62.3815 83.7639 62.5669 83.7153C62.7867 83.6589 63.0302 83.651 63.2799 83.6055C63.5139 83.5632 63.7385 83.4409 63.9851 83.3828C64.1343 83.3483 64.2882 83.3421 64.4358 83.3091C64.7845 83.2323 65.13 83.1131 65.4865 83.008C65.8541 82.8998 66.2404 82.9139 66.5718 82.7994C66.71 82.7508 66.8419 82.6943 66.9754 82.6504C67.277 82.5485 67.5016 82.3038 67.7434 82.2003C67.9445 82.1141 68.1455 82.0466 68.3073 81.9933C68.7282 81.8553 69.0219 81.7471 69.2528 81.6765C69.4428 81.6185 69.5936 81.5871 69.7271 81.5416C69.9407 81.4695 70.1323 81.4522 70.3317 81.3707C70.5296 81.2891 70.7715 81.1731 71.1516 81.0319C71.7782 80.7998 72.1615 80.1003 71.9306 79.4762C71.6997 78.8504 70.9223 78.4928 70.2956 78.7234C69.8716 78.8802 69.6014 78.9962 69.3847 79.0856C69.2056 79.1594 69.1177 79.288 68.9811 79.3334C68.8648 79.3726 68.7392 79.4213 68.5759 79.4715C68.334 79.5452 68.0057 79.5875 67.5644 79.7318C67.2958 79.8196 67.0445 79.9341 66.8027 80.0392C66.5859 80.1333 66.3755 80.2007 66.1713 80.2697C66.03 80.3168 65.876 80.3419 65.73 80.392C65.4253 80.4987 65.1175 80.6195 64.8049 80.712C64.5285 80.7935 64.2505 80.9598 63.9301 81.0304C63.7715 81.0649 63.5972 81.0304 63.437 81.0696C63.2516 81.1135 63.0663 81.2327 62.8543 81.2703C62.5731 81.3205 62.2637 81.286 61.9591 81.3644C61.6638 81.4397 61.3889 81.5197 61.1314 81.6122C60.9193 81.6875 60.7246 81.7659 60.5408 81.8129C60.2754 81.882 60.0068 82.0058 59.7053 82.0576C59.5247 82.089 59.3252 82.0247 59.1477 82.0592C58.9279 82.1031 58.686 82.1548 58.419 82.1752C58.2038 82.1909 57.9808 82.2254 57.7484 82.2584C57.5285 82.2882 57.3196 82.3917 57.1029 82.4262C56.8154 82.4716 56.5296 82.3964 56.2815 82.423C55.9501 82.4591 55.7082 82.7304 55.5072 82.9939C55.3061 83.2589 55.1318 83.5616 55.1852 83.8878C55.2323 84.1733 55.3627 84.7457 55.3831 85.1582C55.3941 85.3715 55.3265 85.5816 55.3532 85.7777C55.3862 86.0223 55.4365 86.2497 55.4302 86.463C55.4271 86.5681 55.471 86.7704 55.4271 86.9492C55.3705 87.1844 55.2449 87.4338 55.2119 87.7365C55.1742 88.08 55.1601 88.4077 55.1758 88.6963C55.1852 88.8798 55.1821 89.0492 55.1758 89.2029C55.1711 89.3346 55.2119 89.5024 55.1883 89.6734C55.1475 89.9651 55.0831 90.2897 55.0925 90.6567C55.0988 90.8951 55.0486 91.1241 55.0705 91.3405C55.0941 91.571 55.1616 91.7843 55.1569 91.9772C55.1538 92.2015 55.1758 92.4179 55.1805 92.6265C55.1868 92.8712 55.2307 93.1049 55.2197 93.3228C55.2135 93.4734 55.1224 93.6318 55.1035 93.8043C55.0737 94.0929 55.0611 94.4254 55.0674 94.772C55.0768 95.2644 55.1522 95.7882 55.1962 96.3105C55.2197 96.5912 55.1789 96.8625 55.2166 97.1166C55.2512 97.3472 55.3909 97.5557 55.4066 97.7581C55.4239 97.9745 55.303 98.1988 55.3171 98.412C55.3344 98.6912 55.4648 98.9578 55.4867 99.2307C55.4977 99.3687 55.4757 99.5099 55.4852 99.6479C55.5103 100.021 55.5511 100.401 55.6234 100.797C55.6972 101.216 55.8307 101.575 55.9453 101.9C55.9987 102.049 55.9987 102.209 56.0364 102.339C56.082 102.494 56.1165 102.673 56.1527 102.863C56.2092 103.169 56.3521 103.486 56.4872 103.834C56.6898 104.356 56.8327 104.924 57.1421 105.407C57.5238 106.004 58.0028 106.476 58.3263 106.766C58.4316 106.861 58.5823 106.906 58.686 107.005C58.9247 107.234 59.2341 107.441 59.5482 107.673C60.0304 108.029 60.5078 108.3 60.9837 108.512C61.3654 108.681 61.6968 108.873 62.0266 108.935C62.1899 108.967 62.3595 108.928 62.4868 108.965C62.6077 109 62.7679 109.031 62.9234 109.095C63.2218 109.218 63.5516 109.353 63.9537 109.425C64.3824 109.502 64.841 109.572 65.4551 109.629C65.7881 109.66 66.1116 109.669 66.4352 109.669C66.6111 109.669 66.7838 109.677 66.9566 109.676C66.9754 109.676 66.977 109.771 66.9959 109.771C67.3854 109.767 67.7482 109.637 68.067 109.58C68.2288 109.55 68.3827 109.531 68.5256 109.514C68.6811 109.495 68.857 109.542 69.0407 109.531C69.3282 109.516 69.6391 109.353 69.9784 109.291C70.3239 109.23 70.6804 109.288 70.993 109.202C71.1453 109.16 71.2882 109.086 71.4437 109.048C71.5851 109.014 71.7421 108.997 71.907 108.965C72.2133 108.907 72.5572 108.81 72.9122 108.692C73.5451 108.482 73.955 107.755 73.7446 107.121C73.5341 106.489 72.7646 106.141 72.1316 106.351L72.1363 106.352Z" fill="black"/>
<path d="M125.953 106.301C125.568 106.429 125.169 106.501 124.693 106.614C124.557 106.647 124.45 106.795 124.313 106.828C123.999 106.906 123.687 106.912 123.402 106.963C123.194 107 122.952 107.071 122.691 107.079C122.506 107.085 122.316 107.086 122.115 107.104C121.87 107.124 121.603 107.088 121.323 107.082C121.147 107.079 120.971 107.038 120.797 107.039C120.572 107.043 120.363 107.093 120.161 107.107C119.916 107.124 119.683 107.141 119.49 107.129C119.2 107.11 118.879 107.123 118.554 107.06C118.446 107.039 118.356 106.912 118.248 106.894C117.849 106.821 117.437 106.774 117.023 106.647C116.567 106.508 116.22 106.309 115.873 106.155C115.693 106.075 115.487 106.087 115.319 106.022C115.075 105.926 114.844 105.819 114.673 105.719C114.356 105.532 114.01 105.322 113.704 105.048C113.39 104.767 113.2 104.438 113.026 104.147C112.853 103.86 112.664 103.501 112.471 103.001C112.321 102.614 112.218 102.146 112.101 101.71C112.066 101.582 111.956 101.472 111.918 101.34C111.826 101.015 111.864 100.68 111.81 100.377C111.757 100.082 111.595 99.7843 111.554 99.4503C111.535 99.2982 111.626 99.1319 111.606 98.9782C111.597 98.9092 111.505 98.9218 111.496 98.8528C111.441 98.4372 111.472 97.9996 111.439 97.5856C111.427 97.4303 111.454 97.2248 111.48 96.999C111.509 96.7685 111.472 96.5019 111.474 96.2227C111.474 96.1286 111.488 96.0298 111.488 95.9373C111.556 95.9404 111.631 95.9059 111.7 95.9059C111.739 95.9059 111.782 95.9874 111.821 95.9859C112.118 95.978 112.398 95.9137 112.669 95.8886C112.891 95.8682 113.096 95.8118 113.294 95.8039C113.657 95.7898 113.996 95.8181 114.318 95.771C114.497 95.7444 114.658 95.6518 114.818 95.6361C115.038 95.6142 115.279 95.5797 115.532 95.5781C115.762 95.5765 116.005 95.6942 116.253 95.6769C116.494 95.6612 116.726 95.622 116.951 95.5969C117.208 95.5687 117.445 95.4307 117.678 95.4213C117.843 95.4134 118.012 95.5091 118.177 95.5044C118.507 95.4966 118.843 95.4166 119.196 95.3821C119.39 95.3633 119.594 95.4621 119.787 95.4448C120.084 95.4197 120.376 95.3444 120.673 95.3131C120.875 95.2911 121.086 95.2786 121.31 95.2676C121.579 95.2535 121.855 95.219 122.143 95.186C122.481 95.1468 122.799 95.0715 123.079 95.0041C123.275 94.9571 123.464 94.9382 123.636 94.91C123.825 94.8802 124.001 94.783 124.189 94.7485C124.483 94.6952 124.761 94.6371 125.036 94.6026C125.658 94.5226 126.091 93.9957 126.011 93.3746C125.931 92.7536 125.37 92.3082 124.75 92.3913C124.417 92.4336 124.097 92.4885 123.789 92.5434C123.614 92.5748 123.448 92.6501 123.275 92.6783C123.021 92.7191 122.776 92.7253 122.548 92.7802C122.308 92.8367 122.086 92.923 121.884 92.9465C121.665 92.9716 121.438 93.0374 121.194 93.05C120.949 93.0625 120.695 93.0265 120.434 93.0531C120.153 93.0829 119.864 93.039 119.581 93.0641C119.382 93.0814 119.185 93.1582 118.986 93.177C118.714 93.2021 118.43 93.2743 118.129 93.2805C117.946 93.2852 117.764 93.2444 117.582 93.2539C117.274 93.268 116.979 93.257 116.695 93.2884C116.484 93.3119 116.289 93.3715 116.096 93.3856C115.916 93.3981 115.719 93.4327 115.514 93.4358C115.22 93.4389 114.907 93.3056 114.582 93.3386C114.372 93.3605 114.175 93.4405 113.981 93.4687C113.706 93.5079 113.448 93.4891 113.206 93.4969C112.944 93.5064 112.694 93.5926 112.451 93.6146C112.207 93.6381 111.981 93.7495 111.761 93.7557C111.645 93.7589 111.515 93.6804 111.381 93.671C111.37 93.5566 111.326 93.4436 111.323 93.3401C111.317 93.1237 111.436 92.8916 111.452 92.6407C111.465 92.443 111.362 92.2329 111.366 92.0196C111.37 91.7122 111.366 91.4221 111.344 91.1649C111.328 90.9688 111.344 90.7822 111.344 90.6207C111.344 90.4152 111.419 90.1972 111.444 89.9604C111.465 89.7487 111.428 89.5228 111.438 89.2923C111.447 89.0304 111.496 88.7794 111.487 88.5599C111.477 88.3403 111.416 88.1349 111.43 87.9702C111.443 87.8181 111.479 87.6424 111.52 87.4558C111.579 87.1845 111.578 86.8739 111.587 86.5368C111.6 86.1462 111.683 85.7855 111.647 85.5017C111.625 85.3386 111.587 85.1927 111.586 85.0829C111.584 84.9653 111.554 84.8712 111.554 84.7645C111.684 84.741 111.804 84.7442 111.937 84.7253C112.104 84.7002 112.278 84.6187 112.471 84.6014C112.776 84.5748 113.134 84.6265 113.487 84.5544C113.789 84.4932 114.051 84.2956 114.331 84.2219C114.538 84.1686 114.756 84.2141 114.95 84.1702C115.457 84.0557 115.963 83.971 116.434 83.8502C116.698 83.7828 116.932 83.651 117.172 83.5773C117.404 83.5052 117.627 83.4472 117.836 83.3954C118.011 83.3531 118.193 83.2668 118.397 83.2339C118.697 83.1852 119.014 83.1696 119.341 83.0739C119.765 82.9484 120.139 82.7665 120.516 82.6301C120.654 82.5799 120.641 82.5454 120.781 82.4952C121.051 82.398 121.309 82.3133 121.53 82.2176C121.749 82.1235 121.998 82.1549 122.176 82.0968C122.572 81.9667 122.821 81.7816 123.051 81.7236C123.249 81.6734 123.428 81.6624 123.603 81.5997C123.809 81.526 123.951 81.4036 124.127 81.3236C124.331 81.2295 124.588 81.1731 124.986 81.0257C125.612 80.7936 125.937 80.1051 125.705 79.4809C125.472 78.8551 124.774 78.5367 124.147 78.7673C123.66 78.9476 123.358 79.0872 123.139 79.1876C122.999 79.2519 122.914 79.3397 122.81 79.3758C122.741 79.4009 122.601 79.3476 122.457 79.3836C122.207 79.4464 121.866 79.5515 121.391 79.7067C121.109 79.7992 120.841 79.9137 120.583 80.0235C120.374 80.1129 120.213 80.2901 120.013 80.3607C119.869 80.4125 119.828 80.3011 119.685 80.3529C119.344 80.4768 118.986 80.5787 118.633 80.6838C118.452 80.7371 118.254 80.8845 118.017 80.9237C117.786 80.9614 117.51 80.9269 117.241 80.9927C116.962 81.0617 116.71 81.1998 116.453 81.2797C116.233 81.3487 116 81.3221 115.796 81.3738C115.349 81.4883 114.907 81.7361 114.424 81.8459C114.191 81.8977 113.956 81.9071 113.737 81.9635C113.478 82.031 113.244 82.1517 113.01 82.1988C112.787 82.2443 112.522 82.1925 112.255 82.216C112.036 82.2348 111.816 82.3023 111.582 82.3368C111.355 82.3697 111.122 82.3195 110.913 82.3572C110.64 82.4058 110.398 82.5532 110.161 82.5783C109.83 82.6144 109.473 82.6944 109.272 82.9594C109.071 83.2245 109.015 83.6009 109.069 83.9286C109.09 84.0525 109.175 84.3364 109.175 84.614C109.175 84.774 109.168 84.9465 109.173 85.13C109.178 85.3731 109.183 85.5989 109.211 85.82C109.241 86.049 109.173 86.267 109.167 86.463C109.164 86.5775 109.267 86.772 109.227 86.9586C109.173 87.2001 109.057 87.4605 109.03 87.7679C109.004 88.0847 109.004 88.378 109.016 88.6634C109.024 88.8563 109.004 89.0366 108.999 89.2045C108.993 89.3597 109.065 89.5385 109.047 89.722C109.021 89.9949 108.961 90.2991 108.961 90.6269C108.961 90.8841 108.931 91.1257 108.952 91.3593C108.971 91.582 108.927 91.789 108.923 91.9788C108.92 92.1356 109.024 92.3082 109.013 92.4869C108.994 92.7818 109 93.0829 109.01 93.4123C109.018 93.6726 108.908 93.9251 108.931 94.1619C108.953 94.3815 108.996 94.5838 108.999 94.7736C109.002 94.9555 109.033 95.139 109.04 95.3225C109.049 95.6314 109.079 95.9231 109.076 96.2101C109.076 96.356 109.029 96.5269 109.005 96.712C108.967 97.0288 109.019 97.3848 109.049 97.7785C109.087 98.2599 109.077 98.7273 109.137 99.1758C109.146 99.2433 109.09 99.2511 109.099 99.3186C109.118 99.4644 109.253 99.5946 109.27 99.7389C109.314 100.09 109.247 100.47 109.311 100.83C109.387 101.254 109.583 101.633 109.684 101.985C109.718 102.105 109.764 102.22 109.797 102.338C109.932 102.836 110.104 103.351 110.298 103.849C110.543 104.48 110.701 104.993 110.946 105.4C111.248 105.901 111.606 106.396 112.102 106.84C112.528 107.22 113.008 107.507 113.465 107.775C113.805 107.974 114.13 108.162 114.438 108.282C114.585 108.34 114.739 108.357 114.868 108.413C115.352 108.628 115.856 108.776 116.322 108.918C116.767 109.055 117.269 109.204 117.813 109.301C117.912 109.318 117.995 109.422 118.096 109.44C118.461 109.511 118.886 109.572 119.327 109.602C119.429 109.608 119.534 109.579 119.635 109.579C119.881 109.579 120.114 109.499 120.329 109.483C120.505 109.47 120.671 109.428 120.827 109.425C120.976 109.423 121.128 109.47 121.279 109.473C121.607 109.48 121.951 109.583 122.319 109.552C122.459 109.539 122.606 109.497 122.77 109.492C123.088 109.481 123.44 109.395 123.819 109.328C124.185 109.263 124.562 109.284 124.902 109.197C125.03 109.166 125.141 109.075 125.27 109.044C125.735 108.932 126.225 108.776 126.718 108.611C127.351 108.401 127.627 107.762 127.415 107.13C127.205 106.498 126.581 106.097 125.948 106.307L125.953 106.301Z" fill="black"/>
<path d="M127.508 59.6102C127.266 59.753 126.995 59.8267 126.779 59.9694C126.588 60.098 126.461 60.3034 126.281 60.4101C126.117 60.5073 125.919 60.5701 125.724 60.6657C125.473 60.7896 125.221 60.9339 124.959 61.097C124.645 61.2931 124.348 61.4703 124.091 61.6773C123.954 61.7871 123.838 61.9047 123.712 61.9988C123.415 62.2168 123.093 62.4175 122.785 62.6214C122.622 62.7296 122.636 62.7532 122.473 62.8629C122.091 63.1186 121.713 63.4071 121.333 63.6816C121.155 63.8086 120.934 63.8792 120.734 64.0078C120.521 64.1443 120.36 64.3717 120.142 64.5285C119.969 64.6524 119.751 64.701 119.596 64.8233C119.376 64.9959 119.189 65.1872 118.985 65.3174C118.554 65.5903 118.091 65.8286 117.664 66.1643C117.53 66.2693 117.433 66.4183 117.296 66.5171C117.029 66.7116 116.792 66.9531 116.525 67.1962C116.392 67.317 116.268 67.4456 116.136 67.5679C115.908 67.7796 115.603 67.88 115.383 68.0698C115.173 68.2517 115.074 68.5277 114.896 68.7065C114.732 68.8743 114.498 68.9465 114.342 69.0766C114.21 69.1864 114.075 69.3009 113.92 69.4154C113.67 69.602 113.472 69.8686 113.221 70.107C112.841 70.4662 112.462 70.772 112.123 71.106C111.905 71.3225 111.735 71.5577 111.553 71.771C111.413 71.9341 111.223 72.036 111.091 72.1741C110.689 72.5897 110.777 73.2531 111.193 73.6546C111.397 73.8506 111.622 74.009 111.884 74.009C112.146 74.009 112.476 73.9212 112.682 73.7079C112.863 73.5212 112.996 73.3064 113.152 73.1229C113.31 72.9347 113.466 72.7653 113.618 72.6148C113.946 72.2901 114.24 71.9169 114.607 71.5687C114.769 71.415 115.014 71.3225 115.225 71.1656C115.396 71.0386 115.566 70.8943 115.745 70.7453C115.975 70.5524 116.112 70.2874 116.304 70.0913C116.459 69.9345 116.604 69.7777 116.75 69.6506C116.999 69.4342 117.268 69.246 117.5 69.0311C117.626 68.9151 117.788 68.8382 117.915 68.7222C118.097 68.5559 118.29 68.3662 118.521 68.1984C118.674 68.087 118.828 67.9678 118.986 67.8424C119.358 67.5506 119.771 67.3734 120.142 67.1382C120.436 66.9516 120.651 66.6818 120.902 66.4858C121.048 66.3713 121.232 66.3274 121.37 66.227C121.542 66.1031 121.706 65.9557 121.904 65.8286C122.118 65.6922 122.288 65.4742 122.509 65.3142C122.859 65.0617 123.241 64.8422 123.624 64.585C123.784 64.4783 123.809 64.5144 123.971 64.4077C124.298 64.1913 124.656 63.9906 124.992 63.7443C125.155 63.6236 125.32 63.5122 125.468 63.393C125.688 63.2158 125.817 62.9367 126.025 62.8065C126.195 62.6998 126.435 62.6653 126.649 62.5603C126.872 62.452 127.115 62.3611 127.351 62.2215C127.58 62.0851 127.808 61.9565 128.017 61.8169C128.216 61.6836 128.403 61.5644 128.593 61.4515C129.093 61.1566 129.192 60.4822 128.898 59.9851C128.603 59.4864 128.001 59.3154 127.503 59.6087L127.508 59.6102Z" fill="black"/>
<path d="M203.652 106.208C203.458 106.272 203.288 106.382 203.11 106.45C202.862 106.544 202.639 106.674 202.424 106.73C202.196 106.79 201.928 106.774 201.655 106.814C201.475 106.839 201.306 106.908 201.13 106.939C200.962 106.969 200.803 107.041 200.635 107.075C200.356 107.133 200.073 107.058 199.836 107.08C199.553 107.107 199.259 107.206 198.941 107.206C198.802 107.206 198.666 107.193 198.531 107.195C198.179 107.201 197.822 107.176 197.447 107.152C197.332 107.144 197.335 107.107 197.221 107.099C196.827 107.075 196.429 107.072 195.964 106.989C195.569 106.919 195.112 106.85 194.719 106.732C194.377 106.63 194.026 106.458 193.565 106.252C193.478 106.213 193.378 106.207 193.29 106.169C192.979 106.034 192.674 105.91 192.449 105.763C192.096 105.532 191.752 105.253 191.476 105.007C191.173 104.737 190.968 104.392 190.77 104.088C190.508 103.686 190.361 103.33 190.23 102.995C190.163 102.822 190.131 102.584 190.081 102.328C190.042 102.129 189.988 101.922 189.932 101.702C189.889 101.541 189.849 101.376 189.801 101.212C189.717 100.918 189.589 100.655 189.541 100.383C189.519 100.26 189.448 100.145 189.423 100.02C189.359 99.6824 189.382 99.3499 189.357 99.041C189.341 98.859 189.357 98.652 189.36 98.4293C189.365 98.1737 189.373 97.8788 189.349 97.5777C189.332 97.3472 189.178 97.1386 189.153 96.9253C189.121 96.6618 189.103 96.4046 189.093 96.1694C189.09 96.0878 189.123 95.9576 189.121 95.8745C189.264 95.8714 189.431 95.9059 189.566 95.9012C189.805 95.8918 190.045 95.9655 190.282 95.9639C190.532 95.9608 190.783 95.9294 191.03 95.92C191.295 95.9106 191.554 95.92 191.802 95.8996C192.043 95.8824 192.264 95.7773 192.487 95.7695C192.819 95.7585 193.128 95.6848 193.404 95.644C193.609 95.6142 193.802 95.5562 193.978 95.5436C194.207 95.5279 194.45 95.6691 194.702 95.6659C194.939 95.6612 195.181 95.5311 195.432 95.5169C195.603 95.5075 195.779 95.6001 195.95 95.5938C196.271 95.5813 196.594 95.4652 196.935 95.4323C197.089 95.4181 197.255 95.5358 197.411 95.5248C197.755 95.4997 198.107 95.404 198.477 95.3429C198.746 95.299 198.983 95.2143 199.219 95.1547C199.449 95.0951 199.671 95.048 199.861 95.0261C200.062 95.0025 200.288 94.9335 200.527 94.9304C200.772 94.9273 201.031 95.0386 201.301 95.0135C201.425 95.0025 201.545 94.9147 201.67 94.9053C202.036 94.8739 202.415 94.8583 202.799 94.8081C203.421 94.7281 203.937 94.1713 203.855 93.5503C203.775 92.9292 203.125 92.4462 202.504 92.5262C202.17 92.5685 201.835 92.5999 201.479 92.6297C201.348 92.6407 201.218 92.6297 201.089 92.6407C200.905 92.6563 200.712 92.7677 200.5 92.7708C200.214 92.774 199.911 92.6893 199.594 92.7253C199.248 92.7645 198.931 92.8822 198.648 92.9543C198.455 93.0045 198.284 93.1111 198.119 93.1394C197.849 93.1833 197.555 93.2147 197.248 93.2366C197.075 93.2492 196.9 93.2225 196.728 93.2382C196.45 93.2648 196.161 93.2335 195.858 93.246C195.674 93.2539 195.487 93.235 195.303 93.246C195.097 93.2586 194.889 93.3558 194.664 93.3605C194.395 93.3652 194.111 93.2539 193.825 93.2727C193.56 93.2915 193.326 93.4656 193.087 93.5001C192.848 93.5362 192.613 93.4844 192.41 93.4923C192.143 93.5017 191.882 93.5299 191.63 93.5487C191.392 93.566 191.168 93.5832 190.945 93.5926C190.716 93.6005 190.486 93.5973 190.255 93.6005C189.998 93.6036 189.74 93.6193 189.479 93.6303C189.376 93.635 189.288 93.6224 189.18 93.6256C189.181 93.5409 189.211 93.4844 189.212 93.3997C189.216 93.2084 189.137 92.9982 189.154 92.7818C189.175 92.5387 189.178 92.2894 189.183 92.0227C189.187 91.72 189.286 91.4283 189.266 91.1758C189.249 90.9782 189.194 90.7947 189.195 90.6332C189.195 90.4434 189.252 90.2552 189.249 90.0686C189.245 89.7941 189.123 89.5338 189.132 89.2907C189.139 89.1182 189.228 88.9457 189.245 88.7575C189.271 88.4689 189.195 88.1709 189.19 87.8573C189.189 87.7083 189.239 87.5609 189.236 87.4166C189.23 87.1013 189.311 86.8049 189.319 86.5383C189.33 86.2058 189.217 85.9047 189.2 85.6381C189.187 85.4515 189.128 85.2727 189.131 85.1394C189.134 85.0249 189.167 84.8587 189.173 84.7504C189.33 84.7285 189.541 84.8367 189.692 84.8147C190.031 84.7645 190.351 84.6846 190.656 84.6077C190.849 84.5591 191.017 84.4509 191.195 84.4148C191.358 84.3819 191.559 84.3474 191.774 84.3317C192.043 84.3129 192.335 84.2297 192.654 84.167C192.776 84.1435 192.9 84.1184 193.023 84.0949C193.396 84.0243 193.792 84.0039 194.183 83.9051C194.556 83.8094 194.87 83.6479 195.156 83.5209C195.33 83.444 195.503 83.3891 195.647 83.3405C195.867 83.2684 196.11 83.2825 196.315 83.2088C196.572 83.1147 196.783 82.9281 197.012 82.859C197.169 82.812 197.392 82.8857 197.61 82.8622C197.871 82.8324 198.165 82.7555 198.468 82.674C198.839 82.5752 199.151 82.3933 199.442 82.2788C199.611 82.2113 199.764 82.1219 199.905 82.0749C200.318 81.94 200.612 81.8632 200.844 81.8083C201.015 81.7691 201.182 81.7628 201.344 81.7095C201.728 81.584 202.035 81.573 202.817 81.2844C203.443 81.0523 203.798 80.2792 203.566 79.6534C203.335 79.0292 202.597 78.7751 201.972 79.0057C201.221 79.2833 200.948 79.288 200.59 79.4056C200.527 79.426 200.426 79.4668 200.302 79.495C200.038 79.5562 199.696 79.7052 199.182 79.873C198.972 79.942 198.785 80.0502 198.59 80.127C198.337 80.2274 198.083 80.298 197.846 80.3623C197.72 80.3968 197.53 80.414 197.339 80.436C197.04 80.4689 196.715 80.5238 196.352 80.6305C196.048 80.7199 195.743 80.781 195.459 80.8845C195.275 80.952 195.079 80.9943 194.889 81.057C194.633 81.1417 194.375 81.1998 194.166 81.2923C193.946 81.3895 193.761 81.5275 193.583 81.5714C193.266 81.653 192.95 81.7973 192.597 81.8647C192.468 81.8898 192.322 81.8302 192.193 81.8569C192.024 81.8898 191.82 81.8835 191.603 81.8992C191.333 81.9181 191.03 81.9745 190.714 82.0372C190.478 82.0843 190.258 82.147 190.043 82.2019C189.786 82.2678 189.533 82.2662 189.313 82.2992C188.878 82.365 188.413 82.4121 187.89 82.4685C187.559 82.5046 187.259 82.7351 187.058 83.0002C186.857 83.2652 186.778 83.604 186.833 83.9318C186.844 84.0102 186.869 84.2627 186.857 84.4462C186.844 84.6344 186.726 84.843 186.72 85.0798C186.714 85.326 186.744 85.5722 186.759 85.8059C186.775 86.0365 186.919 86.2529 186.912 86.4662C186.901 86.7987 186.868 87.1249 186.875 87.4746C186.879 87.6126 186.795 87.7538 186.799 87.8965C186.802 88.0863 186.858 88.3121 186.838 88.5489C186.819 88.7591 186.77 88.9755 186.761 89.2092C186.75 89.5103 186.756 89.8114 186.761 90.1015C186.762 90.2741 186.758 90.4466 186.756 90.6222C186.756 90.892 186.853 91.1366 186.874 91.3797C186.893 91.5946 186.795 91.8032 186.792 91.9851C186.789 92.1702 186.89 92.3787 186.871 92.5936C186.85 92.8398 186.701 93.0861 186.696 93.3574C186.695 93.475 186.709 93.5942 186.706 93.7118C186.698 94.0568 186.777 94.4113 186.784 94.7751C186.788 94.9712 186.678 95.1672 186.676 95.3633C186.674 95.6565 186.681 95.9608 186.693 96.2713C186.707 96.6038 186.788 96.9112 186.824 97.2107C186.847 97.4083 186.886 97.5934 186.901 97.7706C186.915 97.9588 186.924 98.1705 186.921 98.3933C186.916 98.6661 186.849 98.95 186.874 99.2527C186.91 99.6887 186.993 100.107 187.062 100.474C187.084 100.589 187.215 100.685 187.235 100.797C187.306 101.193 187.358 101.568 187.452 101.892C187.493 102.035 187.486 102.19 187.524 102.331C187.563 102.483 187.552 102.654 187.587 102.828C187.653 103.158 187.775 103.526 187.918 103.896C188.11 104.391 188.363 104.883 188.718 105.427C189.032 105.91 189.469 106.327 189.93 106.741C190.273 107.047 190.645 107.463 191.133 107.781C191.531 108.042 191.933 108.238 192.322 108.407C192.402 108.441 192.489 108.462 192.569 108.498C193.129 108.747 193.582 108.926 194.028 109.059C194.512 109.204 194.997 109.201 195.551 109.299C196.024 109.384 196.528 109.557 197.07 109.589C197.182 109.596 197.189 109.473 197.299 109.481C197.665 109.505 198.039 109.604 198.435 109.604C198.477 109.604 198.521 109.564 198.565 109.563C198.689 109.561 198.815 109.563 198.941 109.563C199.299 109.563 199.677 109.669 200.071 109.633C200.444 109.599 200.797 109.528 201.13 109.459C201.274 109.43 201.399 109.295 201.545 109.27C201.692 109.243 201.856 109.315 202.005 109.293C202.32 109.249 202.688 109.21 203.052 109.114C203.388 109.026 203.69 108.881 203.985 108.769C204.149 108.708 204.285 108.603 204.434 108.553C205.067 108.343 205.435 107.657 205.223 107.025C205.012 106.393 204.287 106.006 203.654 106.218L203.652 106.208Z" fill="black"/>
<path d="M50.1387 109.781C50.0837 109.585 50.0758 109.348 50.0162 109.149C49.9282 108.854 49.8858 108.866 49.7978 108.573C49.6502 108.098 49.6612 107.612 49.5811 107.108C49.4759 106.592 49.333 106.103 49.2403 105.567C49.1304 104.947 48.9717 104.397 48.9293 103.785C48.8916 103.39 48.8681 102.88 48.7927 102.485C48.6765 101.63 48.4409 100.526 48.3357 99.7012C48.276 99.2887 48.1959 98.8873 48.1535 98.4967C48.1456 98.3321 48.0058 97.7345 47.9995 97.5746C47.9571 97.0068 47.9666 96.2744 47.9194 95.7146C47.8818 94.8959 47.687 94.0161 47.6305 93.199C47.61 92.6218 47.5064 91.8612 47.4797 91.3452C47.4451 90.6097 47.4608 89.5652 47.3917 88.8422C47.3226 88.3074 47.5394 87.7694 47.5629 87.2033C47.5661 87.0747 47.5158 86.5116 47.5127 86.3705C47.508 86.2419 47.5865 85.6365 47.5755 85.522C47.5551 85.1739 47.4012 84.694 47.3431 84.3474C47.2535 83.7373 47.2661 83.259 47.2331 82.5673C47.2096 82.1141 47.2677 81.7251 47.2849 81.413C47.2975 81.0947 47.354 80.6806 47.3713 80.1302C47.3823 79.5467 47.1891 79.0715 47.1467 78.7218C47.0588 78.1039 47.2347 77.5675 47.175 76.8947C47.1436 76.3819 47.0258 75.9333 46.9928 75.4895C46.9818 75.3876 47.0179 75.1696 47.0101 75.0598C46.9944 74.4262 46.897 73.6922 46.7918 73.0774C46.6834 72.3999 46.7714 71.6879 46.4588 71.0323C46.0332 70.1164 44.6432 70.0176 44.2333 71.0151C43.9585 71.7318 43.8658 72.334 43.6098 73.0037C43.4213 73.5228 43.0884 74.3525 42.8999 74.859C42.7617 75.1931 42.4319 75.8251 42.2827 76.2752C42 76.9888 41.5351 77.9141 41.3042 78.6387C41.1582 79.0308 40.9508 79.6408 40.8016 80.116C40.6414 80.5991 40.4812 81.0257 40.2881 81.4773C39.9818 82.2678 39.6473 83.0457 39.3269 83.8361C39.0128 84.614 38.7913 85.4374 38.4803 86.2419C38.1819 86.9743 37.7233 87.8682 37.4956 88.6163C37.4595 88.723 37.3857 88.9206 37.3385 89.0272C36.9318 89.8929 36.5108 90.9202 36.1135 91.7624C36.0083 91.9851 36.0711 92.0133 35.969 92.236C35.7397 92.7489 35.4397 92.8524 35.1036 93.4671C34.7063 94.2811 34.4314 94.9555 34.0042 95.6942C33.7372 96.1349 33.376 96.2886 33.0226 96.8077C32.798 97.1417 32.7305 97.5024 32.5797 97.722C32.2562 98.1768 31.774 98.6207 31.3782 99.0221C31.2809 98.9265 31.1756 98.7963 31.0688 98.6959C30.7783 98.4215 30.5019 98.2991 30.2898 98.0372C30.0291 97.7 29.715 97.3346 29.4857 97.0006C29.2061 96.5944 29.0538 96.0549 28.8119 95.5844C28.7318 95.4213 28.8119 95.3836 28.7397 95.2174C28.6643 95.0449 28.4318 94.7234 28.3643 94.5477C28.19 94.1258 28.0251 93.8592 27.8869 93.5032C27.7675 93.1801 27.7518 92.8963 27.6576 92.4995C27.5476 92.0478 27.3482 91.4017 27.2272 90.9469C27.111 90.4607 26.9037 89.8694 26.7718 89.435C26.7011 89.1841 26.6241 88.7293 26.5692 88.3968C26.4529 87.8667 26.4058 87.2801 26.3132 86.7265C26.2173 86.2058 25.9629 85.7338 25.8797 85.2727C25.7854 84.8555 25.7179 84.4085 25.6252 84.0212C25.5499 83.6401 25.4713 83.2464 25.3944 82.8355C25.2907 82.2192 25.085 81.7173 25.0096 81.1402C24.9609 80.8014 24.9483 80.2886 24.8462 79.9028C24.7284 79.5107 24.4677 78.8724 24.3437 78.4771C24.2793 78.2827 24.2588 78.0067 24.1866 77.8279C23.9479 77.3495 23.8913 76.9073 23.4484 76.5983C22.938 76.2517 22.2045 76.3317 21.8559 76.8398C21.2167 77.7902 20.5256 78.8285 20.1267 79.92C19.7545 80.9598 19.5723 82.0435 19.2095 83.0535C18.7556 84.2627 18.5954 85.6303 18.3504 86.8755C18.2844 87.2299 18.2247 87.6016 18.1745 87.989C18.1211 88.425 17.953 89.2358 17.9138 89.6687C17.8918 90.0764 17.8792 90.9422 17.8761 91.3468C17.8651 91.7985 17.8808 92.2941 17.8761 92.741C17.8918 93.1754 17.92 93.751 17.9248 94.06C17.9138 94.7987 17.9797 95.5373 17.9829 96.2776C17.986 97.0178 18.0331 97.7455 18.1148 98.4889C18.2075 99.1398 18.3017 99.4691 18.3331 99.9929C18.341 100.489 18.3519 101.117 18.3975 101.618C18.4336 102.725 18.6001 103.876 18.7823 104.954C18.9817 106.007 19.1875 106.988 19.3351 108.09C19.3854 108.663 19.621 109.265 19.8016 109.779C19.9461 110.259 19.9147 110.753 20.0246 111.297C20.2932 112.436 21.9941 112.094 21.8323 110.968C21.7475 110.452 21.6988 109.833 21.5465 109.274C21.446 108.931 21.2277 108.619 21.1507 108.314C21.1366 108.249 21.2292 108.192 21.2167 108.104C21.201 107.984 21.1978 107.987 21.1852 107.866C21.0989 107.016 20.9575 106.056 20.8476 105.157C20.6748 103.937 20.334 102.752 20.3073 101.525C20.2539 100.852 20.4863 100.247 20.4157 99.5648C20.3748 99.1209 20.0811 98.5438 20.0529 98.2364C19.9382 96.8626 20.1094 95.4464 20.1565 94.0443C20.1565 93.4687 20.0152 93.1127 20.0073 92.6767C20.0167 92.0808 19.8832 91.4628 19.9571 90.8684C20.0199 90.1376 20.1204 89.0021 20.2099 88.2854C20.2822 87.8118 20.5256 87.2346 20.5947 86.7359C20.7047 86.1666 20.8005 85.1896 20.9198 84.6657C21.0392 84.1733 21.3235 83.7357 21.4852 83.2401C21.7271 82.4811 21.9093 81.3942 22.1684 80.6806C22.2564 80.4611 22.3695 80.1992 22.4841 79.9921C22.5202 80.116 22.5956 80.3042 22.6302 80.4172C22.7228 80.7653 22.8014 81.0335 22.8626 81.4491C22.9223 81.9918 23.0448 82.6614 23.1595 83.157C23.2317 83.5946 23.2333 84.0776 23.3448 84.534C23.461 85.0359 23.6024 85.4766 23.6982 85.9565C23.7971 86.394 24.0201 86.7689 24.0987 87.1374C24.1788 87.6236 24.1615 88.1411 24.2714 88.6399C24.3688 89.1213 24.3735 89.4977 24.5274 90.0529C24.6876 90.6285 24.9593 90.9876 25.0865 91.5146C25.1556 91.7671 25.2734 92.4368 25.3394 92.6799C25.5043 93.3244 25.6771 94.0757 25.9928 94.7061C26.3603 95.473 26.4891 96.1882 26.855 96.9269C27.0199 97.2703 27.2209 97.7283 27.4518 98.0937C27.6811 98.4607 28.0376 98.7994 28.2921 99.1178C28.6156 99.5616 29.1009 100.032 29.4763 100.368C30.1548 101.011 31.1772 102.339 32.1965 101.39C32.798 100.796 33.6132 100.203 34.1581 99.5632C34.5037 99.1852 34.8146 98.5093 35.0486 98.1517C35.2622 97.8334 35.7805 97.3111 36.0145 96.8939C36.4386 96.1662 36.8846 95.3037 37.227 94.5901C37.3699 94.3235 37.8223 93.6193 37.9715 93.2335C38.0751 92.9919 38.3186 92.8132 38.3186 92.8132C38.8102 91.7498 39.1588 90.6081 39.6378 89.5542C39.7902 89.1747 39.9755 88.8014 40.0965 88.4423C40.197 88.1537 40.5488 87.3946 40.6634 87.0825C40.9901 86.2184 41.2445 85.3009 41.5995 84.4148C41.9544 83.5287 42.4005 82.6991 42.7256 81.8192C42.8402 81.4805 42.8591 81.137 42.9627 80.8249C43.1229 80.3466 43.3978 80.0376 43.6067 79.4777C43.8957 78.5948 44.0009 77.911 44.337 77.0515C44.4673 76.6861 44.6731 76.4979 44.8458 76.1498C44.9055 76.4854 44.9464 76.7677 44.9778 77.0625C44.9998 77.4091 44.9919 77.784 44.9809 78.2011C44.9448 78.7626 45.0956 79.6597 45.0893 80.0847C45.0893 80.3748 45.1113 80.7936 45.0893 81.3127C45.072 81.8412 45.1364 82.285 45.1584 82.6693C45.1914 83.2292 45.1348 84.0321 45.2479 84.6579C45.3029 84.9669 45.3579 84.959 45.4081 85.268C45.4348 85.4499 45.4238 85.5989 45.427 85.7824C45.4395 86.0819 45.4568 86.6873 45.4725 86.9869C45.4866 87.4072 45.3312 87.713 45.306 88.1835C45.2872 88.403 45.3971 88.7042 45.416 88.9316C45.4772 89.6671 45.4898 90.7116 45.5228 91.4597C45.5557 91.9459 45.606 92.3866 45.6531 92.7645C45.6908 93.0955 45.7584 93.6318 45.7882 93.9831C45.8667 94.8096 45.9468 95.6973 46.063 96.5175C46.1447 97.0711 46.1903 97.8318 46.2515 98.3885C46.2892 98.9218 46.4698 99.4707 46.5641 99.9741C46.6347 100.501 46.7682 101.08 46.8672 101.549C46.9033 101.721 47.0839 102.926 47.1106 103.061C47.1514 103.279 47.2441 103.73 47.2818 103.967C47.3462 104.613 47.5535 105.264 47.709 105.871C47.8126 106.32 47.8048 106.825 47.9352 107.289C48.0294 107.648 48.1833 107.952 48.2807 108.333C48.4503 108.973 48.6984 109.569 48.9356 110.181C49.0927 110.576 49.2089 110.998 49.4083 111.396C49.5356 111.65 49.8638 111.832 50.1418 111.74C50.4465 111.638 50.5297 111.266 50.4229 110.962C50.2957 110.587 50.2517 110.174 50.1387 109.775V109.781Z" fill="black"/>
<path d="M103.293 95.7177C103.239 95.1939 103.285 94.4474 103.243 93.9188C103.199 93.4123 103.046 92.9857 102.979 92.5168C102.897 91.982 102.778 91.455 102.655 90.8936C102.559 90.4356 102.401 90.0043 102.336 89.5668C102.2 88.2572 102.186 86.7799 102.055 85.464C102.018 84.7285 101.906 84.0274 101.903 83.3123C101.906 82.8371 101.926 82.0733 101.981 81.6091C102.082 80.85 101.908 80.0047 101.864 79.2833C101.854 78.8347 101.826 78.4097 101.807 77.9267C101.796 77.6224 101.605 77.3903 101.294 77.3182C100.912 77.2272 100.472 77.4233 100.397 77.8059C100.304 78.2153 100.226 78.7109 100.155 79.1531C100.048 79.7616 100.138 80.389 100.047 80.9535C99.9743 81.3786 99.8769 81.8898 99.8376 82.318C99.7167 83.2307 99.7544 84.1592 99.7999 85.0892C99.8455 86.0208 99.9303 86.9508 99.9711 87.862C100.031 88.5254 100.095 89.1417 100.164 89.8334C100.216 90.296 100.353 90.7728 100.471 91.1947C100.571 91.5915 100.489 91.9537 100.546 92.3944C100.606 92.9418 100.793 93.613 100.843 94.14C100.902 94.9853 101.05 96.0063 101.143 96.8469C101.217 97.4727 101.089 97.9055 101.083 98.5313C101.082 99.0284 101.202 99.3688 101.171 99.7891C101.114 100.272 100.997 101.031 100.935 101.514C100.882 101.914 100.788 102.421 100.727 102.824C100.618 103.581 100.392 104.273 99.9852 104.886C99.8046 105.153 99.3146 105.422 99.0068 105.592C98.8497 105.662 98.7162 105.697 98.5827 105.684C98.4524 105.656 98.3362 105.606 98.1712 105.537C97.6749 105.31 97.0326 105.139 96.5646 104.896C96.2065 104.693 95.7667 104.456 95.4149 104.262C94.9657 104.019 94.5432 103.544 94.0407 103.227C93.7831 103.056 93.5035 102.849 93.2538 102.7C92.913 102.491 92.6884 102.247 92.3696 101.961C91.3283 101.059 90.6074 99.7718 89.8912 98.6144C89.4844 97.8789 89.0195 97.0586 88.6096 96.3199C88.2782 95.6158 87.9327 94.6136 87.6437 93.8749C87.4097 93.2994 87.3453 92.7379 87.1034 92.1278C86.9181 91.6699 86.681 91.3688 86.5428 90.9673C86.4658 90.6928 86.3653 89.9871 86.2852 89.6985C86.2177 89.4601 86.0213 89.1606 85.9758 88.9143C85.9004 88.4344 85.7261 87.7585 85.7119 87.2958C85.7166 86.9304 85.8454 86.6434 85.7716 86.2404C85.6821 85.6115 85.1261 85.039 84.6282 84.7787C84.1225 84.5262 83.411 84.752 83.1582 85.257C82.943 85.6899 82.7059 86.2278 82.4954 86.6842C82.285 87.1406 82.2033 87.5358 82.0242 87.9624C81.9002 88.2494 81.7729 88.4909 81.6269 88.8422C81.4149 89.3346 81.3379 89.9557 81.2091 90.445C80.983 91.157 80.6767 92.0651 80.6516 92.8242C80.5997 93.6005 80.2102 94.2827 80.1788 95.0794C80.1506 95.5311 80.2212 95.7601 80.16 96.1255C80.0893 96.527 79.9746 96.8673 79.937 97.3393C79.8867 97.8255 79.7265 99.1319 79.6841 99.5993C79.5789 100.644 79.6181 101.63 79.4941 102.676C79.4454 103.166 79.56 103.769 79.5412 104.216C79.5113 104.643 79.3307 105.313 79.359 105.777C79.359 106.015 79.3229 106.701 79.3213 106.925C79.3229 107.199 79.4281 107.828 79.4281 108.118C79.4108 108.581 79.6747 109.186 79.6857 109.593C79.7595 110.974 81.7023 110.915 81.707 109.552C81.6928 108.928 81.4887 108.551 81.4777 108.009C81.4714 107.729 81.4761 107.203 81.4698 106.916C81.462 106.713 81.462 105.973 81.4526 105.777C81.4306 105.23 81.5578 104.894 81.5876 104.303C81.6018 103.964 81.5484 103.653 81.5279 103.406C81.473 102.929 81.5656 102.585 81.6206 102.091C81.6976 101.45 81.5813 100.796 81.6489 100.17C81.7117 99.4817 81.8703 98.1957 81.941 97.4978C81.9818 97.0508 82.1954 96.4831 82.2253 95.9922C82.2582 95.575 82.164 95.2974 82.2221 94.9806C82.3022 94.6277 82.3855 94.3564 82.5033 93.9283C82.6572 93.3668 82.6996 92.8116 82.7624 92.3098C82.8755 91.6511 83.1299 90.8544 83.2587 90.1815C83.3655 89.6718 83.7267 89.3425 83.9466 88.8438C83.9843 89.0053 83.8869 89.1355 83.9183 89.3001C83.9529 89.4789 84.1351 89.802 84.1791 89.9839C84.2042 90.1282 84.4602 90.9971 84.4932 91.1382C84.6235 91.7295 84.8434 92.4415 85.0601 92.9512C85.2502 93.4483 85.5125 94.0882 85.7229 94.6136C85.8784 95.0371 86.2145 95.8839 86.3794 96.3027C86.7673 97.319 87.3186 98.2506 87.7474 99.259C88.0285 99.8377 88.2987 100.434 88.6222 100.965C89.2473 101.938 90.0436 102.764 90.9152 103.545C91.2607 103.87 91.6911 104.257 92.1183 104.521C92.4795 104.75 92.8109 104.908 93.1203 105.181C93.4046 105.437 93.8993 105.926 94.3296 106.15C94.6579 106.348 95.0285 106.5 95.3552 106.683C96.0007 107.057 96.6164 107.325 97.2744 107.621C98.3848 108.164 99.3492 107.926 100.378 107.326C101.568 106.79 102.239 105.926 102.646 104.731C102.867 104.108 102.977 103.424 103.101 102.811C103.255 102.11 103.276 101.201 103.378 100.485C103.428 100.153 103.546 99.7765 103.539 99.4503C103.524 98.7367 103.459 98.2992 103.455 97.6107C103.441 97.0084 103.345 96.2996 103.296 95.724L103.293 95.7177Z" fill="black"/>
<path d="M181.779 93.7887C181.701 93.3825 181.628 92.7081 181.452 92.1937C181.278 91.6762 181.058 91.248 180.892 90.7556C180.754 90.3917 180.593 89.9338 180.425 89.5746C180.182 89.0085 179.833 88.436 179.554 87.8918C179.109 87.0653 178.737 86.2733 178.238 85.4374C178.03 85.0626 177.883 84.6281 177.611 84.2564C177.152 83.6401 176.585 83.2653 176.169 82.6521C175.715 81.9761 174.881 81.2892 174.305 80.803C174.036 80.5646 173.706 80.276 173.298 79.964C172.893 79.6613 172.472 79.5138 172.137 79.3084C171.575 78.979 171.126 78.5368 170.499 78.2529C170.006 78.0286 169.136 77.8154 168.618 77.6617C167.773 77.4264 167.052 77.1896 166.155 77.0218C165.51 76.9026 164.845 76.9449 164.214 76.9057C163.305 76.8289 162.342 76.9528 161.44 77.0782C160.867 77.1723 160.259 77.5048 159.766 77.6507C159.395 77.7573 158.962 77.8075 158.538 77.9628C158.258 78.0647 158.109 78.3956 158.166 78.6983C158.228 79.0402 158.541 79.2206 158.882 79.1516C159.243 79.0857 159.631 79.0355 160.058 78.9696C160.655 78.8865 161.115 78.7893 161.649 78.7563C162.037 78.7454 162.573 78.6952 162.961 78.6748C163.265 78.6513 163.766 78.8316 164.065 78.8504C164.594 78.9273 165.18 78.7908 165.684 78.8755C166.821 79.1359 168.056 79.5734 169.204 79.9044C169.832 80.0722 170.262 80.505 170.815 80.8548C171.211 81.1057 171.666 81.4821 171.969 81.7158C172.211 81.8961 172.56 82.0655 172.899 82.3698C173.403 82.823 173.809 83.0614 174.209 83.4927C174.588 83.9302 174.98 84.6266 175.442 84.992C175.723 85.2413 175.872 85.3825 176.051 85.6711C176.628 86.6701 177.287 87.7287 177.875 88.7669C178.046 89.0602 178.23 89.5589 178.393 89.86C178.673 90.3525 178.886 90.8983 179.095 91.4252C179.282 91.9694 179.69 92.4462 179.838 92.9857C179.938 93.3464 180.015 93.9643 180.15 94.4505C180.333 95.1782 180.457 95.9091 180.439 96.6697C180.403 97.3253 180.498 97.973 180.292 98.5799C180.113 99.2214 179.659 100.092 179.389 100.716C179.24 101.053 179.012 101.489 178.786 101.889C178.456 102.509 178.035 103.084 177.543 103.589C177.333 103.81 177.126 103.986 176.895 104.201C176.609 104.471 176.326 104.739 176.036 104.968C175.654 105.263 175.252 105.397 174.771 105.717C174.215 106.08 173.997 106.494 173.441 106.636C173.205 106.699 172.83 106.672 172.565 106.721C172.09 106.817 171.591 106.881 171.117 106.916C170.57 106.969 169.937 106.966 169.378 106.945C168.497 106.908 167.895 106.57 167.393 105.92C167.079 105.402 166.798 104.69 166.64 104.104C166.548 103.636 166.518 103.048 166.488 102.56C166.493 102.209 166.433 101.745 166.433 101.357C166.43 101.078 166.515 100.062 166.51 99.7906C166.494 99.2731 166.3 98.7822 166.3 98.3055C166.328 97.3974 166.411 96.1835 166.405 95.2535C166.4 94.5399 166.405 93.5142 166.381 92.7928C166.366 92.3333 166.29 91.9193 166.256 91.5397C166.235 91.3092 166.207 90.9563 166.234 90.4639C166.26 90.0247 166.235 89.4993 166.193 89.079C166.124 88.4893 166.202 87.9389 166.18 87.3241C166.147 86.3564 166.044 85.1974 165.957 84.2235C165.92 83.8095 165.83 83.3594 165.755 82.9563C165.499 81.6044 163.495 81.8804 163.611 83.248C163.663 83.6809 163.71 84.0055 163.724 84.3976C163.757 85.1127 163.771 86.0929 163.784 86.7987C163.807 87.3884 163.776 87.9828 163.774 88.5928C163.773 89.1026 163.89 89.6389 163.901 90.1314C163.901 90.6097 163.752 90.9892 163.785 91.6997C163.806 92.1341 163.981 92.5152 163.989 92.8712C163.999 93.6664 164.068 95.746 164.066 96.5129C164.093 97.3378 163.985 98.2427 164.11 99.0724C164.153 99.3625 164.219 99.8816 164.211 100.165C164.226 100.769 164.167 100.771 164.187 101.375C164.198 101.829 164.223 102.228 164.242 102.719C164.294 103.373 164.215 104.067 164.412 104.71C164.556 105.186 164.825 105.586 165.045 105.992C165.382 106.635 165.828 107.372 166.476 107.78C166.907 108.075 167.415 108.261 167.9 108.382C168.696 108.564 169.241 108.496 169.942 108.501C170.856 108.537 171.792 108.264 172.678 108.043C172.772 108.018 173.028 108.133 173.128 108.109C173.568 108.038 174.108 107.913 174.52 107.689C174.969 107.452 175.301 107.17 175.602 106.975C175.894 106.782 176.251 106.585 176.64 106.332C177.105 106.042 177.512 105.617 177.892 105.255C178.465 104.772 179.013 104.215 179.459 103.603C179.689 103.297 179.818 102.923 180.006 102.592C180.234 102.204 180.513 101.867 180.761 101.384C181.195 100.434 181.774 99.3672 181.936 98.3227C182.021 97.755 182.038 97.2562 182.084 96.7246C182.107 96.1725 182.002 95.6471 181.938 95.0747C181.894 94.6497 181.862 94.2074 181.782 93.7918L181.779 93.7887Z" fill="black"/>
<path d="M239.986 104.452C239.912 104.163 239.582 104.074 239.293 104.147C239.113 104.193 238.927 104.227 238.75 104.26C238.411 104.326 238.007 104.265 237.66 104.386C237.423 104.464 237.176 104.563 236.961 104.627C236.286 104.877 235.604 104.994 234.904 105.179C234.106 105.415 233.355 105.582 232.556 105.702C231.893 105.813 231.183 106.031 230.536 106.203C229.74 106.37 228.882 106.585 228.042 106.687C227.256 106.788 226.545 107.278 225.777 107.431C225.466 107.501 224.99 107.602 224.668 107.667C224.282 107.747 223.71 107.651 223.253 107.729C223.061 107.756 222.59 107.86 222.389 107.885C222.1 107.93 222.107 107.969 221.818 108.015C221.252 108.098 220.742 108.33 220.195 108.376C219.828 108.413 219.298 108.441 218.843 108.457C218.109 108.424 217.023 108.372 216.734 107.557C216.65 107.315 216.561 106.948 216.542 106.721C216.531 106.34 216.74 106.109 216.919 105.539C217.181 104.742 217.228 104.332 217.7 103.638C217.971 103.197 218.276 102.785 218.653 102.416C218.848 102.226 219.253 101.844 219.446 101.654C219.889 101.246 220.181 100.749 220.61 100.347C220.869 100.096 221.284 99.8706 221.593 99.4911C221.888 99.1225 222.02 98.7618 222.21 98.5485C222.645 98.0718 223.283 97.3347 223.751 96.9018C224.173 96.5113 224.634 96.0251 225 95.6032C225.345 95.2268 225.812 94.8442 226.144 94.4191C226.163 94.3956 226.936 93.4468 226.991 93.3778C227.22 93.0704 227.743 92.2078 227.966 91.9208C228.463 91.3092 228.91 90.5736 229.325 89.9087C229.694 89.2766 230.016 88.6022 230.313 87.9169C230.61 87.2315 230.946 86.5524 231.032 85.8138C231.228 84.6658 231.098 83.8534 230.272 82.9406C229.862 82.5015 229.488 81.9337 229.03 81.5307C228.555 81.0994 227.798 80.7904 227.289 80.563C226.793 80.3278 226.057 80.011 225.433 79.9216C225.014 79.8463 224.626 79.8087 224.235 79.7585C223.661 79.6863 223.033 79.5436 222.44 79.5311C221.4 79.5232 220.487 79.5421 219.446 79.5719C218.464 79.6675 217.5 79.7538 216.506 79.8244C215.171 79.9608 213.748 80.1866 212.427 80.356C211.826 80.4391 211.307 80.4031 210.649 80.4972C209.363 80.7261 209.738 82.547 210.995 82.2741C211.378 82.1674 211.942 82.1267 212.396 82.0373C213.384 81.8632 214.563 81.6656 215.551 81.5276C216.66 81.3582 217.868 81.228 218.981 81.1417C220.092 81.0367 221.254 81.2453 222.363 81.2453C222.933 81.2688 223.446 81.3754 224.027 81.4476C224.407 81.4946 224.789 81.5307 225.136 81.5903C225.658 81.6938 226.02 81.8381 226.569 82.1C227.256 82.4293 227.772 82.5924 228.218 83.1633C228.4 83.3829 228.681 83.9083 228.871 84.12C229.026 84.3129 229.125 84.4352 229.19 84.6328C229.231 84.8179 229.163 85.108 229.097 85.533C228.918 86.7626 228.383 87.8777 227.75 88.9253C227.349 89.5307 226.851 90.122 226.383 90.6724C226.133 90.9751 225.617 91.7844 225.372 92.0965C225.317 92.1608 224.547 93.0171 224.519 93.0484C224.054 93.5754 223.46 94.0804 223.024 94.6544C222.623 95.1719 222.154 95.6393 221.7 96.1035C221.566 96.2462 220.809 96.9896 220.657 97.1543C220.326 97.5197 220.054 97.8287 219.858 98.0592C219.674 98.2788 219.408 98.4701 219.102 98.7508C218.741 99.0708 218.4 99.5334 218.081 99.8753C217.957 99.9992 217.676 100.394 217.539 100.526C216.991 101.034 216.401 101.569 216.005 102.212C215.725 102.653 215.44 103.018 215.176 103.586C214.887 104.231 214.824 104.723 214.584 105.297C214.178 106.202 214.188 107.108 214.546 108.029C214.818 108.987 215.476 109.815 216.379 110.214C217.277 110.595 217.973 110.584 218.852 110.609C219.363 110.595 219.815 110.656 220.41 110.601C221.018 110.549 221.62 110.298 222.195 110.189C222.477 110.14 223.061 110.085 223.344 110.038C223.944 109.919 224.453 109.839 225.106 109.691C225.457 109.605 225.929 109.552 226.28 109.458C226.834 109.332 227.436 108.97 227.957 108.785C228.478 108.619 228.997 108.55 229.593 108.388C229.793 108.332 230.864 108.043 231.035 107.991C231.508 107.85 231.965 107.637 232.414 107.482C232.698 107.377 233.185 107.278 233.493 107.19C234.12 107.028 234.772 106.785 235.342 106.569C236.034 106.338 236.813 106.255 237.478 105.918C237.712 105.811 237.939 105.753 238.147 105.653C238.431 105.526 238.695 105.38 239.011 105.273C239.436 105.128 240.11 105.035 239.984 104.45L239.986 104.452Z" fill="black"/>
<path d="M156.141 96.1835C156.036 95.3366 155.937 95.3492 155.841 94.5007C155.792 93.9988 155.745 93.2194 155.659 92.7379C155.64 92.5638 155.579 91.764 155.551 91.6103C155.42 90.732 155.32 89.6609 155.211 88.7779C155.196 88.6838 155.196 88.4987 155.185 88.4046C155.158 87.7099 155.109 86.8645 154.984 86.1651C154.91 85.5048 154.951 84.7708 154.885 84.0792C154.845 83.4848 154.717 82.8779 154.644 82.2835C154.525 81.5479 154.662 80.952 154.652 80.1898C154.64 79.7381 154.583 79.2629 154.555 78.8536C154.483 78.049 153.303 77.9973 153.148 78.7736C153.083 79.1092 153.055 79.4323 153.028 79.7146C152.947 80.5709 152.698 81.5181 152.766 82.3964C152.766 82.6238 152.709 82.7728 152.705 83.0331C152.691 83.524 152.651 84.0635 152.653 84.5544C152.645 85.1488 152.604 85.7903 152.675 86.4176C152.716 86.8457 152.724 87.2488 152.742 87.6769C152.761 88.0079 152.867 88.4376 152.904 88.8108C152.923 88.952 152.863 89.3692 152.887 89.5087C152.967 90.2317 153.149 91.1915 153.243 91.9098C153.258 92.0196 153.335 92.843 153.339 92.9716C153.407 93.5017 153.482 94.1776 153.521 94.7077C153.617 95.6095 153.652 95.6048 153.765 96.505C153.876 97.2562 153.905 98.0341 153.931 98.7728C153.947 99.1335 153.865 99.662 153.81 100.118C153.705 100.898 153.787 101.436 153.554 102.164C153.499 102.378 153.418 102.686 153.386 102.934C153.333 103.307 153.273 103.791 153.204 104.041C153.093 104.419 152.915 104.833 152.713 105.181C152.576 105.404 152.444 105.612 152.364 105.688C152.281 105.76 152.268 105.708 152.161 105.738C151.587 105.786 150.833 105.539 150.274 105.263C149.988 105.132 149.568 105.063 149.257 104.91C148.983 104.772 148.609 104.569 148.348 104.417C147.907 104.158 147.52 103.737 147.104 103.42C146.847 103.211 146.437 102.957 146.171 102.759C145.469 102.262 144.875 101.662 144.356 100.995C144.09 100.649 143.289 99.2998 143.041 98.892C142.578 98.0451 142.096 97.1104 141.716 96.2337C141.629 96.0392 141.412 95.6675 141.324 95.4746C141.142 95.0857 140.996 94.7893 140.845 94.325C140.682 93.7761 140.468 93.2131 140.296 92.6815C140.2 92.3756 140.024 91.9051 139.908 91.535C139.878 91.4472 139.837 91.0912 139.803 90.9908C139.669 90.5815 139.697 90.5721 139.572 90.1596C139.35 89.3739 138.928 88.8218 139.028 88.0079C139.038 87.9012 139.025 87.6958 139.036 87.5875C139.198 86.6152 138.78 85.8012 137.849 85.4248C137.349 85.2006 136.74 85.486 136.515 85.9847C136.203 86.6779 136.157 86.6575 135.846 87.3507C135.667 87.7585 135.366 88.3952 135.169 88.9881C135.03 89.3958 134.882 89.8851 134.772 90.2537C134.565 90.9798 134.672 91.0096 134.469 91.7357C134.324 92.269 133.969 92.7301 133.856 93.3103C133.831 93.4342 133.863 93.773 133.838 93.9016C133.762 94.2827 133.718 94.2749 133.643 94.656C133.547 95.1343 133.572 95.7287 133.517 96.1804C133.47 96.5819 133.304 97.0759 133.239 97.642C133.164 98.4043 133.253 98.4121 133.189 99.1743C133.151 99.7514 133.079 100.239 133.052 100.65C133.035 101.039 133.026 101.55 133.01 102.162C133.022 103.12 132.919 104.177 132.892 105.106C132.884 105.498 132.847 106.001 132.842 106.611C132.884 107.78 132.971 108.432 132.953 109.591C133.032 110.968 134.913 110.905 134.923 109.549C134.912 109.106 134.923 108.622 134.915 108.079C134.907 107.533 134.86 107.039 134.862 106.618C134.858 106.24 134.939 105.764 134.959 105.172C134.987 104.331 134.964 102.988 134.956 102.204C134.959 101.829 135.124 101.365 135.163 100.769C135.195 100.197 135.22 99.7091 135.251 99.3013C135.315 98.5909 135.293 98.5893 135.363 97.8789C135.407 97.4633 135.471 96.9959 135.545 96.4188C135.612 95.8918 135.512 95.4699 135.595 94.9853C135.699 94.5195 135.985 93.5001 136.197 93.0594C136.407 92.5434 136.617 91.3782 136.782 90.8293C136.924 90.3588 136.994 89.973 137.134 89.5589C137.351 90.2286 137.652 90.9422 137.841 91.5868C137.91 91.8095 138.009 92.1529 138.062 92.3803C138.152 92.7693 138.201 93.4076 138.386 93.8279C138.552 94.2325 138.716 94.5634 138.843 94.9696C138.959 95.3382 139.124 95.8871 139.313 96.2901C139.667 97.1715 140.176 98.0216 140.638 98.8951C141.1 99.7671 141.606 100.617 142.066 101.448C142.386 102.085 142.82 102.678 143.346 103.213C143.872 103.748 144.439 104.237 145.009 104.649C145.315 104.897 145.722 105.247 146.033 105.491C146.401 105.777 146.807 106.106 147.223 106.352C147.498 106.511 147.834 106.614 148.117 106.746C148.814 107.093 149.484 107.584 150.267 107.798C151.049 107.993 151.632 108.104 152.51 108.007C153.466 107.905 154.219 107.11 154.638 106.385C154.902 105.96 155.122 105.49 155.304 105.01C155.557 104.423 155.58 103.718 155.656 103.181C155.758 102.694 156.022 102.276 156.07 101.696C156.129 101.036 155.97 100.653 156.113 100.079C156.177 99.7985 156.344 99.3092 156.347 98.8685C156.356 98.4387 156.308 97.9604 156.273 97.537C156.235 97.101 156.199 96.574 156.14 96.1788L156.141 96.1835Z" fill="black"/>
</g>
<defs>
<clipPath id="clip0_17_145">
<rect width="240" height="112" fill="white"/>
</clipPath>
</defs>
</svg>
