<svg width="240" height="26" viewBox="0 0 240 26" fill="none" xmlns="http://www.w3.org/2000/svg">
<g clip-path="url(#clip0_17_126)">
<path d="M20.9024 4.71901C21.1252 4.68961 21.5075 4.62076 21.7303 4.59369C21.9508 4.57976 22.1896 4.60374 22.4162 4.57357C22.7138 4.53567 22.8901 4.5465 23.1876 4.52252C23.3937 4.49312 23.7279 4.45057 23.9308 4.44516C24.0354 4.44051 24.3703 4.39487 24.468 4.39642C24.6694 4.40261 24.832 4.41112 25.0746 4.40029C25.6049 4.35464 25.5591 3.63674 25.0433 3.64138C24.8571 3.6468 24.587 3.54314 24.3703 3.55474C24.3192 3.55706 24.3207 3.57795 24.2696 3.58027C24.075 3.58955 24.0758 3.61353 23.8812 3.6205C23.6744 3.62204 23.2899 3.61199 23.0915 3.63829C22.8168 3.65067 22.5162 3.70791 22.2575 3.72571C22.0484 3.73112 21.8279 3.73963 21.6112 3.76361C21.586 3.76671 21.5845 3.75433 21.5593 3.75742C21.3701 3.78063 21.3755 3.8286 21.1855 3.85103C20.952 3.87656 20.6155 3.88043 20.3942 3.92065C20.15 3.94928 19.87 3.97326 19.6388 4.00807C19.371 4.04211 19.1467 4.02896 18.8613 4.07305C18.6003 4.11173 18.3783 4.24479 18.1547 4.25717C17.935 4.26259 17.6191 4.227 17.378 4.26181C17.1788 4.28347 16.9797 4.30746 16.9789 4.30746C16.6066 4.3384 16.1938 4.40957 15.826 4.45057C15.4849 4.49621 15.021 4.59059 14.6807 4.64242C14.2885 4.68188 13.852 4.72056 13.4614 4.76543C13.2248 4.78013 13.0379 4.72752 12.767 4.75924C12.3741 4.81339 12.371 4.7956 11.9788 4.85362C11.7232 4.89539 11.5317 4.99751 11.2868 5.00679C11.1196 5.01221 10.8709 4.95883 10.6817 4.97894C10.5321 4.99132 10.2483 5.03619 10.0949 5.05553C9.95604 5.06945 9.80496 5.13676 9.67372 5.16538C9.60276 5.18008 9.43718 5.1824 9.36851 5.19168C9.16326 5.21489 8.8054 5.30231 8.61693 5.31236C8.39031 5.31546 8.08052 5.28916 7.83712 5.31623C7.72114 5.32397 7.37244 5.32474 7.26409 5.33016C7.05884 5.33867 6.87724 5.3905 6.65291 5.41603C6.37288 5.44775 6.19891 5.50576 5.9494 5.50809C5.79069 5.50963 5.57857 5.51195 5.39926 5.50422C5.25734 5.5019 4.9506 5.45239 4.79876 5.45084C4.43174 5.44156 4.00216 5.48565 3.63438 5.48875C3.15902 5.50112 2.68213 5.44078 2.21898 5.3464C1.96413 5.29612 1.63984 5.32165 1.40178 5.30308C1.21407 5.28606 0.992033 5.23578 0.728027 5.17157C-0.063992 5.0153 -0.295188 6.10376 0.473177 6.30335C0.708951 6.35518 0.980588 6.44492 1.3064 6.47122C1.58261 6.49211 1.78405 6.45807 2.03356 6.49984C2.43262 6.57334 2.8416 6.69711 3.24295 6.7064C3.7641 6.73038 4.29059 6.63522 4.8102 6.63058C4.96968 6.62981 5.19324 6.57953 5.36416 6.57953C5.59612 6.58649 5.83876 6.65766 6.09132 6.63987C6.31336 6.62826 6.59339 6.49752 6.78262 6.47045C6.99703 6.4426 7.30071 6.47896 7.52962 6.45343C7.67002 6.44028 7.94471 6.38767 8.08892 6.37452C8.28349 6.3606 8.44601 6.43099 8.66576 6.41939C8.92748 6.40392 9.27237 6.28556 9.52951 6.25229C9.69356 6.22599 9.90034 6.18267 10.0606 6.15172C10.1582 6.1347 10.5169 6.12078 10.6145 6.10531C10.9953 6.04419 11.3982 6.07049 11.7873 5.98076C11.9574 5.94053 12.3329 5.89876 12.6213 5.85157C12.648 5.95368 12.6594 6.02408 12.6762 6.14089C12.7037 6.41088 12.7693 6.76674 12.8807 7.02667C12.9311 7.15044 12.9349 7.1489 12.9837 7.27345C12.9967 7.30826 13.0196 7.33843 13.0287 7.36705C13.0867 7.55891 13.0844 7.71517 13.1623 8.0045C13.1974 8.12673 13.2347 8.21569 13.2714 8.30775C13.321 8.42766 13.2889 8.44159 13.3378 8.56149C13.4354 8.80595 13.4743 9.03803 13.569 9.30183C13.6636 9.58342 13.8063 9.81241 13.9276 10.0662C13.9871 10.1938 14.0458 10.3524 14.1229 10.538C14.2748 10.8962 14.3808 11.1329 14.4899 11.4896C14.5464 11.6652 14.6776 11.871 14.7654 12.0373C14.8295 12.1649 14.9172 12.3405 14.9683 12.4751C15.0736 12.7536 15.2415 13.1049 15.2972 13.4042C15.3621 13.7454 15.5253 14.0912 15.5994 14.4223C15.6955 14.8408 15.7939 15.2671 15.8702 15.6987C15.9465 16.1312 16.0572 16.5574 16.132 16.9791C16.1617 17.1562 16.1785 17.4107 16.2044 17.6212C16.235 17.8362 16.2105 18.0536 16.2327 18.2779C16.2533 18.5325 16.3319 18.8682 16.3631 19.0864C16.3998 19.3795 16.4562 19.781 16.4715 20.0936C16.4936 20.3868 16.4768 20.8185 16.4684 21.1178C16.4448 21.7599 16.4585 22.4082 16.1564 22.9961C16.0503 23.2089 15.961 23.4704 15.8451 23.6661C15.771 23.7837 15.6741 23.9129 15.5742 24.0243C15.4307 24.1828 15.2049 24.3755 15.0492 24.4915C14.9493 24.5743 14.873 24.6346 14.7448 24.6826C14.4579 24.7886 14.1542 24.8907 13.8452 24.9278C13.485 24.9874 13.2141 24.9967 12.8761 24.9835C12.5526 24.9858 12.3405 24.9711 12.0177 24.8327C11.7568 24.7282 11.5454 24.6099 11.302 24.5101C11.183 24.4613 10.9365 24.3793 10.8175 24.3306C10.5787 24.2416 10.4459 24.1496 10.2071 23.9817C9.90644 23.779 9.64015 23.6491 9.37385 23.4247C9.00226 23.1029 8.60472 22.7409 8.2606 22.3711C8.03093 22.1351 7.70664 21.9077 7.49452 21.6725C7.34802 21.4984 7.21755 21.2169 7.07181 21.0366C6.9192 20.827 6.79025 20.6413 6.62391 20.3984C6.51098 20.2344 6.41561 20.0913 6.33091 19.9667C6.20272 19.7834 6.11269 19.5118 6.00434 19.289C5.88912 19.0515 5.77161 18.8102 5.67318 18.582C5.62969 18.4752 5.49006 18.4528 5.37789 18.4853C5.25657 18.5201 5.16425 18.6276 5.19782 18.7506C5.25047 18.9401 5.30846 19.1227 5.37408 19.2867C5.52745 19.6341 5.56712 19.9644 5.75712 20.3164C5.85326 20.4951 6.0196 20.6088 6.0959 20.7434C6.21493 20.9469 6.26529 21.2726 6.41332 21.4961C6.5644 21.7104 6.76889 21.9394 6.92607 22.1506C7.15955 22.4461 7.34802 22.737 7.5899 23.0093C7.83025 23.2816 8.09655 23.5539 8.37276 23.7937C8.55894 23.9608 8.81303 24.1341 9.03202 24.295C9.24261 24.4567 9.46999 24.6509 9.6699 24.7901C9.82632 24.9031 10.098 25.0485 10.3208 25.1382C10.3826 25.1638 10.3719 25.1893 10.4337 25.2148C10.6672 25.31 10.9655 25.4175 11.1998 25.5011C11.5866 25.6334 11.814 25.7533 12.223 25.8825C12.7815 26.0302 13.424 26.0263 13.9711 25.942C14.2488 25.9111 14.5456 25.7974 14.8134 25.7138C15.1133 25.6287 15.4246 25.4995 15.6741 25.2906C15.9954 25.0268 16.2311 24.7677 16.4936 24.4637C16.7492 24.1681 16.927 23.7945 17.0911 23.4495C17.2727 23.1099 17.3795 22.7184 17.439 22.3262C17.4978 21.9371 17.5161 21.5325 17.526 21.1534C17.5268 20.9515 17.555 20.5245 17.5397 20.3241C17.5313 20.082 17.452 19.7532 17.4375 19.5111C17.4283 19.3339 17.4276 19.1451 17.3986 18.9355C17.3543 18.6284 17.3024 18.4365 17.2773 18.1658C17.2574 17.9128 17.2704 17.6297 17.2383 17.3697C17.2223 17.0796 17.1224 16.5814 17.0651 16.2728C17.0018 15.9215 16.9354 15.5649 16.8713 15.2083C16.8072 14.8509 16.7538 14.4912 16.6729 14.1446C16.6172 13.8723 16.4669 13.5969 16.3754 13.3532C16.2998 13.1157 16.2884 12.807 16.18 12.5633C16.077 12.3111 16.0625 12.3173 15.9626 12.0644C15.9481 12.0272 15.9649 12.0187 15.9488 11.9824C15.8885 11.8478 15.7428 11.6938 15.6711 11.5631C15.5513 11.3356 15.4986 11.1128 15.4002 10.8661C15.3033 10.617 15.1934 10.3323 15.1019 10.1141C15.0286 9.94005 14.9126 9.67548 14.7997 9.46816C14.7074 9.29332 14.6273 9.11075 14.5647 8.93824C14.4846 8.6992 14.3938 8.41528 14.287 8.1716C14.2335 8.04628 14.1748 7.92482 14.1748 7.92482C14.0367 7.63472 14.1038 7.23554 13.9558 6.88974C13.9047 6.76751 13.8673 6.78376 13.8177 6.66153C13.7231 6.43331 13.7353 6.24223 13.6956 5.98849C13.6857 5.91191 13.6743 5.82062 13.6521 5.73475C13.9116 5.70226 14.1565 5.62335 14.4136 5.59396C14.8959 5.54135 15.459 5.42376 15.9435 5.35414C16.3128 5.30695 16.7202 5.2497 17.0812 5.2118C17.265 5.19246 17.2635 5.1824 17.4474 5.15996C17.7137 5.12128 17.9159 5.16615 18.2097 5.14913C18.4996 5.13289 18.7629 5.04625 19.0086 4.99983C19.1589 4.97275 19.3679 4.95264 19.5427 4.93794C19.809 4.9186 20.0722 4.84279 20.3232 4.80952C20.5087 4.78709 20.7338 4.74377 20.9024 4.71746V4.71901Z" fill="black"/>
<path d="M30.6988 17.5863C30.6827 17.3457 30.6324 17.0092 30.611 16.856C30.5866 16.6951 30.5973 16.3733 30.5591 16.1412C30.524 15.8836 30.3478 15.6276 30.2737 15.4048C30.2051 15.182 30.1883 14.9058 30.0899 14.6722C29.9937 14.4362 29.8503 14.1763 29.7488 13.9914C29.587 13.6711 29.3162 13.2557 29.0689 12.978C28.7981 12.6562 28.5508 12.3235 28.2189 12.0659C27.829 11.799 27.6245 11.6466 27.2209 11.4052C26.8211 11.1948 26.4647 11.1515 26.068 11.013C25.8856 10.9542 25.6811 10.9156 25.4919 10.8746C25.3118 10.8366 25.1012 10.8165 24.8433 10.8142C24.3679 10.8289 24.0894 10.8691 23.653 10.9225C23.0105 11.0432 22.3909 11.5236 22.0491 12.076C21.8202 12.4542 22.3482 12.8658 22.6519 12.5386C22.9213 12.2446 23.2417 12.0319 23.6103 11.9135C23.8346 11.8593 24.1154 11.8864 24.3565 11.8485C24.548 11.8214 24.7006 11.765 24.8181 11.7735C24.9539 11.7766 25.2241 11.8501 25.4095 11.8918C25.617 11.9413 25.8192 12.0048 26.0245 12.076C26.2572 12.1549 26.5319 12.25 26.715 12.3552C26.9485 12.4976 27.3399 12.7985 27.5597 12.954C27.813 13.1575 28.0312 13.4174 28.2372 13.6673C28.4761 13.9581 28.5981 14.1763 28.7775 14.5252C28.9117 14.7843 29.03 14.9437 29.1086 15.1858C29.1582 15.3545 29.1475 15.5502 29.2032 15.7413C29.2681 15.9625 29.3543 16.1265 29.3886 16.3284C29.4184 16.5427 29.4527 16.7152 29.4901 17.01C29.5336 17.3504 29.6107 17.4935 29.6076 17.7534C29.5992 17.9267 29.5458 18.1255 29.5443 18.3267C29.5412 18.6021 29.5847 18.8403 29.5412 19.0956C29.5031 19.3285 29.4756 19.6689 29.4497 19.9419C29.3879 20.3612 29.3123 20.8973 29.2414 21.3128C29.2276 21.3917 29.1941 21.6299 29.1773 21.7034C29.1056 21.9982 29.0972 22.2805 28.9835 22.5211C28.8828 22.7346 28.7225 22.9861 28.6081 23.2112C28.46 23.4765 28.3784 23.5353 28.0549 23.6692C27.7268 23.8069 27.6047 23.8711 27.2903 23.8247C27.1148 23.8014 26.8691 23.7829 26.6929 23.7782C26.2877 23.7728 26.1786 23.721 25.7948 23.5802C25.5583 23.4881 25.2424 23.4556 25.0096 23.3651C24.9028 23.3249 24.6976 23.1532 24.5877 23.0959C24.3054 22.9397 23.9551 22.8677 23.6919 22.7269C23.4454 22.5869 23.2234 22.3177 22.9747 22.1583C22.8694 22.0848 22.7915 22.0345 22.7061 21.9556C22.5497 21.8102 22.3696 21.6532 22.2399 21.5085C22.1208 21.3855 21.9598 21.0946 21.8461 20.9089C21.7531 20.7519 21.6974 20.5987 21.6386 20.4401C21.5966 20.3086 21.4547 19.8793 21.4112 19.7416C21.209 19.0933 21.1678 18.4435 21.1808 17.7643C21.1877 17.5175 21.1777 17.1918 21.206 16.9156C21.267 16.5652 21.2922 16.1629 21.3288 15.8194C21.3693 15.5603 21.4463 15.3467 21.5219 15.0713C21.6905 14.3913 21.9675 13.7384 22.365 13.1691C22.5443 12.9192 22.2734 12.6244 22.0148 12.797C21.6844 13.0368 21.4051 13.3323 21.1755 13.6703C20.9458 14.0084 20.7245 14.365 20.5818 14.7433C20.4353 15.093 20.2888 15.5471 20.2545 15.9401C20.2087 16.323 20.1004 16.6673 20.0607 17.0494C20.0057 17.4099 20.0012 17.7983 20.0057 18.1828C20.0103 18.5673 20.0775 18.944 20.1316 19.3076C20.2056 19.7748 20.3552 20.1763 20.4895 20.615C20.5109 20.6854 20.5154 20.6846 20.5368 20.755C20.6421 21.1132 20.8367 21.4064 21.0076 21.7235C21.0976 21.8883 21.1999 22.1034 21.3784 22.303C21.5219 22.4639 21.6447 22.6279 21.7828 22.7594C21.9278 22.9017 22.1361 23.0263 22.2963 23.1361C22.5275 23.2909 22.7259 23.5431 22.9632 23.6947C23.2913 23.9082 23.7163 23.9647 24.0421 24.1387C24.2161 24.2269 24.371 24.4149 24.5633 24.4845C24.7525 24.5619 24.9791 24.5781 25.1691 24.6307C25.4522 24.7097 25.6277 24.804 25.9634 24.9007C26.1832 24.9649 26.4289 25.0075 26.6402 25.0168C26.9378 25.0199 27.2056 25.057 27.5169 25.0423C27.8618 25.0408 28.2617 24.8651 28.5127 24.7522C28.679 24.6787 28.9125 24.5952 29.1399 24.411C29.4199 24.1882 29.5748 23.8355 29.7343 23.5346C29.8831 23.2715 30.125 22.9899 30.2051 22.682C30.3325 22.1854 30.3386 21.7692 30.4111 21.2857C30.4378 21.0613 30.5294 20.5894 30.5561 20.362C30.5729 20.222 30.6232 19.9868 30.6324 19.8468C30.6461 19.6263 30.6347 19.3439 30.6644 19.0863C30.6827 18.9177 30.7201 18.7235 30.7117 18.5742C30.6759 18.23 30.7178 17.9383 30.6942 17.5817L30.6988 17.5863Z" fill="black"/>
<path d="M40.3405 18.8681C40.2749 18.7049 40.2573 18.4836 40.1703 18.3398C39.9781 18.0141 39.7118 17.6095 39.4996 17.2946C39.4005 17.1507 39.2601 16.9349 39.1609 16.7918C39.0266 16.593 38.8641 16.2634 38.6672 16.0507C38.5443 15.9075 38.4406 15.7807 38.3322 15.6499C38.1911 15.4751 38.0873 15.3165 37.9202 15.1216C37.6257 14.7812 37.2907 14.4091 37.0015 14.0579C36.9115 13.9457 36.7726 13.7794 36.6734 13.6687C36.4659 13.4459 36.369 13.2641 36.2179 12.9756C36.0714 12.7164 35.963 12.4526 35.8608 12.1757C35.7494 11.8825 35.6357 11.6187 35.6326 11.3278C35.6296 11.1236 35.8036 10.9263 35.8776 10.7314C35.9676 10.5271 36.0134 10.4119 36.1362 10.2765C36.3461 10.073 36.6467 9.91986 36.9222 9.84405C37.1633 9.78216 37.4296 9.81156 37.6791 9.85024C37.9561 9.88505 38.2284 9.96318 38.4818 10.0723C38.6161 10.1311 38.7092 10.2332 38.8091 10.3005C38.9884 10.4142 39.2021 10.6215 39.3646 10.7801C39.7125 11.1306 40.0414 11.5274 40.4313 11.8415C40.4717 11.8779 40.5404 11.8748 40.5976 11.8624C40.6923 11.8415 40.7426 11.7525 40.7228 11.6566C40.6862 11.4833 40.6388 11.3154 40.5709 11.1638C40.4 10.7817 40.1589 10.4444 39.8735 10.1311C39.695 9.9276 39.5447 9.73575 39.3066 9.56323C38.9968 9.34894 38.6962 9.20583 38.3605 9.07199C37.8286 8.89793 37.2754 8.78035 36.7161 8.88942C36.2324 9.00547 35.8181 9.236 35.4495 9.57406C35.1687 9.84328 35.0085 10.2007 34.8536 10.5202C34.7597 10.7144 34.6956 10.9402 34.6743 11.1762C34.6338 11.6419 34.6949 12.1386 34.8452 12.554C35.0367 13.1009 35.2725 13.5821 35.5869 14.0811C35.7067 14.2536 35.8371 14.4485 35.9691 14.6056C36.3003 15.0225 36.7306 15.4565 37.0786 15.8627C37.193 15.9965 37.3258 16.2301 37.4547 16.3895C37.5715 16.5342 37.7256 16.661 37.8363 16.7879C37.9911 16.9689 38.0583 17.2335 38.2277 17.4694C38.2628 17.5182 38.2475 17.5282 38.2811 17.5785C38.3994 17.7565 38.6077 17.946 38.7183 18.127C38.8045 18.2655 38.9541 18.6136 39.0319 18.7505C39.1479 18.9377 39.2524 19.0971 39.3318 19.3106C39.4798 19.6309 39.6065 19.955 39.6736 20.2939C39.7408 20.6343 39.7431 20.9762 39.6957 21.3297C39.6172 21.7312 39.5485 22.0206 39.2677 22.3501C39.1418 22.5017 39.0258 22.7663 38.8961 22.9156C38.7542 23.0726 38.5321 23.1577 38.3284 23.2947C38.1468 23.4099 37.9393 23.485 37.7439 23.5778C37.4334 23.7318 37.2426 23.8633 36.8993 23.9097C36.6627 23.9437 36.4033 24.028 36.1698 24.0226C35.9981 24.018 35.8272 24.0358 35.6395 24.0025C35.3465 23.9491 35.0833 23.9081 34.8231 23.7867C34.5934 23.6714 34.305 23.4262 34.0952 23.2815C33.9235 23.1632 33.8579 23.0146 33.7503 22.8321C33.6587 22.6665 33.4359 22.4259 33.3863 22.2944C33.3207 22.1219 33.3138 21.879 33.3016 21.6686C33.2932 21.5301 33.3039 21.3351 33.2963 21.2152C33.2978 21.0984 33.3688 21.0334 33.4267 20.9158C33.5214 20.748 33.664 20.4811 33.4405 20.3434C33.3283 20.2792 33.165 20.338 33.1017 20.4517C33.0666 20.5151 33.0445 20.5855 33.0025 20.6451C32.8964 20.7874 32.7263 20.9777 32.7187 21.1781C32.7057 21.4481 32.7515 21.6624 32.7354 21.9215C32.7309 22.0902 32.711 22.2874 32.7667 22.4901C32.8522 22.7694 33.0132 22.8816 33.117 23.0719C33.2184 23.2637 33.2635 23.4943 33.413 23.6683C33.5893 23.8787 33.8479 24.0157 34.0448 24.165C34.2394 24.312 34.482 24.4961 34.7254 24.5936C34.9604 24.6949 35.2412 24.7328 35.4732 24.7924C35.7151 24.8535 35.9936 24.9657 36.2591 24.9718C36.5162 24.9834 36.7795 24.9479 37.0313 24.9324C37.1976 24.9169 37.3807 24.8543 37.5806 24.7931C37.8187 24.7189 37.985 24.6338 38.1804 24.5502C38.452 24.4396 38.7191 24.3112 38.9724 24.1572C39.1815 24.0404 39.4859 23.871 39.6729 23.6598C39.7965 23.5322 39.9353 23.3906 40.0361 23.2575C40.2009 23.0347 40.3634 22.897 40.5183 22.5868C40.603 22.4074 40.6709 22.2271 40.7228 22.0523C40.8594 21.6059 40.8655 21.1363 40.8388 20.6783C40.812 20.2204 40.7052 19.7717 40.5496 19.3369C40.4855 19.1613 40.4008 19.0143 40.3413 18.872L40.3405 18.8681Z" fill="black"/>
<path d="M51.2953 23.7411C51.0267 23.8069 50.7489 23.8649 50.4804 23.9291C50.0737 24.0297 49.6433 24.1357 49.2305 24.1086C49.0527 24.0838 48.8261 24.0281 48.6316 24.0328C48.421 24.0335 48.2394 24.0691 48.1051 24.0552C47.8968 24.0351 47.5847 23.868 47.3451 23.8223C47.0147 23.7597 46.7011 23.6877 46.4028 23.5237C46.0396 23.359 45.5558 23.1431 45.2689 22.9242C45.0545 22.7316 44.9179 22.4469 44.7851 22.1839C44.6592 21.8953 44.5021 21.5093 44.4242 21.2215C44.3983 21.0884 44.3212 20.6668 44.2945 20.5369C44.2518 20.2761 44.2724 19.9984 44.2281 19.7277C44.1976 19.5335 44.1389 19.3354 44.1259 19.1506C44.1045 18.8976 44.1419 18.6222 44.1442 18.3445C44.2022 18.3468 44.2304 18.3731 44.2831 18.37C44.5105 18.3669 44.8202 18.2772 44.9927 18.2516C45.2262 18.2191 45.5734 18.2431 45.8358 18.2114C46.2563 18.1851 46.7728 18.1263 47.1902 18.0722C47.3687 18.0536 47.7495 18.0435 47.9242 18.025C48.1302 18.001 48.3736 17.9352 48.5522 17.9012C48.8368 17.847 49.1306 17.8803 49.4213 17.83C49.5602 17.8107 49.9455 17.7704 50.0782 17.7527C50.2995 17.7264 50.5246 17.7031 50.7543 17.6683C51.238 17.5794 51.1442 16.8646 50.6566 16.9017C50.3873 16.928 50.047 16.9009 49.7692 16.9303C49.6815 16.9388 49.3022 17.0139 49.2191 17.0216C48.9604 17.0371 48.6743 16.9698 48.4126 17.0123C48.1898 17.0433 48.0295 17.0734 47.8327 17.0889C47.6617 17.0974 47.294 17.1214 47.1192 17.1299C46.7148 17.1624 46.2158 17.2274 45.8099 17.2328C45.6756 17.2398 45.5634 17.1755 45.4215 17.1609C45.2712 17.1454 45.0881 17.1423 44.8767 17.1609C44.6814 17.1794 44.5288 17.2235 44.4105 17.2374C44.3128 17.249 44.203 17.2699 44.116 17.2622C44.1183 17.1601 44.1679 17.0371 44.1557 16.9388C44.1381 16.7493 44.0412 16.5536 44.0458 16.3749C44.0488 16.1791 44.1175 15.9943 44.1335 15.773C44.1511 15.5425 44.0954 15.3328 44.0954 15.1611C44.0939 14.9615 44.1633 14.7008 44.1717 14.4726C44.1778 14.2328 44.1625 13.9264 44.1648 13.6874C44.1717 13.4739 44.1724 13.2673 44.1732 13.0352C44.1732 12.9656 44.2022 12.8921 44.1991 12.8233C44.2693 12.8155 44.3441 12.8209 44.4097 12.8093C44.6631 12.7707 44.9263 12.667 45.1384 12.619C45.394 12.561 45.6649 12.4651 45.9152 12.3831C46.1883 12.3042 46.534 12.24 46.811 12.1324C47.2428 11.9537 47.677 11.9499 48.1127 11.7781C48.2432 11.7333 48.6171 11.5723 48.7391 11.5298C48.8956 11.4772 49.1252 11.3913 49.2794 11.3364C49.7227 11.1577 50.2118 10.9643 50.6475 10.7701C50.958 10.6247 50.7863 10.1613 50.462 10.2541C50.0515 10.3771 49.5861 10.5048 49.1695 10.6177C48.9772 10.6726 48.7239 10.7585 48.5293 10.8042C48.3309 10.8537 47.9525 10.9101 47.7525 10.9573C47.3695 11.0448 46.9193 11.1368 46.5447 11.2567C46.2151 11.3488 45.8953 11.3093 45.552 11.3882C45.3345 11.4346 45.0804 11.5259 44.8622 11.5669C44.6234 11.618 44.4303 11.6721 44.2342 11.7093C43.9985 11.7456 43.794 11.7565 43.5353 11.7843C43.2232 11.816 43.0187 12.0883 43.0683 12.4024C43.0981 12.5927 43.0897 12.7799 43.0912 12.9679C43.0912 13.1783 43.0355 13.4151 43.0287 13.6402C43.0218 13.8181 43.0638 14.1098 43.0577 14.2869C43.0516 14.5832 42.9516 14.8277 42.9463 15.1472C42.9539 15.6028 42.8944 15.8976 42.8753 16.3416C42.857 16.7037 42.9882 17.0324 42.9524 17.3813C42.9356 17.5523 42.9653 17.8037 42.963 17.9909C42.96 18.3375 42.947 18.8272 42.9829 19.1629C43.0065 19.5575 43.06 19.9172 43.0836 20.3086C43.0981 20.4525 43.15 20.6235 43.1813 20.7751C43.2728 21.2122 43.3942 21.7096 43.5719 22.1042C43.807 22.7114 44.1206 23.3381 44.644 23.7488C45.1102 24.0769 45.4948 24.2656 45.9854 24.4683C46.3524 24.6393 46.7774 24.7313 47.1788 24.7808C47.4863 24.8211 47.7106 24.8961 48.0623 24.9116C48.3317 24.9154 48.5186 24.9309 48.717 24.9193C48.8727 24.9131 48.9986 24.9069 49.1733 24.9131C49.3969 24.9232 49.6059 24.8915 49.8165 24.8551C50.3957 24.7561 50.9473 24.5495 51.4868 24.3275C51.8141 24.1836 51.6402 23.663 51.296 23.7419L51.2953 23.7411Z" fill="black"/>
<path d="M52.0964 0.664529C51.8896 0.754267 51.6035 0.857156 51.3731 0.991763C51.2968 1.03276 51.0404 1.18207 50.9656 1.22307C50.6863 1.3716 50.4277 1.57274 50.1629 1.73984C49.8127 1.94794 49.4449 2.19317 49.1153 2.4268C48.878 2.58538 48.5751 2.63412 48.3332 2.80663C48.3256 2.81205 47.7823 3.18493 47.751 3.20659C47.5198 3.36053 47.1902 3.55858 46.959 3.75275C46.8789 3.81618 46.6553 3.98251 46.579 4.04517C46.376 4.2115 46.2112 4.44048 46.0258 4.60835C45.6565 4.91702 45.3009 5.24658 44.9896 5.61481C44.6791 5.9815 44.3876 6.37449 44.1556 6.80229C44.0679 6.9779 44.2815 7.17052 44.4547 7.08233C45.0323 6.82627 45.5306 6.41704 46.0067 6.00238C46.2227 5.79661 46.4813 5.63106 46.7186 5.43843C46.9277 5.26901 47.1009 5.08412 47.297 4.91857C47.3718 4.85823 47.767 4.46678 47.8479 4.39793C48.1043 4.20221 48.5659 3.86724 48.8353 3.64677C49.0634 3.4495 49.3656 3.3234 49.6059 3.12613C49.9264 2.85769 50.2484 2.59853 50.5795 2.34557C50.8184 2.15913 51.0709 1.96495 51.3143 1.78625C51.5585 1.59981 51.5608 1.60291 51.8057 1.41647C51.9537 1.31049 52.1376 1.19986 52.3246 1.06139C52.4062 1.00027 52.468 0.881911 52.426 0.783664C52.3764 0.667624 52.2093 0.611151 52.0964 0.664529Z" fill="black"/>
<path d="M79.9795 23.1887C79.7734 23.2529 79.5507 23.4022 79.3591 23.4695C78.9868 23.5492 78.6243 23.6126 78.2413 23.7C77.7827 23.8029 77.4073 24.042 76.9411 24.0977C76.5878 24.1627 76.1552 24.2578 75.8034 24.3328C75.2815 24.4203 74.7337 24.5471 74.2163 24.6477C74.1339 24.6632 73.9546 24.7127 73.8722 24.7274C73.6441 24.7754 73.4289 24.862 73.2336 24.8852C73.158 24.8968 72.9619 24.9548 72.8856 24.9688C72.5079 25.05 72.1859 24.9997 71.7945 25.026C71.4496 25.0214 71.0384 24.9881 70.6217 24.9657C70.225 24.9448 69.8274 24.8945 69.4734 24.7715C69.0919 24.6384 68.7645 24.435 68.5578 24.0822C68.4532 23.8888 68.4517 23.731 68.4006 23.461C68.3548 23.1926 68.3418 23.0541 68.335 22.8429C68.3395 22.6363 68.3357 22.4592 68.3632 22.2039C68.3884 21.9749 68.3945 21.9749 68.4219 21.7459C68.4952 21.1649 68.4982 20.5871 68.618 20.02C68.6554 19.7988 68.7088 19.5791 68.7615 19.3864C68.8225 19.1768 68.8767 18.9517 68.9202 18.7304C68.966 18.496 69.0568 18.1084 69.1056 17.8771C69.2025 17.471 69.3307 17.0006 69.3956 16.5852C69.4307 16.35 69.378 16.0182 69.4299 15.8054C69.5482 15.3691 69.7168 14.8431 69.7702 14.3774C69.8015 14.03 69.8236 13.7709 69.8679 13.4382C69.9121 12.9872 69.993 12.4944 70.0212 12.0419C70.0319 11.8789 70.0418 11.7157 70.051 11.5522C70.0663 11.2048 70.0396 10.9696 70.0808 10.6478C70.0892 10.5689 70.0418 10.3461 70.0457 10.2703C70.0602 9.93069 70.1571 9.56014 70.1593 9.20738C70.1738 8.92811 70.1685 8.47942 70.1471 8.22258C70.1311 7.90154 70.138 7.62923 70.1273 7.29426C70.0731 6.54386 69.0179 6.59492 69.0202 7.33139C69.0293 7.62072 69.0224 7.97348 69.0423 8.27519C69.0644 8.53434 69.0911 8.92733 69.0797 9.16251C69.0789 9.50986 69.0163 9.84173 69.0034 10.2007C68.9919 10.3918 68.9637 10.589 68.9538 10.7848C68.9377 11.0122 68.9362 11.2969 68.9263 11.4926C68.9133 11.7154 68.8912 11.7138 68.8782 11.9366C68.8447 12.5555 68.76 13.203 68.7249 13.8266C68.7149 14.0671 68.7241 14.2466 68.6867 14.4609C68.6524 14.6628 68.5944 14.9026 68.5478 15.1038C68.4677 15.3776 68.3655 15.8186 68.3579 16.1095C68.3525 16.2216 68.3456 16.2209 68.3357 16.3323C68.3304 16.381 68.3533 16.497 68.3434 16.545C68.3037 16.8111 68.2091 17.167 68.1541 17.4269C68.0923 17.6953 68.0122 18.0876 67.9641 18.3591C67.958 18.397 67.9802 18.4983 67.974 18.5355C67.9389 18.7149 67.8611 18.9416 67.8146 19.1242C67.7497 19.3756 67.6887 19.6263 67.6543 19.8583C67.5742 20.283 67.5086 20.7557 67.488 21.1789C67.4659 21.4411 67.4506 21.8318 67.4247 22.0979C67.4048 22.3052 67.2828 22.6015 67.2904 22.8553C67.2873 23.1036 67.4437 23.4285 67.4781 23.6188C67.5155 23.8331 67.501 24.1874 67.6231 24.4365C67.8321 24.8829 68.1587 25.2395 68.557 25.4739C68.9553 25.7075 69.4322 25.8244 69.8892 25.8893C70.5309 25.993 71.1772 25.9489 71.8273 25.9466C72.0669 25.9272 72.2531 25.9187 72.5232 25.9064C72.8475 25.8886 73.1962 25.7872 73.5052 25.7323C73.7341 25.6766 73.8821 25.6186 74.066 25.5698C74.1393 25.5536 74.3316 25.5544 74.4086 25.5381C74.8359 25.4445 75.3128 25.2604 75.7378 25.1645C75.8118 25.1459 76.0362 25.1475 76.1041 25.1258C76.188 25.1003 76.5611 24.985 76.6565 24.9571C76.9747 24.8659 77.2448 24.8133 77.5706 24.7019C77.7385 24.6423 77.8949 24.5951 78.0284 24.5363C78.3123 24.4079 78.5931 24.3847 78.8944 24.2733C79.0341 24.2207 79.1684 24.1704 79.3111 24.1263C79.4545 24.0876 79.6819 24.0095 79.8047 23.9321C79.9383 23.8571 80.0474 23.7774 80.1824 23.7178C80.5143 23.5592 80.3175 23.0773 79.9795 23.1864V23.1887Z" fill="black"/>
<path d="M93.9185 22.2341C93.8956 22.0476 93.8705 21.824 93.8453 21.6206C93.8308 21.4775 93.7972 21.1108 93.7751 20.9754C93.7392 20.7387 93.6377 20.3867 93.579 20.1546C93.4615 19.5938 93.3218 19.0043 93.1647 18.4318C93.3707 18.3916 93.5469 18.3158 93.7575 18.2871C94.1863 18.2129 94.1184 17.5963 93.6873 17.6203C93.524 17.6342 93.3524 17.6389 93.186 17.6628C93.1257 17.6714 93.1334 17.7278 93.0731 17.7363C93.0533 17.7394 93.0273 17.7038 93.0243 17.7031C92.9983 17.7038 92.964 17.7263 92.9365 17.7255C92.8121 17.3936 92.7961 17.1113 92.7267 16.7624C92.6923 16.6208 92.5405 16.3083 92.5046 16.1621C92.4741 16.039 92.4428 15.8627 92.4001 15.7404C92.3162 15.5022 92.1888 15.1664 92.0857 14.9382C92.0476 14.8431 92.0163 14.6698 91.9873 14.5731C91.9148 14.348 91.8317 14.1004 91.7462 13.8683C91.6844 13.7005 91.6249 13.4831 91.5661 13.3523C91.3693 12.8356 91.1594 12.267 90.8413 11.7904C90.6459 11.5081 90.475 11.1777 90.1316 11.0377C89.7265 10.8807 89.2526 11.0787 88.9688 11.3735C88.8002 11.5375 88.6788 11.8647 88.5583 12.0519C88.4446 12.2391 88.3355 12.4317 88.2386 12.6298C87.9822 13.1419 87.6724 13.7979 87.429 14.3155C87.2352 14.7433 86.8995 15.3707 86.6973 15.7892C86.6683 15.8549 86.6866 15.9772 86.6637 16.0452C86.5912 16.2294 86.5126 16.4723 86.4531 16.6162C86.3814 16.7995 86.2219 17.0455 86.0968 17.348C85.9968 17.5863 85.9091 17.8114 85.8206 18.0458C85.7771 18.1665 85.7793 18.3049 85.7435 18.4171C85.6107 18.5277 85.5245 18.6817 85.5352 18.8658C85.4787 18.964 85.3856 19.0723 85.3154 19.2178C85.2002 19.4591 85.1293 19.6448 85.0591 19.8622C84.9568 20.1631 84.8431 20.4432 84.7073 20.7418C84.6165 20.939 84.6264 20.9445 84.5349 21.1417C84.457 21.3088 84.3113 21.4813 84.2289 21.643C84.1808 21.7374 84.1892 21.7413 84.1404 21.8357C84.1221 21.872 84.1099 21.9277 84.0915 21.9726C84.0129 22.1521 83.8962 22.4522 83.8138 22.6379C83.5437 23.3318 84.5196 23.7581 84.8355 23.0951C84.8385 23.0881 84.7966 23.0688 84.7996 23.061C84.882 22.8715 84.9133 22.8854 84.9965 22.6967C85.0491 22.5806 85.1125 22.4924 85.1712 22.3687C85.3597 22.0213 85.4818 21.5788 85.6512 21.2214C85.7839 20.9321 86.0052 20.6636 86.1212 20.3534C86.1967 20.1554 86.2181 19.8668 86.2974 19.7005C86.3463 19.5984 86.4294 19.4514 86.505 19.3129C86.5431 19.3067 86.5912 19.2789 86.6271 19.2727C86.8758 19.2356 87.3084 19.2271 87.5633 19.193C87.7441 19.1714 87.9059 19.1892 88.1035 19.1466C88.4301 19.0522 88.6407 18.9648 88.9787 18.9377C89.3083 18.9006 89.628 18.9076 89.9561 18.8642C90.4315 18.7938 90.4285 18.773 90.9031 18.7002C91.1495 18.6623 91.148 18.6554 91.3944 18.6159C91.5631 18.5873 91.7416 18.5386 91.8233 18.5331C91.9453 18.527 92.0522 18.5401 92.1865 18.527C92.3635 19.1118 92.523 19.692 92.6679 20.2846C92.7473 20.5886 92.8686 20.8671 92.9327 21.1673C92.9571 21.281 93.0823 21.633 93.0983 21.7359C93.1364 21.9393 93.1654 22.1258 93.2066 22.3478C93.2471 22.5628 93.2776 22.75 93.3127 22.9512C93.3341 23.0904 93.3142 23.3968 93.3356 23.5476C93.3707 23.8052 93.3806 24.028 93.3455 24.2779C93.3188 24.438 93.4401 24.5796 93.5988 24.6198C93.7659 24.6624 93.9643 24.5874 94.0063 24.4187C94.1223 23.9955 94.0536 23.5012 94.0276 23.0742C94.0215 22.8003 93.9506 22.4963 93.9185 22.2348V22.2341ZM91.5043 17.7742C91.0801 17.8361 90.2888 17.9174 89.8562 17.9638C89.213 18.0094 88.5224 17.9367 87.8937 18.1123C87.8204 18.1247 87.6449 18.134 87.4756 18.1448C87.3703 18.1518 87.1406 18.1711 86.9575 18.1827C87.0086 18.0388 87.0193 17.888 87.0704 17.7626C87.1497 17.5545 87.3435 17.3557 87.4763 17.0277C87.5732 16.7771 87.606 16.6107 87.6846 16.4026C87.8548 16.0336 87.9868 15.602 88.1707 15.1927C88.3546 14.7835 88.5713 14.3913 88.7406 14.0207C88.8879 13.6997 89.0092 13.3647 89.1679 13.0491C89.3266 12.7319 89.5365 12.448 89.7333 12.1556C89.7387 12.1486 89.6975 12.0937 89.7043 12.0875C89.7173 12.0751 89.7463 12.0844 89.757 12.0759C89.7661 12.0689 89.8005 12.0426 89.8074 12.038C89.9729 12.1966 90.1561 12.5555 90.2659 12.8178C90.3712 13.0475 90.4758 13.3051 90.5689 13.5488C90.6902 13.8807 90.826 14.16 90.9099 14.4872C90.9588 14.645 91.0618 14.8206 91.1228 14.9885C91.177 15.1308 91.2113 15.356 91.2693 15.4968C91.37 15.7768 91.5242 16.1296 91.6073 16.4173C91.6272 16.4916 91.7622 16.8382 91.7813 16.9047C91.8469 17.1445 91.8736 17.3635 91.953 17.6187C91.9667 17.6582 91.9591 17.7185 91.9728 17.758C91.8095 17.7595 91.6378 17.7487 91.5028 17.7758L91.5043 17.7742Z" fill="black"/>
<path d="M117.388 23.6026C117.4 23.3395 117.337 23.0162 117.305 22.7439C117.293 22.6247 117.319 22.3431 117.305 22.2163C117.287 22.0461 117.21 21.8473 117.181 21.6825C117.113 21.3475 117.199 20.9398 117.079 20.5994C117.021 20.4122 116.949 20.3016 116.914 20.1492C116.876 19.9713 116.794 19.6201 116.755 19.4414C116.695 19.2263 116.588 18.8588 116.537 18.6585C116.524 18.595 116.51 18.5231 116.495 18.4473C116.513 18.4434 116.53 18.455 116.548 18.4511C116.74 18.3993 116.9 18.3119 117.093 18.2871C117.522 18.2152 117.454 17.6187 117.022 17.6443C116.814 17.6582 116.592 17.6969 116.395 17.741C116.372 17.7448 116.347 17.7417 116.324 17.7456C116.287 17.6071 116.25 17.4617 116.227 17.3727C116.173 17.1809 116.063 16.9929 115.993 16.8103C115.948 16.6881 115.857 16.3585 115.81 16.2317C115.729 16.0182 115.646 15.7072 115.591 15.4836C115.444 14.9398 115.223 14.406 115.035 13.8784C114.888 13.456 114.775 13.0143 114.595 12.6043C114.415 12.1935 114.216 11.7858 113.897 11.4578C113.546 11.0996 113.146 11.0594 112.792 11.1785C112.442 11.2969 112.155 11.6063 111.934 11.9691C111.892 12.0333 111.83 12.1107 111.807 12.171C111.687 12.4774 111.607 12.6553 111.477 12.9145C111.417 13.0429 111.305 13.3276 111.243 13.4552C111.15 13.6355 111.063 13.8041 110.963 13.9998C110.868 14.1932 110.813 14.1662 110.719 14.3596C110.556 14.693 110.417 15.11 110.276 15.4519C110.202 15.6492 110.122 15.8402 110.052 16.0058C109.979 16.1767 109.869 16.5079 109.794 16.6811C109.687 16.9279 109.55 17.16 109.453 17.4223C109.363 17.6543 109.187 17.9847 109.107 18.2175C109.083 18.3018 109.07 18.39 109.044 18.4658C108.932 18.5726 108.819 18.708 108.824 18.872C108.762 19.0043 108.748 19.1543 108.671 19.3013C108.57 19.5001 108.495 19.7307 108.427 19.9403C108.39 20.0533 108.242 20.3472 108.19 20.4664C108.041 20.7928 107.762 21.4179 107.599 21.725C107.55 21.8179 107.494 21.9749 107.454 22.0917C107.382 22.3122 107.312 22.5226 107.216 22.7377C106.956 23.4362 107.952 23.854 108.259 23.1856C108.342 22.993 108.423 22.7446 108.474 22.5327C108.487 22.4909 108.461 22.4545 108.48 22.4182C108.713 22.0051 109.038 21.3599 109.233 20.9197C109.34 20.6776 109.473 20.3527 109.543 20.0966C109.616 19.8436 109.711 19.668 109.832 19.4228C109.837 19.4135 109.833 19.4189 109.838 19.4089C109.959 19.405 110.078 19.371 110.198 19.3555C110.602 19.2944 110.985 19.2758 111.393 19.2162C111.697 19.1837 112.064 19.0986 112.389 19.0159C112.435 19.0043 112.642 18.9981 112.685 18.9934C113.047 18.9934 113.452 18.9702 113.811 18.8882C114.096 18.8256 114.437 18.7281 114.737 18.6871C114.905 18.6592 115.081 18.6229 115.175 18.6144C115.288 18.6074 115.459 18.5857 115.597 18.5765C115.62 18.6902 115.635 18.8263 115.644 18.8635C115.682 19.0282 115.742 19.1381 115.779 19.2719C115.84 19.4677 115.964 19.8583 116.011 20.0579C116.035 20.1577 116.028 20.1593 116.051 20.2591C116.096 20.4617 116.139 20.7348 116.203 20.8988C116.301 21.1526 116.34 21.3297 116.393 21.6214C116.434 21.8333 116.479 22.0298 116.523 22.2341C116.566 22.4553 116.64 22.8019 116.677 23.0247C116.723 23.2877 116.681 23.5608 116.711 23.8377C116.73 24.0211 116.77 24.2725 116.761 24.4133C116.764 24.7738 117.268 24.8388 117.363 24.4922C117.438 24.1789 117.377 23.905 117.392 23.5995L117.388 23.6026ZM115.135 17.7905C114.937 17.7982 114.8 17.8856 114.623 17.9034C114.19 17.9321 113.642 17.9978 113.199 18.0326C112.955 18.0574 112.695 18.0365 112.444 18.0868C112.227 18.1332 112.005 18.1154 111.774 18.1255C111.291 18.1347 110.76 18.2245 110.256 18.2678C110.316 18.1154 110.387 17.9746 110.432 17.8547C110.527 17.6064 110.707 17.3735 110.802 17.1167C110.876 16.9418 111.008 16.6247 111.081 16.4529C111.168 16.2464 111.233 16.0344 111.299 15.8534C111.365 15.6886 111.462 15.3676 111.531 15.1989C111.62 14.9854 111.759 14.6907 111.855 14.4771C111.941 14.307 112.069 14.1205 112.161 13.9349C112.302 13.6316 112.487 13.2626 112.611 12.9524C112.673 12.7969 112.721 12.6491 112.774 12.53C112.776 12.5261 112.764 12.5052 112.764 12.5052C112.775 12.489 112.795 12.5021 112.806 12.4859C112.886 12.3637 112.989 12.2198 113.104 12.1602C113.141 12.1865 113.243 12.2391 113.288 12.301C113.563 12.636 113.726 13.0266 113.869 13.4405C114.061 13.955 114.212 14.4802 114.406 14.9885C114.463 15.1657 114.594 15.4681 114.65 15.6437C114.727 15.9261 114.84 16.2858 114.946 16.555C115 16.6935 115.099 17.0192 115.151 17.1538C115.211 17.3062 115.281 17.4973 115.326 17.6489C115.34 17.6992 115.371 17.7673 115.389 17.8307C115.315 17.8276 115.227 17.7897 115.133 17.7905H115.135Z" fill="black"/>
<path d="M105.366 23.8494C105.249 23.6506 105.145 23.3791 104.998 23.1996C104.813 22.9497 104.557 22.6039 104.336 22.4105C104.141 22.2357 104.036 22.0856 103.842 21.8984C103.684 21.7344 103.317 21.5796 103.185 21.4837C102.94 21.3081 102.637 21.0551 102.37 20.9074C102.253 20.8378 102.068 20.7643 101.955 20.6923C101.742 20.5361 101.176 20.2552 100.812 20.1028C100.922 19.9992 100.997 19.911 101.103 19.8042C101.263 19.6395 101.743 19.1869 101.887 19.019C102.074 18.7962 102.302 18.5564 102.477 18.3081C102.693 18.0033 103.053 17.5066 103.269 17.2057C103.341 17.1044 103.43 16.9821 103.5 16.8746C103.665 16.641 103.784 16.3648 103.905 16.1273C104.081 15.8202 104.232 15.4829 104.357 15.1394C104.481 14.7967 104.552 14.4393 104.575 14.0788C104.614 13.709 104.62 13.3253 104.505 12.971C104.297 12.3939 103.774 12.0179 103.234 11.8129C103.192 11.7998 103.127 11.7209 103.085 11.7062C102.576 11.464 101.962 11.4787 101.417 11.5955C101.14 11.6582 100.847 11.7487 100.596 11.8408C100.38 11.9282 100.159 12.0566 99.9524 12.216C99.7319 12.3838 99.5823 12.6337 99.4236 12.8124C99.0894 13.1977 98.8537 13.6409 98.637 14.1005C98.5088 14.3418 98.2333 14.6443 98.1578 14.939C98.0792 15.1951 98.08 15.4937 98.0052 15.7343C97.9006 16.0909 97.7847 16.5938 97.729 16.8978C97.6794 17.1229 97.5809 17.4378 97.555 17.6908C97.5275 17.8927 97.5413 18.1062 97.5107 18.3058C97.4978 18.1859 97.4611 18.0536 97.4413 17.9414C97.41 17.7271 97.3803 17.5035 97.336 17.2807C97.2391 16.7864 97.1704 16.2588 97.0651 15.7684C97.0308 15.5966 96.9026 15.3684 96.8522 15.1974C96.7897 14.9917 96.7943 14.8021 96.7378 14.5824C96.6829 14.2985 96.4662 13.849 96.3944 13.644C96.1434 12.9416 95.1034 13.2882 95.3064 14.0014C95.3956 14.2761 95.5017 14.4764 95.5597 14.6327C95.6253 14.8021 95.6841 14.9661 95.7275 15.1603C95.7756 15.4048 95.8435 15.708 95.9 15.9509C95.9725 16.3029 96.0579 16.6889 96.1251 17.0371C96.1571 17.208 96.2525 17.4564 96.2785 17.6273C96.3021 17.8153 96.3342 18.0636 96.3639 18.2601C96.3891 18.445 96.3799 18.657 96.4066 18.8937C96.4372 19.1505 96.4616 19.3687 96.4845 19.5451C96.4967 19.6279 96.5241 19.7563 96.5348 19.8414C96.5669 20.1377 96.5989 20.4479 96.5951 20.7496C96.5859 21.0582 96.6066 21.4389 96.6287 21.7367C96.6394 22.0399 96.692 22.361 96.6951 22.6666C96.6981 22.7872 96.6592 23.0712 96.663 23.1864C96.6592 23.4201 96.6409 23.6289 96.6149 23.919C96.589 24.2184 96.8141 24.4737 97.1117 24.534C97.4306 24.599 97.7274 24.411 97.7915 24.0877C97.8457 23.8177 97.993 23.1756 98.0464 22.9095C98.1456 22.4051 98.2333 21.8434 98.2837 21.3329C98.2966 21.2207 98.3203 21.1248 98.3462 21.0103C98.405 20.772 98.3997 20.386 98.405 20.1415C98.4103 20.0796 98.4538 19.9458 98.4622 19.8831C98.5156 19.4816 98.5874 19.0538 98.6537 18.6523C98.7003 18.3638 98.7484 18.0776 98.7911 17.7898C98.8285 17.5685 98.8949 17.4107 98.9475 17.1593C99.0093 16.8522 98.9826 16.5891 99.0276 16.3764C99.065 16.1691 99.194 15.872 99.2474 15.6616C99.3115 15.4256 99.3458 15.2748 99.4542 15.0767C99.564 14.898 99.6739 14.5677 99.7746 14.3496C99.928 14.0471 100.133 13.7624 100.362 13.5133C100.525 13.3315 100.56 13.1938 100.744 13.0886C100.891 13.0035 101.205 12.8913 101.378 12.824C101.489 12.7807 101.591 12.7629 101.675 12.7436C101.87 12.7018 102.075 12.708 102.272 12.7188C102.351 12.7235 102.409 12.7188 102.491 12.749C102.557 12.773 102.676 12.8209 102.755 12.8511C102.86 12.8882 103.008 12.9045 103.09 12.9648C103.16 13.0097 103.196 13.1188 103.255 13.1776C103.349 13.2789 103.404 13.2975 103.43 13.398C103.498 13.6394 103.436 13.9032 103.408 14.1484C103.381 14.4463 103.309 14.7441 103.194 15.0311C103.114 15.2206 102.999 15.3993 102.897 15.5974C102.784 15.8148 102.716 16.0484 102.589 16.2364C102.54 16.3091 102.395 16.4429 102.341 16.518C102.254 16.6417 101.879 17.2096 101.789 17.3403C101.597 17.6436 101.35 17.9252 101.098 18.2036C100.846 18.4821 100.608 18.7715 100.359 19.0275C100.15 19.2395 99.8776 19.4221 99.651 19.6023C99.6083 19.6387 99.5739 19.7377 99.5228 19.7741C99.3496 19.7841 99.1657 19.7942 99.0467 19.9559C98.7857 20.3109 99.0498 20.7821 99.4626 20.8501C99.5526 20.8695 99.6449 20.9074 99.7349 20.8873C99.7502 20.8888 99.751 20.8873 99.7655 20.8896C100.007 21.0343 100.386 21.1395 100.644 21.2455C100.896 21.3476 101.185 21.4536 101.439 21.6106C101.71 21.7614 101.99 21.8682 102.247 22.0477C102.439 22.1769 102.419 22.2078 102.612 22.3347C102.797 22.4546 102.958 22.501 103.059 22.5614C103.236 22.6588 103.352 22.7981 103.51 22.9474C103.684 23.1129 103.842 23.2715 103.983 23.4286C104.234 23.7032 104.533 23.9902 104.74 24.2965C104.855 24.4683 105.124 24.6733 105.206 24.8087C105.46 25.1885 106.022 24.8613 105.832 24.4528C105.686 24.1619 105.497 24.0753 105.363 23.8517L105.366 23.8494Z" fill="black"/>
<path d="M158.495 23.126C158.315 23.1864 158.096 23.239 157.886 23.2885C157.781 23.3133 157.676 23.3164 157.58 23.3434C157.461 23.3775 157.345 23.3837 157.243 23.4022C157.143 23.42 157.035 23.4881 156.913 23.4943C156.815 23.4997 156.71 23.4463 156.604 23.4579C156.497 23.4695 156.4 23.5082 156.305 23.5245C156.186 23.5453 156.076 23.5863 155.984 23.5871C155.874 23.5887 155.75 23.5469 155.619 23.5306C155.536 23.5206 155.448 23.5306 155.359 23.5237C155.256 23.5152 155.159 23.5314 155.065 23.5283C154.941 23.5245 154.831 23.4564 154.738 23.4394C154.635 23.4208 154.51 23.4308 154.39 23.3914C154.303 23.3628 154.216 23.3272 154.119 23.3017C153.914 23.2452 153.72 23.1918 153.555 23.1168C153.38 23.0379 153.22 22.918 153.034 22.8011C152.966 22.7586 152.881 22.7431 152.811 22.7029C152.696 22.6371 152.579 22.5776 152.512 22.5165C152.407 22.4213 152.315 22.2325 152.219 22.0593C152.113 21.8659 151.996 21.6817 151.92 21.4837C151.861 21.3274 151.807 21.141 151.754 20.9453C151.74 20.895 151.735 20.8965 151.721 20.847C151.672 20.6652 151.662 20.4478 151.614 20.1833C151.588 20.0363 151.586 19.8785 151.566 19.7129C151.557 19.6387 151.555 19.5628 151.545 19.4878C151.53 19.3756 151.521 19.2519 151.516 19.118C151.513 19.0167 151.511 18.9107 151.503 18.8008C151.495 18.6863 151.457 18.5788 151.445 18.4721C151.43 18.3421 151.392 18.2199 151.386 18.1038C151.384 18.0497 151.418 18.0079 151.416 17.9537C151.488 17.9522 151.55 17.9599 151.624 17.9576C151.725 17.9545 151.824 17.9545 151.924 17.953C152.064 17.9507 152.2 17.8864 152.339 17.881C152.435 17.8772 152.532 17.8826 152.627 17.8818C152.768 17.8803 152.913 17.8833 153.063 17.8741C153.235 17.8632 153.408 17.8741 153.578 17.8625C153.678 17.8555 153.68 17.8934 153.78 17.8864C153.889 17.8787 154 17.8632 154.12 17.8617C154.238 17.8601 154.361 17.8717 154.486 17.864C154.646 17.8547 154.789 17.7866 154.931 17.7627C155.029 17.7456 155.121 17.717 155.207 17.7085C155.282 17.7016 155.28 17.6869 155.354 17.6799C155.539 17.6621 155.73 17.7155 155.916 17.7C155.999 17.693 156.09 17.6319 156.191 17.6335C156.328 17.635 156.485 17.6861 156.646 17.6675C156.746 17.6559 156.841 17.5948 156.942 17.5847C157.075 17.5716 157.221 17.6211 157.362 17.6033C157.516 17.5832 157.655 17.5097 157.78 17.4749C157.88 17.4478 157.973 17.4107 158.054 17.3998C158.356 17.3604 158.567 17.0889 158.528 16.7825C158.489 16.4762 158.221 16.2959 157.919 16.3346C157.763 16.3547 157.611 16.3385 157.486 16.3725C157.386 16.3996 157.299 16.463 157.22 16.4731C157.094 16.4893 156.969 16.494 156.836 16.5071C156.729 16.5179 156.617 16.4824 156.511 16.4947C156.419 16.5056 156.317 16.5133 156.203 16.5118C156.086 16.5102 155.953 16.5094 155.816 16.521C155.626 16.5373 155.436 16.545 155.247 16.5636C155.174 16.5705 155.179 16.6239 155.106 16.6309C154.98 16.6433 154.856 16.6193 154.743 16.6386C154.625 16.6587 154.518 16.6943 154.417 16.7005C154.317 16.7067 154.214 16.7384 154.104 16.74C153.974 16.7415 153.842 16.7485 153.704 16.7585C153.603 16.7655 153.601 16.7462 153.501 16.7531C153.334 16.7647 153.164 16.7562 152.995 16.7663C152.873 16.774 152.748 16.7624 152.614 16.7639C152.509 16.7655 152.404 16.8135 152.298 16.8173C152.168 16.822 152.036 16.767 151.904 16.7686C151.801 16.7701 151.698 16.8398 151.592 16.8429C151.527 16.8444 151.467 16.8049 151.404 16.8065C151.404 16.7779 151.409 16.7608 151.409 16.7315C151.411 16.593 151.401 16.4591 151.392 16.3416C151.384 16.2379 151.379 16.1412 151.381 16.0561C151.382 15.9555 151.389 15.8472 151.401 15.732C151.412 15.6252 151.436 15.5154 151.441 15.3985C151.448 15.257 151.455 15.1224 151.454 14.9924C151.454 14.8926 151.407 14.7982 151.41 14.71C151.413 14.6195 151.418 14.5174 151.433 14.413C151.45 14.2915 151.526 14.1708 151.53 14.0354C151.536 13.8846 151.511 13.7423 151.505 13.6169C151.5 13.5202 151.524 13.4297 151.526 13.3531C151.531 13.1868 151.473 13.0298 151.472 12.8928C151.472 12.8155 151.508 12.742 151.509 12.6724C151.509 12.6205 151.46 12.6198 151.46 12.5679C151.46 12.5478 151.494 12.5184 151.494 12.4983C151.572 12.4851 151.657 12.513 151.73 12.4983C151.849 12.4735 151.84 12.4287 151.958 12.4039C152.108 12.3714 152.256 12.3157 152.413 12.284C152.657 12.2345 152.902 12.1765 153.133 12.1216C153.28 12.086 153.435 12.1107 153.565 12.0674C153.666 12.0341 153.759 12.004 153.849 11.9808C154.098 11.9166 154.313 11.8315 154.524 11.7843C154.545 11.7796 154.543 11.7696 154.564 11.7642C154.792 11.7131 155.019 11.6303 155.249 11.5615C155.356 11.5298 155.466 11.5011 155.581 11.4725C155.701 11.4423 155.832 11.4377 155.956 11.3998C156.12 11.3495 156.267 11.2876 156.412 11.2358C156.492 11.2072 156.575 11.1886 156.652 11.1631C156.811 11.1105 156.943 11.1228 157.049 11.0934C157.188 11.054 157.283 10.9743 157.396 10.9232C157.491 10.8799 157.59 10.8753 157.658 10.8335C157.752 10.7747 157.828 10.702 158.015 10.6324C158.32 10.5179 158.459 10.1667 158.347 9.858C158.234 9.54933 157.916 9.4124 157.612 9.52612C157.319 9.63597 157.162 9.73809 157.043 9.81081C156.998 9.83943 156.954 9.84717 156.927 9.85954C156.893 9.87502 156.803 9.85413 156.714 9.87966C156.602 9.91137 156.463 9.9516 156.28 10.0119C156.196 10.0398 156.128 10.121 156.039 10.152C155.906 10.1992 155.756 10.2077 155.616 10.2502C155.52 10.2796 155.418 10.3129 155.307 10.3407C155.184 10.3717 155.066 10.4351 154.934 10.4746C154.743 10.5318 154.538 10.5937 154.321 10.6424C154.299 10.6471 154.296 10.6347 154.275 10.6393C154.052 10.6896 153.817 10.7445 153.556 10.8126C153.429 10.8451 153.315 10.8923 153.201 10.9302C153.088 10.9673 152.973 10.9805 152.873 11.0045C152.652 11.0571 152.414 11.0989 152.187 11.1453C152.028 11.1778 151.867 11.1863 151.713 11.2188C151.596 11.2435 151.601 11.2683 151.485 11.2923C151.296 11.3317 151.093 11.4044 150.836 11.4331C150.675 11.4508 150.519 11.4957 150.422 11.6265C150.324 11.7572 150.273 11.9297 150.299 12.0914C150.313 12.1742 150.326 12.3637 150.323 12.5494C150.323 12.6027 150.326 12.6027 150.325 12.6561C150.324 12.7312 150.293 12.8108 150.293 12.8936C150.293 13.0274 150.288 13.1651 150.283 13.3129C150.279 13.4359 150.313 13.5558 150.319 13.6711C150.324 13.7833 150.332 13.8885 150.328 13.9906C150.325 14.0664 150.333 14.1608 150.32 14.2575C150.303 14.3805 150.233 14.5166 150.228 14.6667C150.224 14.7789 150.231 14.8903 150.231 14.997C150.231 15.1162 150.294 15.2307 150.289 15.3413C150.285 15.421 150.255 15.5092 150.245 15.602C150.23 15.7335 150.172 15.8797 150.17 16.0352C150.168 16.1752 150.215 16.3052 150.224 16.4305C150.232 16.5334 150.224 16.6309 150.223 16.7183C150.223 16.7972 150.222 16.8769 150.22 16.9558C150.216 17.1036 150.208 17.2567 150.21 17.4145C150.21 17.4447 150.249 17.4439 150.25 17.4741C150.254 17.6954 150.203 17.9259 150.212 18.1541C150.219 18.3158 150.294 18.462 150.311 18.609C150.323 18.7072 150.272 18.8063 150.279 18.8952C150.285 18.9795 150.297 19.0662 150.3 19.1598C150.306 19.3168 150.354 19.4754 150.377 19.6464C150.386 19.7176 150.343 19.7965 150.352 19.8669C150.373 20.0394 150.4 20.2189 150.431 20.396C150.484 20.6977 150.557 20.936 150.616 21.1541C150.629 21.2029 150.637 21.2006 150.651 21.2493C150.709 21.4659 150.774 21.6864 150.857 21.9007C150.96 22.1699 151.06 22.4228 151.183 22.6449C151.328 22.9087 151.498 23.1856 151.732 23.3976C151.895 23.5461 152.103 23.6026 152.261 23.6923C152.316 23.724 152.36 23.779 152.414 23.813C152.629 23.9484 152.831 24.1 153.074 24.2091C153.322 24.3213 153.577 24.4133 153.805 24.476C153.871 24.4946 153.949 24.4946 154.026 24.5201C154.172 24.568 154.338 24.6261 154.521 24.6593C154.699 24.6918 154.876 24.6694 155.03 24.674C155.112 24.6764 155.188 24.7158 155.26 24.722C155.33 24.7282 155.398 24.7467 155.468 24.756C155.617 24.7746 155.79 24.7885 155.969 24.7885C155.98 24.7885 155.99 24.7924 156.001 24.7924C156.183 24.7901 156.351 24.7143 156.502 24.688C156.583 24.674 156.666 24.7042 156.737 24.6957C156.81 24.688 156.885 24.623 156.971 24.6191C157.117 24.6114 157.284 24.6392 157.455 24.6083C157.614 24.5796 157.754 24.5193 157.896 24.4791C157.982 24.4543 158.065 24.4319 158.144 24.4133C158.402 24.353 158.661 24.3244 158.866 24.2547C159.174 24.1511 159.363 23.7681 159.261 23.4556C159.158 23.1438 158.804 23.0232 158.496 23.1268L158.495 23.126Z" fill="black"/>
<path d="M184.652 23.1385C184.478 23.1973 184.287 23.2398 184.085 23.2808C184.072 23.2839 184.06 23.2267 184.046 23.2297C183.934 23.2522 183.831 23.3411 183.708 23.3589C183.607 23.3736 183.502 23.3821 183.396 23.4015C183.277 23.4231 183.159 23.4471 183.042 23.4703C182.936 23.4912 182.828 23.5059 182.723 23.5253C182.534 23.5593 182.329 23.5918 182.137 23.5941C182.089 23.5941 182.089 23.5624 182.042 23.5632C181.862 23.5663 181.686 23.6142 181.544 23.5926C181.321 23.5578 181.103 23.4711 180.891 23.4324C180.849 23.4247 180.851 23.4108 180.807 23.4023C180.609 23.3659 180.413 23.376 180.233 23.3365C180.08 23.3025 179.92 23.2081 179.708 23.1122C179.507 23.0216 179.33 22.959 179.202 22.8638C179.123 22.805 179.055 22.7045 178.968 22.6155C178.902 22.5482 178.853 22.4569 178.776 22.3873C178.753 22.3664 178.739 22.3834 178.715 22.3625C178.585 22.245 178.484 22.1243 178.414 22.0059C178.332 21.8682 178.221 21.7011 178.145 21.5015C178.137 21.4814 178.159 21.4729 178.151 21.4528C178.099 21.3143 178.054 21.1596 178.004 20.9956C177.984 20.9306 177.963 20.8648 177.942 20.7991C177.869 20.5693 177.822 20.3782 177.787 20.1794C177.753 19.9837 177.703 19.7702 177.69 19.535C177.681 19.3873 177.711 19.2387 177.697 19.0995C177.687 18.9997 177.604 18.9061 177.597 18.8055C177.585 18.6531 177.579 18.5046 177.562 18.3607C177.55 18.2655 177.545 18.1688 177.535 18.0729C177.53 18.0296 177.55 17.987 177.549 17.9399C177.623 17.9329 177.69 17.9097 177.754 17.9097C177.991 17.912 178.233 17.9491 178.491 17.9391C178.576 17.936 178.664 17.9019 178.76 17.9035C178.91 17.9074 179.062 17.895 179.23 17.8795C179.367 17.8671 179.498 17.8888 179.619 17.8664C179.731 17.8455 179.832 17.8138 179.925 17.8076C180.028 17.8006 180.137 17.7596 180.253 17.7604C180.375 17.7604 180.499 17.7619 180.631 17.7534C180.721 17.748 180.817 17.7666 180.917 17.765C181.06 17.7627 181.209 17.7805 181.364 17.765C181.509 17.7511 181.643 17.6954 181.765 17.6706C181.871 17.649 181.977 17.666 182.067 17.6575C182.159 17.649 182.249 17.6188 182.341 17.6126C182.485 17.6026 182.632 17.5732 182.785 17.5554C182.862 17.5461 182.942 17.5647 183.018 17.5561C183.179 17.5391 183.342 17.4989 183.512 17.4726C183.635 17.4533 183.762 17.4842 183.874 17.4594C183.992 17.4331 184.095 17.3581 184.199 17.3442C184.501 17.3047 184.733 17.0355 184.694 16.7292C184.655 16.4228 184.357 16.1815 184.056 16.2217C183.904 16.2418 183.772 16.3223 183.636 16.3524C183.536 16.3749 183.431 16.3385 183.341 16.3524C183.2 16.3749 183.057 16.4004 182.903 16.4166C182.821 16.4251 182.741 16.4468 182.659 16.4561C182.531 16.4708 182.403 16.5141 182.265 16.5242C182.165 16.5311 182.062 16.4893 181.962 16.4986C181.814 16.5126 181.682 16.5961 181.558 16.6209C181.453 16.6425 181.345 16.5969 181.256 16.6062C181.144 16.617 181.027 16.6766 180.9 16.6781C180.792 16.6797 180.682 16.6719 180.566 16.6797C180.469 16.6858 180.364 16.6673 180.254 16.6673C180.125 16.6673 179.994 16.7098 179.853 16.7191C179.698 16.7299 179.555 16.7539 179.425 16.7779C179.323 16.7965 179.222 16.7949 179.134 16.8034C179.03 16.8127 178.911 16.7694 178.786 16.7663C178.679 16.764 178.568 16.8088 178.45 16.8135C178.21 16.8228 177.985 16.8305 177.765 16.8282C177.684 16.8282 177.602 16.8181 177.526 16.8235C177.526 16.7941 177.509 16.7524 177.509 16.723C177.509 16.6224 177.529 16.5211 177.527 16.4213C177.524 16.2929 177.504 16.1722 177.506 16.0561C177.51 15.8426 177.542 15.6314 177.559 15.414C177.565 15.3359 177.549 15.2555 177.557 15.1789C177.571 15.0272 177.618 14.8725 177.624 14.7124C177.627 14.6373 177.58 14.56 177.584 14.4865C177.591 14.3287 177.617 14.1678 177.616 14.0053C177.616 13.938 177.633 13.9372 177.633 13.8699C177.63 13.6843 177.591 13.5079 177.596 13.3493C177.6 13.234 177.651 13.1219 177.66 13.0112C177.669 12.8952 177.664 12.7861 177.667 12.6747C177.668 12.6105 177.692 12.5749 177.691 12.5146C177.761 12.4774 177.755 12.4697 177.832 12.4589C177.906 12.4488 177.993 12.4318 178.083 12.4272C178.235 12.4194 178.406 12.4225 178.588 12.3862C178.877 12.3274 179.109 12.25 179.331 12.1858C179.478 12.1425 179.627 12.1324 179.744 12.0806C179.841 12.0373 179.921 11.963 179.996 11.9437C180.093 11.9181 180.2 11.915 180.311 11.8942C180.439 11.8702 180.579 11.8771 180.716 11.8408C180.931 11.7835 181.127 11.6814 181.327 11.6211C181.371 11.6079 181.368 11.5994 181.412 11.5863C181.527 11.5514 181.649 11.5445 181.76 11.5097C181.879 11.4733 181.989 11.4184 182.102 11.3851C182.199 11.3565 182.31 11.3666 182.407 11.3418C182.544 11.3062 182.67 11.2118 182.808 11.1662C182.975 11.1105 183.103 11.0664 183.206 11.0355C183.332 10.9975 183.441 11.0037 183.536 10.9666C183.599 10.9418 183.663 10.9333 183.725 10.907C183.838 10.8598 183.967 10.8127 184.204 10.7237C184.508 10.6092 184.636 10.2441 184.523 9.93539C184.41 9.6275 184.079 9.4341 183.774 9.54782C183.518 9.64452 183.373 9.70563 183.257 9.75437C183.202 9.77758 183.161 9.82012 183.105 9.84179C183.054 9.8619 182.991 9.92456 182.887 9.95628C182.778 9.98954 182.622 9.96943 182.44 10.0298C182.34 10.063 182.24 10.1497 182.115 10.1822C182.008 10.21 181.883 10.186 181.767 10.2209C181.648 10.2557 181.535 10.3176 181.412 10.3562C181.304 10.3895 181.204 10.4568 181.093 10.4901C181.049 10.5032 181.047 10.497 181.004 10.5102C180.812 10.5674 180.605 10.593 180.407 10.6456C180.312 10.6711 180.212 10.726 180.099 10.7477C179.975 10.7709 179.837 10.7492 179.703 10.784C179.535 10.8274 179.402 10.9341 179.272 10.9921C179.181 11.0324 179.097 11.0842 179.024 11.1051C178.834 11.1608 178.615 11.1755 178.358 11.2281C178.261 11.2474 178.148 11.2884 178.026 11.2946C177.916 11.3 177.797 11.249 177.677 11.2652C177.597 11.276 177.598 11.29 177.518 11.3008C177.324 11.3271 177.142 11.3519 176.969 11.3712C176.809 11.389 176.687 11.4988 176.589 11.6296C176.492 11.7603 176.419 11.9089 176.444 12.0705C176.465 12.1959 176.506 12.4047 176.499 12.643C176.496 12.7211 176.523 12.8171 176.515 12.9161C176.505 13.036 176.466 13.169 176.461 13.3153C176.456 13.4994 176.484 13.6866 176.486 13.8854C176.486 13.9519 176.438 13.9527 176.439 14.0185C176.441 14.1453 176.437 14.283 176.429 14.4292C176.425 14.5082 176.452 14.5894 176.449 14.6698C176.444 14.7944 176.44 14.9298 176.427 15.0706C176.419 15.1541 176.422 15.2384 176.415 15.3235C176.398 15.5502 176.319 15.7892 176.316 16.036C176.313 16.1776 176.349 16.3176 176.353 16.453C176.355 16.5443 176.334 16.6363 176.335 16.7284C176.335 16.8653 176.362 16.9999 176.367 17.1299C176.37 17.225 176.404 17.3202 176.406 17.4154C176.407 17.4943 176.338 17.5732 176.337 17.6521C176.334 17.823 176.4 17.9971 176.419 18.1866C176.43 18.2918 176.4 18.4017 176.412 18.5061C176.429 18.6423 176.425 18.7723 176.434 18.8968C176.442 19.0082 176.506 19.1142 176.517 19.224C176.531 19.3563 176.491 19.4847 176.498 19.6085C176.512 19.8654 176.557 20.1284 176.604 20.3937C176.656 20.6869 176.705 20.9662 176.773 21.1812C176.793 21.2439 176.872 21.2872 176.892 21.3499C176.946 21.5247 176.961 21.7204 177.027 21.8953C177.035 21.9154 177.033 21.9162 177.04 21.9355C177.131 22.1738 177.248 22.4097 177.382 22.6348C177.545 22.9095 177.734 23.1292 177.906 23.2854C177.929 23.3048 177.958 23.2707 177.98 23.2909C178.031 23.3365 178.089 23.3876 178.145 23.4448C178.255 23.557 178.367 23.6955 178.518 23.8084C178.715 23.9554 178.958 24.0621 179.236 24.1882C179.417 24.2695 179.683 24.4002 179.991 24.4683C180.192 24.5124 180.399 24.5472 180.599 24.5836C180.642 24.5913 180.637 24.6215 180.679 24.6292C180.898 24.6694 181.139 24.6686 181.375 24.705C181.542 24.7313 181.699 24.7607 181.855 24.7607C181.925 24.7607 181.995 24.7754 182.063 24.7739C182.108 24.7739 182.108 24.7607 182.153 24.7599C182.43 24.7561 182.694 24.6872 182.92 24.6462C183.03 24.6261 183.142 24.6184 183.254 24.5967C183.367 24.575 183.477 24.5379 183.592 24.517C183.682 24.5008 183.774 24.4892 183.866 24.476C183.998 24.4567 184.137 24.4528 184.281 24.4242C184.294 24.4211 184.29 24.3956 184.304 24.3925C184.531 24.3468 184.767 24.3143 185.011 24.2323C185.318 24.1287 185.506 23.8076 185.404 23.4959C185.302 23.1841 184.959 23.0356 184.652 23.1392L184.652 23.1385Z" fill="black"/>
<path d="M185.395 0.0689038C185.314 0.117641 185.24 0.195001 185.143 0.242191C185.023 0.300985 184.871 0.311041 184.745 0.388402C184.618 0.467309 184.531 0.587217 184.425 0.668446C184.34 0.733428 184.257 0.792996 184.181 0.841733C184.096 0.895885 184.01 0.95932 183.913 1.0127C183.8 1.07613 183.67 1.11714 183.553 1.19295C183.471 1.2471 183.4 1.32601 183.307 1.38016C183.191 1.44824 183.067 1.50935 182.948 1.58981C182.819 1.67722 182.708 1.77392 182.608 1.86057C182.529 1.92864 182.465 2.01065 182.394 2.06016C182.314 2.11663 182.221 2.15454 182.14 2.20869C182.025 2.28682 181.916 2.3812 181.798 2.46707C181.774 2.48409 181.763 2.46707 181.739 2.48486C181.557 2.6187 181.359 2.74325 181.179 2.89797C181.086 2.97842 180.981 3.03799 180.901 3.1169C180.813 3.20277 180.772 3.33351 180.69 3.39926C180.596 3.47507 180.499 3.54625 180.406 3.62361C180.317 3.69865 180.204 3.74429 180.113 3.81701C180.045 3.87116 179.988 3.94697 179.911 4.00267C179.791 4.09009 179.636 4.14269 179.513 4.25022C179.4 4.34925 179.347 4.50087 179.253 4.59989C179.18 4.67571 179.089 4.72522 179.02 4.78865C178.948 4.85363 178.866 4.90547 178.792 4.96813C178.686 5.06019 178.562 5.14141 178.454 5.24585C178.378 5.31857 178.296 5.38278 178.218 5.45395C178.121 5.54214 178.048 5.6636 177.949 5.7603C177.838 5.86937 177.748 5.98774 177.653 6.09604C177.588 6.17108 177.527 6.24302 177.463 6.30878C177.268 6.51379 177.285 6.81007 177.487 7.00812C177.586 7.10482 177.693 7.18218 177.82 7.18218C177.948 7.18218 178.081 7.11642 178.181 7.01121C178.259 6.92921 178.313 6.83096 178.383 6.75128C178.468 6.65303 178.557 6.56484 178.64 6.48361C178.725 6.40084 178.824 6.32967 178.918 6.24457C179.002 6.16721 179.073 6.07593 179.156 5.99702C179.244 5.91192 179.342 5.83069 179.443 5.74405C179.523 5.67443 179.628 5.63265 179.707 5.56071C179.8 5.47561 179.9 5.40367 179.981 5.32012C180.064 5.23347 180.118 5.12594 180.198 5.05554C180.284 4.97973 180.367 4.88071 180.473 4.80335C180.557 4.74378 180.674 4.72522 180.76 4.65637C180.86 4.57668 180.948 4.48231 181.043 4.40262C181.128 4.33068 181.222 4.26802 181.31 4.19839C181.433 4.10015 181.537 3.99339 181.639 3.89359C181.712 3.82242 181.79 3.76827 181.859 3.7087C182.008 3.58028 182.164 3.45187 182.338 3.32422C182.361 3.3072 182.373 3.32345 182.396 3.30643C182.498 3.23216 182.579 3.12231 182.691 3.0465C182.777 2.98848 182.871 2.94052 182.956 2.88017C183.068 2.80127 183.178 2.73164 183.272 2.65041C183.358 2.57615 183.419 2.47868 183.499 2.42452C183.589 2.36341 183.681 2.28837 183.787 2.22571C183.886 2.16846 183.996 2.12282 184.099 2.05629C184.186 1.99904 184.274 1.92555 184.376 1.8683C184.482 1.80951 184.627 1.8126 184.736 1.74221C184.851 1.66949 184.955 1.58903 185.055 1.51322C185.145 1.4436 185.197 1.32755 185.281 1.27495C185.362 1.22467 185.461 1.17516 185.562 1.12487C185.673 1.07072 185.815 1.06298 185.933 0.992585C186.175 0.847148 186.232 0.510631 186.089 0.264625C185.945 0.0193933 185.638 -0.0749862 185.395 0.0696774V0.0689038Z" fill="black"/>
<path d="M222.397 23.0805C222.276 23.1215 222.149 23.1547 222.013 23.1903C221.93 23.212 221.846 23.2313 221.765 23.2545C221.614 23.2978 221.46 23.3675 221.289 23.3969C221.226 23.4077 221.224 23.3922 221.161 23.4031C220.967 23.4379 220.771 23.4851 220.558 23.4967C220.439 23.5036 220.325 23.4603 220.218 23.4727C220.103 23.4866 219.997 23.5268 219.901 23.5284C219.806 23.5292 219.7 23.5021 219.586 23.4897C219.479 23.4781 219.367 23.4588 219.248 23.4549C219.124 23.451 219.009 23.4812 218.908 23.4889C218.804 23.4967 218.707 23.4866 218.649 23.4758C218.578 23.4626 218.481 23.4255 218.381 23.3791C218.297 23.3404 218.195 23.3125 218.092 23.2762C217.969 23.2321 217.847 23.2189 217.741 23.1934C217.638 23.1687 217.537 23.1447 217.472 23.1153C217.396 23.0805 217.313 22.9961 217.219 22.9265C217.143 22.8708 217.066 22.8136 216.978 22.7579C216.829 22.6643 216.686 22.5498 216.526 22.4043C216.482 22.3641 216.447 22.3107 216.401 22.2713C216.289 22.1761 216.149 22.1158 216.086 22.0222C216.036 21.9487 216.042 21.7955 215.996 21.6609C215.971 21.5913 215.925 21.5286 215.898 21.4574C215.873 21.3917 215.85 21.3236 215.822 21.2571C215.764 21.1202 215.674 20.9995 215.649 20.878C215.607 20.6753 215.564 20.4479 215.518 20.1841C215.502 20.0928 215.546 19.9814 215.535 19.8708C215.523 19.7393 215.509 19.6016 215.484 19.4569C215.466 19.3509 215.448 19.2488 215.425 19.1529C215.395 19.0252 215.304 18.9138 215.297 18.8086C215.288 18.6957 215.355 18.5696 215.357 18.4381C215.358 18.3321 215.321 18.2222 215.317 18.1078C215.316 18.0513 215.33 18.0041 215.331 17.9437C215.406 17.9422 215.473 17.9221 215.549 17.9182C215.654 17.9128 215.766 17.885 215.884 17.888C216.004 17.8911 216.126 17.9136 216.255 17.9089C216.485 17.9004 216.711 17.9159 216.977 17.9004C217.128 17.8919 217.269 17.8865 217.402 17.8656C217.506 17.8494 217.601 17.82 217.691 17.8138C217.807 17.806 217.924 17.7589 218.05 17.7558C218.161 17.7534 218.278 17.7828 218.395 17.7767C218.582 17.7658 218.765 17.7527 218.942 17.7349C219.003 17.7287 219.061 17.6962 219.122 17.69C219.206 17.6823 219.299 17.6854 219.396 17.683C219.537 17.6792 219.696 17.6869 219.859 17.6637C220.106 17.6281 220.326 17.5747 220.548 17.5492C220.693 17.5322 220.827 17.5276 220.954 17.4989C221.06 17.4749 221.158 17.4347 221.249 17.4239C221.343 17.4131 221.447 17.4378 221.553 17.4324C221.686 17.4254 221.822 17.4007 221.967 17.3813C222.269 17.3419 222.502 17.0642 222.463 16.7578C222.424 16.4515 222.132 16.2604 221.83 16.3006C221.725 16.3145 221.612 16.3269 221.495 16.3331C221.376 16.3393 221.256 16.3486 221.128 16.3633C220.982 16.3803 220.847 16.4159 220.724 16.443C220.619 16.4662 220.516 16.4855 220.426 16.4956C220.191 16.5234 219.959 16.5335 219.705 16.5698C219.604 16.5845 219.488 16.5683 219.366 16.5714C219.254 16.5745 219.136 16.5497 219.015 16.5621C218.951 16.5683 218.893 16.6271 218.83 16.6333C218.658 16.6511 218.494 16.658 218.332 16.6673C218.233 16.6727 218.131 16.6836 218.024 16.6866C217.892 16.6897 217.754 16.6727 217.614 16.6828C217.477 16.6921 217.351 16.7292 217.229 16.7485C217.117 16.7663 217.012 16.8058 216.916 16.8112C216.657 16.8259 216.437 16.8298 216.215 16.8383C216.121 16.8414 216.018 16.8143 215.911 16.8112C215.778 16.8081 215.64 16.7903 215.494 16.7973C215.428 16.8004 215.369 16.7818 215.301 16.7833C215.301 16.7617 215.304 16.771 215.306 16.7509C215.31 16.6596 215.278 16.566 215.284 16.4747C215.294 16.3393 215.321 16.2008 215.323 16.0569C215.325 15.9471 215.329 15.8341 215.336 15.7158C215.343 15.6082 215.353 15.4976 215.356 15.3847C215.36 15.2516 215.384 15.1271 215.381 15.0079C215.377 14.9012 215.385 14.8021 215.388 14.7124C215.394 14.5399 215.349 14.3805 215.344 14.2266C215.342 14.1515 215.366 14.0773 215.365 14.0046C215.364 13.8777 215.345 13.7508 215.354 13.6162C215.359 13.5249 215.348 13.436 215.35 13.3493C215.355 13.1915 215.342 13.0476 215.336 12.9192C215.332 12.824 215.358 12.7328 215.36 12.6593C215.361 12.5951 215.352 12.5193 215.355 12.4605C215.435 12.4489 215.533 12.4775 215.614 12.4628C215.762 12.4365 215.892 12.3545 216.026 12.3197C216.13 12.2926 216.225 12.2477 216.32 12.2284C216.396 12.2129 216.502 12.216 216.607 12.2106C216.736 12.2044 216.887 12.2539 217.04 12.2253C217.301 12.1773 217.538 12.0613 217.773 12.0002C217.839 11.9831 217.839 11.9824 217.905 11.9654C218.094 11.9166 218.301 11.9097 218.491 11.8563C218.71 11.7952 218.943 11.7371 219.197 11.6613C219.38 11.6064 219.534 11.5167 219.673 11.4494C219.753 11.4099 219.841 11.4045 219.906 11.3797C220.049 11.3264 220.189 11.2691 220.33 11.225C220.411 11.1995 220.483 11.1523 220.559 11.1275C220.88 11.0208 221.048 10.969 221.183 10.9303C221.204 10.9241 221.197 10.8986 221.218 10.8924C221.254 10.8823 221.293 10.8947 221.327 10.8854C221.47 10.8459 221.638 10.8181 221.959 10.6974C222.264 10.5829 222.399 10.2348 222.286 9.92613C222.174 9.61747 221.856 9.46739 221.551 9.58111C221.28 9.68322 221.155 9.71804 221.024 9.75439C220.985 9.76523 220.94 9.75053 220.899 9.7629C220.879 9.76909 220.875 9.75362 220.854 9.75981C220.716 9.79926 220.547 9.9153 220.204 10.029C220.135 10.0522 220.049 10.036 219.975 10.0592C219.827 10.1056 219.649 10.1327 219.476 10.1977C219.359 10.2418 219.273 10.3431 219.172 10.3926C219.064 10.4452 218.946 10.4522 218.854 10.48C218.607 10.5543 218.383 10.6146 218.171 10.6734C217.991 10.7237 217.815 10.791 217.622 10.8405C217.556 10.8576 217.566 10.8978 217.499 10.9148C217.292 10.969 217.057 10.9659 216.824 11.0084C216.746 11.0223 216.655 11.0618 216.553 11.0664C216.416 11.0734 216.256 11.0463 216.092 11.0796C215.967 11.1051 215.847 11.1337 215.732 11.1631C215.614 11.1941 215.502 11.2126 215.398 11.2312C215.165 11.2737 214.919 11.3387 214.717 11.3612C214.558 11.379 214.402 11.4517 214.305 11.5801C214.207 11.7093 214.152 11.888 214.176 12.0489C214.184 12.0984 214.199 12.2547 214.193 12.3707C214.189 12.4519 214.18 12.5378 214.177 12.6291C214.174 12.7444 214.173 12.8604 214.177 12.9718C214.182 13.0848 214.176 13.2 214.173 13.3122C214.17 13.3865 214.167 13.4615 214.161 13.5404C214.152 13.6827 214.148 13.8468 214.151 14.0177C214.151 14.0997 214.171 14.1825 214.174 14.2668C214.179 14.4061 214.163 14.536 214.158 14.6668C214.154 14.8006 214.192 14.929 214.196 15.0528C214.2 15.158 214.225 15.2586 214.223 15.353C214.221 15.445 214.215 15.5425 214.209 15.6446C214.201 15.7707 214.183 15.8999 214.181 16.0368C214.18 16.149 214.138 16.2658 214.128 16.3911C214.122 16.4932 214.141 16.5977 214.137 16.7006C214.13 16.87 214.093 17.0309 214.106 17.1709C214.115 17.2591 214.147 17.3396 214.148 17.4146C214.15 17.5121 214.125 17.6126 214.122 17.721C214.117 17.8571 214.125 18.0002 214.13 18.1488C214.133 18.2369 214.119 18.3282 214.118 18.4257C214.116 18.5773 214.179 18.7313 214.192 18.8961C214.207 19.0941 214.179 19.2852 214.216 19.4445C214.235 19.5273 214.259 19.6024 214.272 19.6735C214.289 19.7725 214.301 19.8762 214.312 19.9899C214.324 20.1191 214.346 20.2537 214.37 20.393C214.419 20.6699 214.454 20.9121 214.499 21.1271C214.548 21.3615 214.637 21.5634 214.71 21.7383C214.733 21.7932 214.796 21.8311 214.817 21.8853C214.839 21.9433 214.849 22.0059 214.87 22.064C214.936 22.2558 215.024 22.4624 215.161 22.665C215.313 22.8917 215.471 23.0797 215.622 23.2089C215.66 23.2414 215.732 23.2329 215.768 23.2654C215.981 23.4588 216.16 23.6243 216.369 23.755C216.421 23.7875 216.453 23.8649 216.514 23.9098C216.646 24.008 216.813 24.097 217.003 24.1829C217.169 24.2571 217.34 24.2618 217.484 24.2958C217.569 24.3159 217.648 24.3499 217.714 24.3732C217.767 24.3925 217.82 24.4497 217.888 24.4815C218.035 24.5495 218.221 24.63 218.436 24.6694C218.642 24.7074 218.83 24.7058 218.994 24.6934C219.074 24.6872 219.147 24.6811 219.208 24.6834C219.283 24.6857 219.37 24.6625 219.46 24.6725C219.589 24.6865 219.731 24.6965 219.886 24.6965C219.896 24.6965 219.907 24.7507 219.917 24.7507C220.073 24.7484 220.218 24.705 220.357 24.6888C220.451 24.678 220.539 24.6617 220.622 24.6571C220.882 24.6424 221.125 24.6091 221.365 24.5658C221.424 24.555 221.421 24.5395 221.481 24.5287C221.675 24.4946 221.873 24.4613 222.084 24.401C222.158 24.3801 222.229 24.3453 222.303 24.3252C222.451 24.2857 222.607 24.2571 222.766 24.203C223.073 24.0993 223.278 23.7728 223.176 23.4611C223.073 23.1493 222.705 22.9784 222.397 23.082V23.0805Z" fill="black"/>
<path d="M147.548 23.6274C147.481 23.3249 147.435 22.9466 147.375 22.6418C147.329 22.4159 147.264 22.1939 147.226 21.9742C147.152 21.5611 147.035 21.1387 146.967 20.7078C146.899 20.2769 146.828 19.8452 146.801 19.4252C146.772 19.1088 146.9 18.7869 146.856 18.462C146.827 18.216 146.751 18.0072 146.731 17.7844C146.717 17.6459 146.621 17.1113 146.615 16.9667C146.606 16.6054 146.555 16.0879 146.523 15.7281C146.514 15.5038 146.542 15.0009 146.523 14.7836C146.492 14.4463 146.434 13.9171 146.417 13.5806C146.414 13.3833 146.466 13.176 146.46 12.9555C146.454 12.7552 146.463 12.2477 146.457 12.0388C146.454 11.6613 146.42 11.1569 146.405 10.7755C146.399 10.702 146.417 9.38768 146.402 9.36293C146.392 9.19351 146.386 8.92661 146.377 8.75719C146.355 8.39515 146.407 7.99829 146.359 7.6316C146.322 7.34614 146.237 6.99338 146.205 6.70638C146.142 6.21901 146.125 5.4601 145.52 5.35412C145.273 5.31544 145.021 5.44618 144.927 5.69218C144.927 5.69218 144.735 6.17568 144.734 6.17568C144.711 6.23603 144.752 6.25227 144.729 6.31339C144.721 6.33582 144.651 6.32576 144.641 6.35439C144.564 6.57177 144.583 6.81159 144.51 7.00421C144.435 7.19374 144.332 7.33841 144.239 7.57745C144.064 8.04935 143.897 8.52511 143.897 8.52511C143.777 8.8771 143.713 9.12156 143.572 9.47587C143.498 9.67469 143.32 9.93152 143.242 10.1512C143.198 10.268 143.102 10.5063 143.06 10.6224C142.979 10.8158 142.876 11.1554 142.812 11.3116C142.741 11.481 142.543 11.8152 142.481 12.0512C142.419 12.2539 142.409 12.4334 142.348 12.6028C142.275 12.7753 142.18 12.8836 142.063 13.1667C141.935 13.5017 141.954 13.6502 141.867 13.88C141.793 14.0494 141.71 14.2683 141.634 14.461C141.603 14.5329 141.421 14.9468 141.386 15.0272C141.296 15.2353 141.251 15.4241 141.208 15.5463C141.123 15.8063 140.909 15.978 140.793 16.2403C140.709 16.4135 140.614 16.7013 140.559 16.7996C140.5 16.9086 140.291 17.2699 140.237 17.372C140.129 17.5523 139.976 17.731 139.859 17.9252C139.76 18.083 139.673 18.3483 139.598 18.445C139.528 18.5394 139.422 18.6477 139.302 18.7823C139.261 18.8295 139.164 18.9223 139.125 18.9695C139.048 19.06 138.893 19.2016 138.801 19.2929C138.749 19.3416 138.706 19.4027 138.648 19.4716C138.49 19.3207 138.315 19.1854 138.185 19.0067C138.028 18.8024 137.877 18.6113 137.751 18.411C137.667 18.2818 137.564 18.107 137.505 17.977C137.409 17.7766 137.344 17.5538 137.255 17.3117C137.16 17.0525 137.099 16.8599 137.026 16.6116C136.978 16.4553 136.88 16.2403 136.828 16.0685C136.75 15.7684 136.714 15.3854 136.609 15.0922C136.566 14.9692 136.509 14.864 136.486 14.775C136.446 14.6126 136.43 14.3194 136.385 14.1237C136.223 13.4793 136.065 12.8101 135.941 12.1541C135.898 11.898 135.767 11.6621 135.718 11.4161C135.664 11.0478 135.653 10.6224 135.57 10.2441C135.509 9.97484 135.39 9.7211 135.307 9.45421C135.266 9.32657 135.239 9.18887 135.194 9.06354C135.148 8.93873 135.102 8.81393 135.055 8.68912C135.019 8.5901 134.965 8.48411 134.874 8.41758C134.627 8.23811 134.294 8.32785 134.116 8.57772C133.946 8.81522 133.828 9.05348 133.684 9.28015C133.525 9.52306 133.32 9.78377 133.226 10.0654C133.153 10.2673 133.068 10.4228 133.019 10.5574C132.963 10.7144 132.901 10.996 132.83 11.208C132.798 11.3016 132.724 11.5205 132.7 11.618C132.683 11.693 132.592 11.8671 132.576 11.9444C132.512 12.1765 132.521 12.5293 132.492 12.7095C132.451 12.9432 132.324 13.2882 132.322 13.5736C132.314 13.8034 132.381 13.9914 132.36 14.1995C132.331 14.4362 132.263 14.8586 132.229 15.0953C132.182 15.3552 132.189 15.6794 132.18 15.9509C132.177 16.0391 132.203 16.2727 132.2 16.3571C132.193 16.5861 132.174 16.8707 132.18 17.0463C132.18 17.4912 132.234 17.9484 132.274 18.3909C132.301 18.6678 132.228 18.8604 132.244 19.1931C132.261 19.4654 132.247 19.4662 132.267 19.7385C132.272 19.8058 132.293 19.8042 132.298 19.8723C132.31 20.1098 132.402 20.3504 132.441 20.567C132.503 21.0675 132.475 21.6036 132.527 22.1336C132.549 22.3556 132.749 23.2274 132.783 23.4711C132.83 23.714 132.824 24.0119 132.881 24.2788C132.918 24.4652 133.011 24.6261 133.053 24.7994C133.095 24.968 133.123 25.3858 133.166 25.5699C133.296 26.1331 134.096 25.966 134.015 25.409C133.95 24.9912 133.906 24.4954 133.803 24.0884C133.747 23.6367 133.577 22.7346 133.501 22.2705C133.442 21.9162 133.481 21.6013 133.443 21.2277C133.42 20.9012 133.41 20.4548 133.322 20.1206C133.283 19.9574 133.298 19.8151 133.29 19.6588C133.275 19.3996 133.229 19.402 133.214 19.1428C133.206 18.9657 133.297 18.6384 133.281 18.4087C133.246 17.9484 133.192 17.4912 133.2 17.0324C133.198 16.7702 133.21 16.6 133.22 16.395C133.224 16.3168 133.21 16.0809 133.215 16.0004C133.227 15.862 133.192 15.6415 133.214 15.5046C133.261 15.2075 133.349 14.7534 133.385 14.4439C133.393 14.3782 133.394 14.3117 133.394 14.3117C133.437 14.003 133.367 13.7075 133.423 13.412C133.446 13.2688 133.488 13.1041 133.526 12.8975C133.574 12.6298 133.555 12.455 133.6 12.2593C133.645 12.0837 133.745 11.8338 133.79 11.6582C133.856 11.4021 133.989 11.2575 134.096 10.9604C134.169 10.7624 134.204 10.5852 134.253 10.4545C134.289 10.3547 134.326 10.2464 134.386 10.1505C134.415 10.2603 134.476 10.3678 134.501 10.4785C134.585 10.856 134.544 11.2289 134.608 11.6257C134.647 11.8694 134.791 12.1007 134.846 12.3328C134.923 12.7235 134.997 13.1397 135.09 13.5311C135.134 13.7407 135.236 14.0664 135.285 14.2768C135.316 14.3852 135.32 14.4842 135.334 14.6033C135.344 14.8354 135.403 15.2585 135.494 15.4868C135.567 15.6825 135.63 15.995 135.683 16.2031C135.786 16.5899 135.884 17.0038 136.041 17.3805C136.221 17.7704 136.305 18.0876 136.495 18.4899C136.611 18.7305 136.756 18.9161 136.897 19.1289C137.037 19.3347 137.19 19.511 137.327 19.6859C137.457 19.8537 137.563 20.0224 137.723 20.1879C137.941 20.4092 138.158 20.6072 138.429 20.7751C138.93 21.0582 139.24 20.584 139.492 20.28C139.566 20.191 139.704 20.0162 139.785 19.9388C139.903 19.8267 140.059 19.699 140.169 19.5698C140.27 19.4553 140.395 19.32 140.524 19.1459C140.715 18.8813 140.767 18.7065 140.916 18.4876C141.064 18.288 141.213 18.0342 141.328 17.7952C141.447 17.5631 141.456 17.567 141.577 17.3357C141.684 17.1206 141.779 16.9667 141.83 16.8437C141.916 16.6232 142.023 16.4545 142.138 16.2256C142.262 16.0058 142.358 15.6624 142.434 15.4906C142.495 15.3514 142.667 14.9584 142.728 14.8261C142.824 14.6327 142.972 14.4076 143.037 14.1755C143.09 14.0069 143.075 13.6595 143.108 13.5907C143.138 13.5017 143.323 13.2193 143.392 13.0391C143.495 12.8039 143.542 12.5463 143.62 12.3297C143.695 12.151 143.792 12.0272 143.9 11.7681C143.984 11.5607 143.98 11.3666 144.023 11.2258C144.234 10.6007 144.512 10.0483 144.77 9.42172C144.905 9.08056 145.146 8.45394 145.286 8.07101C145.289 8.32011 145.232 8.55374 145.254 8.81057C145.26 8.88948 145.306 8.88639 145.311 8.96529C145.343 9.37917 145.363 9.76984 145.37 10.1976C145.382 10.7662 145.363 11.4756 145.371 12.0404C145.375 12.2516 145.399 12.7792 145.403 12.9849C145.403 13.2743 145.394 13.6255 145.43 13.9264C145.457 14.2444 145.47 14.2436 145.494 14.5623C145.502 14.6567 145.558 14.922 145.564 15.0125C145.57 15.1092 145.581 15.6771 145.587 15.7885C145.608 15.9857 145.648 16.5319 145.662 16.7176C145.687 17.0966 145.713 17.5268 145.757 17.9043C145.794 18.2416 145.971 18.5077 145.961 18.8372C145.942 19.501 146.041 20.116 146.147 20.7705C146.228 21.182 146.351 21.8172 146.441 22.2248C146.491 22.4329 146.573 22.6217 146.627 22.8197C146.729 23.2367 146.796 23.7125 146.92 24.1233C147.078 24.6331 147.262 25.1119 147.493 25.6016C147.662 25.9227 148.069 25.7277 147.962 25.3989C147.785 24.8396 147.676 24.206 147.548 23.6289V23.6274Z" fill="black"/>
<path d="M173.668 17.9143C173.634 17.6257 173.63 17.2668 173.574 16.9728C173.522 16.6208 173.391 15.8867 173.339 15.5424C173.302 15.3034 173.258 15.0226 173.236 14.8044C173.217 14.6249 173.195 14.3751 173.184 14.1685C173.164 13.897 173.148 13.5001 173.114 13.2294C173.084 13.0143 173.07 12.7992 173.047 12.5865C173.021 12.3289 172.944 12.0427 172.945 11.7758C172.959 11.4872 173.004 11.1197 172.956 10.818C172.914 10.5473 172.915 10.2603 172.901 9.98874C172.88 9.66692 172.892 9.43948 172.886 9.10606C172.869 8.70533 172.345 8.6566 172.255 9.03721C172.206 9.26001 172.085 9.51762 172.053 9.76594C172.016 10.0553 172.028 10.35 172.009 10.6417C172.002 10.8235 171.958 11.0269 171.955 11.2033C171.954 11.2335 172.02 11.2605 172.018 11.2946C171.997 11.5089 171.933 11.7193 171.933 11.7193C171.906 12.0372 171.921 12.366 171.941 12.6925C171.957 12.981 172.053 13.2773 172.064 13.5651C172.07 13.7183 172.066 14.0695 172.072 14.2211C172.081 14.4563 172.081 14.6567 172.105 14.9205C172.135 15.2191 172.219 15.4473 172.266 15.7204C172.334 16.2572 172.466 17.0123 172.512 17.5561C172.556 17.9731 172.523 18.455 172.541 18.8774C172.553 19.1412 172.592 19.5017 172.597 19.7392C172.604 20.0897 172.423 20.396 172.402 20.7844C172.383 20.9778 172.419 21.2207 172.373 21.4025C172.315 21.7769 172.241 22.0801 172.059 22.3973C171.983 22.535 171.868 22.6689 171.746 22.7354C171.656 22.7725 171.559 22.7733 171.393 22.7617C171.157 22.7478 170.906 22.6364 170.687 22.5505C170.522 22.4863 170.409 22.4182 170.28 22.3424C170.103 22.2356 169.939 22.074 169.759 21.961C169.717 21.9363 169.31 21.7274 169.267 21.7026C169.028 21.5409 168.793 21.4048 168.567 21.2331C168.062 20.8555 167.663 20.3627 167.347 19.8112C167.26 19.6549 167.221 19.4986 167.121 19.3122C166.976 19.0585 166.833 18.821 166.712 18.5494C166.603 18.3266 166.522 18.1649 166.434 17.9592C166.294 17.6536 166.132 17.2722 166.011 16.9566C165.914 16.7253 165.835 16.3717 165.744 16.1311C165.578 15.5912 165.397 15.0025 165.227 14.447C165.162 14.2319 165.086 13.9364 165.09 13.7299C165.1 13.5342 165.131 13.4638 165.098 13.1969C165.064 12.8851 164.782 12.6422 164.537 12.5146C164.292 12.39 164.002 12.4558 163.879 12.7041C163.708 13.0352 163.492 13.4251 163.377 13.7864C163.335 13.907 163.324 14.0347 163.281 14.1693C163.199 14.437 163.166 14.6574 163.083 14.9073C163.064 14.9769 162.96 15.2902 162.943 15.3552C162.872 15.5703 162.78 15.7312 162.716 15.9911C162.655 16.2325 162.563 16.422 162.518 16.651C162.479 16.8514 162.467 17.0819 162.424 17.2993C162.404 17.4262 162.347 17.7534 162.327 17.8849C162.289 18.1123 162.227 18.4171 162.199 18.6484C162.17 18.8751 162.235 19.1149 162.229 19.3315C162.203 19.6054 162.21 19.9017 162.21 20.184C162.178 20.6103 162.092 21.2354 162.045 21.6562C161.992 22.0244 162.049 22.4747 162.06 22.829C162.041 23.1624 162.058 23.5918 162.055 23.9391C162.044 24.182 162.012 24.4837 162.02 24.7297C162.054 25.4144 163.048 25.3811 163.048 24.7065C163.04 24.4907 163.03 24.206 163.04 23.9894C163.046 23.7666 163.012 23.4556 163.022 23.232C163.061 22.8777 163.064 22.4306 163.052 22.0871C163.057 21.7537 163.11 21.3359 163.122 20.9909C163.14 20.6838 163.173 20.3357 163.174 20.02C163.174 19.8135 163.166 19.6 163.181 19.3857C163.197 19.176 163.212 18.9749 163.223 18.7769C163.258 18.4311 163.264 18.0087 163.329 17.6691C163.351 17.5693 163.421 17.4463 163.456 17.348C163.489 17.2103 163.502 17.0146 163.531 16.8529C163.568 16.6634 163.615 16.4112 163.66 16.2379C163.702 16.0716 163.818 15.8333 163.874 15.6391C163.894 15.5703 163.955 15.2547 163.977 15.1781C164.041 14.98 164.152 14.724 164.208 14.5251C164.304 14.874 164.423 15.2291 164.51 15.5827C164.599 15.8828 164.659 16.1551 164.756 16.4684C164.893 16.873 165.035 17.3805 165.195 17.7781C165.287 18.0125 165.455 18.2508 165.553 18.4821C165.586 18.5603 165.707 18.9385 165.748 19.0213C165.865 19.2905 166.014 19.5799 166.161 19.8398C166.243 19.9961 166.336 20.2336 166.439 20.4107C166.462 20.4517 166.594 20.5979 166.619 20.6443C166.833 20.9925 167.07 21.3437 167.36 21.6431C167.65 21.9417 168.004 22.1621 168.359 22.3664C168.457 22.4236 168.609 22.5358 168.702 22.5985C168.902 22.73 169.237 22.9203 169.424 23.0642C169.678 23.2661 169.995 23.5098 170.288 23.615C170.602 23.7465 170.949 23.8486 171.291 23.8765C171.825 23.9577 172.251 23.7999 172.573 23.5167C172.895 23.2336 173.113 22.8135 173.281 22.3509C173.366 22.1258 173.39 21.8194 173.429 21.6082C173.484 21.3762 173.495 21.1247 173.516 20.8942C173.534 20.6846 173.572 20.5631 173.632 20.3086C173.677 20.1291 173.727 19.9264 173.726 19.7462C173.719 19.4012 173.683 19.1474 173.669 18.8256C173.65 18.5254 173.692 18.2253 173.669 17.9182L173.668 17.9143Z" fill="black"/>
<path d="M211.822 16.9387C211.758 16.5883 211.659 16.3338 211.568 16.0143C211.485 15.7219 211.375 15.4078 211.253 15.1301C211.193 14.9777 211.078 14.7363 211.024 14.5839C210.903 14.2412 210.73 13.9039 210.568 13.5712C210.543 13.5233 210.498 13.4598 210.47 13.4142C210.311 13.169 210.153 13.0251 210.063 12.9075C209.729 12.4673 209.367 11.9026 209.05 11.4508C208.862 11.1715 208.595 10.876 208.322 10.6873C208.289 10.6617 208.164 10.606 208.134 10.582C207.983 10.4652 207.845 10.3531 207.616 10.1682C207.495 10.0746 207.506 10.0606 207.384 9.96858C207.216 9.84094 207.056 9.66687 206.87 9.55857C206.693 9.45491 206.476 9.35202 206.293 9.26615C205.81 9.05418 205.302 8.95129 204.8 8.80586C204.642 8.76331 204.443 8.67898 204.193 8.62793C203.959 8.57842 203.722 8.6403 203.504 8.64185C203.189 8.63179 202.864 8.59853 202.556 8.65036C202.328 8.68285 202.052 8.74319 201.827 8.78187C201.367 8.84067 200.902 8.92267 200.465 9.09131C200.12 9.22669 200.265 9.72876 200.626 9.66455C200.81 9.62974 200.999 9.60885 201.189 9.58797C201.347 9.56321 201.597 9.5957 201.752 9.58642C201.962 9.58642 203.002 9.48585 203.196 9.51293C203.437 9.53614 203.813 9.51989 203.991 9.57095C204.135 9.60344 204.383 9.72412 204.602 9.78524C204.647 9.79684 204.773 9.83629 204.812 9.84712C205.146 9.96316 205.516 10.1148 205.836 10.2595C205.975 10.3314 206.209 10.3964 206.338 10.4784C206.56 10.6138 206.773 10.8428 206.989 10.9959C207.117 11.0919 207.381 11.3232 207.584 11.4616C207.756 11.5908 207.954 11.6999 208.09 11.8569C208.371 12.1989 208.692 12.6762 208.965 13.0235C209.155 13.2672 209.14 13.2788 209.332 13.5202C209.495 13.7128 209.647 13.8281 209.706 13.9194C209.803 14.0725 209.833 14.2466 209.915 14.4152C210.026 14.6249 210.151 14.8338 210.241 15.0597C210.367 15.3699 210.51 15.6987 210.608 16.0189C210.717 16.3585 210.894 16.767 210.967 17.0996C211.01 17.2838 210.981 17.5777 211.007 17.8129C211.029 18.0264 211.057 18.2453 211.063 18.4542C211.067 18.6592 211.104 18.8712 211.079 19.063C211.046 19.3121 210.886 19.5899 210.811 19.8382C210.682 20.1817 210.589 20.5522 210.374 20.8632C210.237 21.0411 210.089 21.2918 209.961 21.4736C209.828 21.6577 209.656 21.7977 209.484 21.9656C209.377 22.0716 209.351 22.0445 209.245 22.152C209.113 22.2905 209.002 22.4452 208.855 22.562C208.698 22.6874 208.518 22.7369 208.373 22.8166C208.187 22.9218 207.989 23.0811 207.776 23.1693C207.605 23.232 207.399 23.2072 207.214 23.2567C206.905 23.3519 206.563 23.3767 206.24 23.3983C205.908 23.4293 205.523 23.4424 205.229 23.3186C204.938 23.1995 204.711 22.9721 204.544 22.716C204.435 22.5211 204.416 22.2743 204.38 22.053C204.345 21.8062 204.366 21.5308 204.351 21.2748C204.353 21.0675 204.355 20.8214 204.341 20.6126C204.317 20.3155 204.266 20.1414 204.268 19.9001C204.273 19.4615 204.283 18.9934 204.268 18.5501C204.278 18.2794 204.35 17.915 204.328 17.6303C204.324 17.5367 204.277 17.2814 204.275 17.1902C204.274 17.1468 204.28 17.0579 204.276 17.0153C204.23 16.5488 204.232 16.2974 204.236 15.8425C204.227 15.5865 204.197 15.3552 204.188 15.0906C204.185 14.99 204.184 14.7394 204.181 14.6342C204.178 14.5584 204.202 14.5576 204.201 14.4818C204.203 14.2242 204.119 13.9294 204.087 13.7082C204.068 13.5008 204.142 13.2432 204.126 13.0096C204.115 12.8193 204.018 12.5679 204.001 12.3791C203.982 12.0952 204.088 11.9142 204.049 11.5761C203.924 10.9023 202.998 11.0253 203.028 11.7208C203.008 11.9606 202.903 12.3428 202.943 12.6112C202.955 12.7412 203.016 12.9578 203.017 13.0885C203.014 13.3144 202.983 13.5403 203.002 13.7956C203.012 13.941 202.999 14.0633 203.016 14.1607C203.056 14.3541 203.095 14.4825 203.099 14.662C203.102 14.7634 203.085 15.0101 203.089 15.1092C203.091 15.2801 203.072 15.5184 203.073 15.6909C203.074 15.9663 203.047 16.1829 203.06 16.4877C203.078 16.7832 203.128 16.9774 203.132 17.2165C203.135 17.3325 203.121 17.5592 203.128 17.6775C203.147 17.9901 203.125 18.2291 203.128 18.5594C203.137 18.8526 203.154 19.1621 203.159 19.4591C203.162 19.6402 203.157 19.9125 203.166 20.0896C203.19 20.4416 203.21 20.6598 203.213 20.9646C203.215 21.1177 203.239 21.1177 203.24 21.2701C203.24 21.2957 203.188 21.298 203.19 21.3235C203.214 21.6361 203.273 21.9439 203.347 22.258C203.434 22.6858 203.593 23.109 203.879 23.4324C204.165 23.7557 204.556 23.977 204.976 24.0915C205.44 24.2152 205.864 24.1665 206.313 24.1023C206.521 24.0698 206.721 24.0915 206.925 24.0536C207.239 23.9924 207.525 23.9391 207.835 23.8656C208.147 23.7696 208.418 23.6103 208.719 23.4509C208.923 23.338 209.072 23.1678 209.227 23.0463C209.391 22.921 209.606 22.8297 209.751 22.6874C209.96 22.4677 210.174 22.2542 210.388 22.0259C210.538 21.8697 210.704 21.6794 210.81 21.503C210.859 21.4194 210.891 21.3715 210.958 21.2763C211.204 20.9336 211.351 20.5143 211.513 20.1113C211.622 19.808 211.791 19.5172 211.845 19.1876C211.928 18.6716 211.882 18.0968 211.851 17.6033C211.847 17.4191 211.863 17.1832 211.821 16.9387H211.822Z" fill="black"/>
<path d="M239.678 21.9517C239.402 22.0128 239.134 22.1374 238.867 22.2163C238.677 22.2689 238.416 22.3989 238.224 22.4445C238.062 22.4716 237.815 22.4298 237.651 22.46C237.564 22.4778 237.034 22.634 236.945 22.6565C236.593 22.7408 236.203 22.8855 235.849 22.9675C235.756 22.9922 235.553 23.1036 235.461 23.1276C235.316 23.1601 234.846 23.222 234.699 23.2552C234.559 23.2877 234.331 23.328 234.192 23.3682C233.93 23.437 233.929 23.4309 233.666 23.4982C233.576 23.5198 233.364 23.6374 233.276 23.6552C233.192 23.6707 232.956 23.6861 232.869 23.6993C232.795 23.7117 232.791 23.6947 232.718 23.7117C232.493 23.7697 232.265 23.7968 231.973 23.844C231.918 23.8532 231.798 23.8942 231.742 23.9066C231.308 24.0149 230.846 24.0466 230.403 24.0768C230.132 24.0962 229.907 24.158 229.657 24.1348C229.526 24.1194 229.286 24.042 229.142 24.0188C229.044 24.0002 228.98 24.0103 228.921 23.9793C228.865 23.9383 228.788 23.895 228.752 23.844C228.65 23.7101 228.654 23.5461 228.657 23.3721C228.658 23.222 228.664 23.1052 228.713 22.9474C228.793 22.682 228.914 22.3958 229.035 22.1552C229.089 22.0376 229.154 21.8326 229.208 21.7359C229.288 21.5812 229.602 21.4125 229.759 21.2122C229.903 21.0342 229.936 20.854 230.078 20.7078C230.268 20.5376 230.558 20.4022 230.726 20.1887C230.866 20.0224 230.976 19.8978 231.077 19.798C231.211 19.6619 231.476 19.4545 231.635 19.2488C231.755 19.0971 231.836 18.9138 231.939 18.7831C232.017 18.6887 232.067 18.5827 232.167 18.4844C232.411 18.2624 232.627 17.963 232.84 17.7193C233.01 17.543 233.259 17.3797 233.404 17.1647C233.616 16.8552 233.603 16.7462 233.825 16.5489C234.065 16.357 234.28 16.0043 234.414 15.7382C234.484 15.609 234.599 15.4055 234.685 15.2763C234.897 14.9638 235.161 14.5971 235.336 14.273C235.439 14.0757 235.487 13.873 235.555 13.6363C235.628 13.3779 235.663 13.1512 235.677 12.9903C235.704 12.7002 235.69 12.4047 235.587 12.1231C235.577 12.0929 235.519 11.9877 235.506 11.9529C235.346 11.4655 235.004 11.0254 234.583 10.7438C234.211 10.4753 233.729 10.275 233.289 10.1682C233.217 10.1504 233.218 10.145 233.146 10.1257C232.896 10.0553 232.618 10.0963 232.379 10.0746C232.155 10.0514 231.916 9.92763 231.68 9.90906C231.442 9.89359 231.226 9.86728 230.96 9.85104C230.685 9.8286 230.405 9.90442 230.142 9.92144C230.101 9.92453 229.843 9.95548 229.799 9.95702C229.662 9.95934 229.504 9.96708 229.362 9.97791C229.12 9.98874 228.911 9.99029 228.626 10.0251C228.371 10.0622 228.183 10.0676 227.985 10.0978C227.752 10.1295 227.439 10.1481 227.204 10.1783C227.008 10.2061 226.826 10.2812 226.638 10.3113C226.343 10.3639 226.146 10.3314 225.788 10.3817C225.148 10.4877 225.326 11.3704 225.947 11.2226C226.101 11.1754 226.415 11.1824 226.637 11.1375C226.853 11.0958 227.116 11.0107 227.329 10.9728C227.592 10.931 227.923 10.9395 228.185 10.8969C228.394 10.8575 228.571 10.8026 228.722 10.7848C228.945 10.7554 229.283 10.8026 229.541 10.7817C229.725 10.7732 229.984 10.7105 230.171 10.7051C230.4 10.7005 230.63 10.6564 230.849 10.6625C231.079 10.6711 231.346 10.7051 231.604 10.7213C231.922 10.7623 232.274 10.9132 232.601 10.9147C232.779 10.9202 232.905 10.9457 233.063 10.9944C233.45 11.0981 233.768 11.2342 234.087 11.4671C234.37 11.6706 234.573 11.9251 234.675 12.274C234.695 12.3405 234.712 12.3359 234.736 12.4008C234.741 12.4163 234.75 12.4132 234.755 12.4287C234.798 12.554 234.821 12.7049 234.808 12.8418C234.785 13.0514 234.765 13.2781 234.724 13.3903C234.569 13.7786 234.276 14.1608 234.069 14.519C233.995 14.6373 233.872 14.8686 233.788 14.9847C233.679 15.1262 233.553 15.3444 233.463 15.4921C233.316 15.7397 233.132 15.8333 232.936 16.0669C232.763 16.2735 232.618 16.4127 232.531 16.5257C232.387 16.7175 232.22 16.8877 232.055 17.0765C231.91 17.2374 231.786 17.4292 231.651 17.5801C231.534 17.7101 231.367 17.7928 231.231 17.9313C231.017 18.1263 230.919 18.4365 230.737 18.6299C230.632 18.7351 230.459 18.8179 230.291 18.9788C230.12 19.1459 229.996 19.3223 229.888 19.4445C229.729 19.6332 229.536 19.7702 229.351 19.952C229.25 20.0518 229.109 20.1392 229.028 20.2444C228.8 20.5925 228.436 20.7867 228.23 21.1673C228.124 21.3553 228.099 21.5023 228.019 21.6771C227.913 21.8953 227.856 22.1374 227.789 22.3579C227.734 22.5497 227.595 22.754 227.562 22.9613C227.503 23.3465 227.511 23.7542 227.653 24.1364C227.818 24.5503 228.185 24.8589 228.593 25.0129C228.819 25.0964 229.023 25.1328 229.24 25.1691C229.636 25.2566 230.116 25.2558 230.506 25.207C230.898 25.1684 231.315 25.0933 231.694 24.9982C231.784 24.9742 232.002 24.9154 232.09 24.8945C232.312 24.8489 232.501 24.8814 232.797 24.8218C232.951 24.7839 233.191 24.705 233.349 24.6717C233.515 24.6369 233.765 24.606 233.929 24.5572C234.19 24.4837 234.507 24.3793 234.766 24.2857C235.008 24.2052 235.455 24.0714 235.702 24.0041C235.901 23.9368 236.178 23.7968 236.377 23.7264C236.546 23.6653 236.764 23.6188 236.929 23.5492C237.129 23.4672 237.553 23.3094 237.764 23.2351C237.944 23.1748 238.197 23.1593 238.38 23.1059C238.61 23.0317 238.851 22.9357 239.076 22.8491C239.346 22.7423 239.562 22.542 239.832 22.443C240.135 22.313 239.987 21.8736 239.676 21.9525L239.678 21.9517Z" fill="black"/>
<path d="M199.288 18.1216C199.28 17.9414 199.301 17.7952 199.282 17.6412C199.238 17.331 199.153 16.8723 199.103 16.5644C199.075 16.3679 198.973 16.1018 198.949 15.9354C198.915 15.6538 199.042 15.3367 198.981 15.0435C198.932 14.7673 198.811 14.6412 198.774 14.4316C198.74 14.1786 198.768 13.8653 198.728 13.586C198.67 13.2201 198.648 12.9625 198.665 12.5912C198.683 12.3274 198.615 11.9568 198.597 11.7232C198.592 11.4741 198.635 11.1082 198.602 10.8343C198.584 10.5968 198.562 10.422 198.547 10.2177C198.535 10.0081 198.521 9.82011 198.512 9.57952C198.508 9.42944 198.44 9.28633 198.29 9.24919C198.103 9.20278 197.912 9.33506 197.877 9.52537C197.832 9.71568 197.753 9.95008 197.725 10.1736C197.699 10.3995 197.716 10.6626 197.707 10.8575C197.684 11.1561 197.587 11.3619 197.561 11.6915C197.548 11.8926 197.621 12.0628 197.63 12.1982C197.655 12.4914 197.581 12.6971 197.584 13.0166C197.584 13.2062 197.559 13.3717 197.577 13.5195C197.621 13.8065 197.626 14.0169 197.633 14.3294C197.629 14.6041 197.787 15.0141 197.838 15.2431C197.861 15.3715 197.818 15.6128 197.817 15.7946C197.812 16.0345 197.89 16.347 197.931 16.5512C197.952 16.658 198.011 16.8406 198.028 16.9496C198.079 17.3163 198.122 17.8253 198.154 18.1851C198.164 18.3885 198.197 18.6198 198.215 18.8527C198.231 19.0461 198.224 19.2913 198.221 19.4422C198.219 19.5644 198.239 19.6951 198.228 19.8328C198.218 19.9357 198.192 20.1075 198.174 20.2073C198.131 20.4076 198.04 20.83 198.008 21.0652C197.964 21.4481 197.884 21.8504 197.749 22.2055C197.693 22.3826 197.527 22.641 197.436 22.7478C197.424 22.7586 197.426 22.7903 197.42 22.795C197.42 22.795 197.397 22.7478 197.393 22.7501C197.292 22.7934 197.199 22.8344 197.04 22.8313C196.809 22.819 196.602 22.6364 196.373 22.5706C196.087 22.4909 195.97 22.4383 195.745 22.2852C195.679 22.2388 195.546 22.142 195.478 22.0964C195.349 22.0113 195.224 21.9556 195.064 21.8303C194.854 21.6531 194.576 21.4659 194.377 21.3143C194.204 21.1836 194.043 20.9832 193.839 20.7658C193.746 20.666 193.631 20.5964 193.562 20.5067C193.482 20.4014 193.378 20.1361 193.278 19.9783C193.208 19.8638 192.998 19.5807 192.926 19.4623C192.824 19.2728 192.713 19.0592 192.606 18.8875C192.454 18.6059 192.313 18.2485 192.149 17.953C191.982 17.6521 191.963 17.3109 191.837 16.9775C191.694 16.5984 191.544 16.1667 191.424 15.7776C191.362 15.5757 191.315 15.4202 191.251 15.1765C191.176 14.8748 191.019 14.6683 190.973 14.4053C190.939 14.2273 190.991 14.0471 191.019 13.8606C191.051 13.6757 191.036 13.4274 190.916 13.2464C190.796 13.0522 190.604 12.9161 190.443 12.8426C190.201 12.7281 189.897 12.8611 189.779 13.1056C189.701 13.2681 189.518 13.4746 189.394 13.7508C189.183 14.2428 189.058 14.7147 188.926 15.2168C188.852 15.503 188.843 15.7444 188.793 15.9393C188.703 16.2983 188.608 16.6564 188.608 16.6564C188.511 17.037 188.341 17.6722 188.263 18.0861C188.219 18.3197 188.202 18.5796 188.174 18.8504C188.139 19.3501 188.12 19.8545 188.085 20.3256C188.073 20.5368 188.024 20.7836 188.013 21.0613C188.003 21.3375 188.037 21.5796 188.031 21.797C188.004 22.1823 188.021 22.8414 188.033 23.2645C188.021 23.7125 187.969 24.2702 187.972 24.729C188.01 25.4074 188.962 25.3765 188.967 24.7073C188.962 24.3406 189.003 23.6506 189.008 23.2645C188.999 22.8166 188.948 22.2914 188.977 21.821C188.984 21.5526 189.037 21.312 189.046 21.1031C189.054 20.8958 189.092 20.6637 189.109 20.3898C189.14 20.0007 189.108 19.3037 189.133 18.9556C189.155 18.7436 189.228 18.5247 189.274 18.2818C189.364 17.854 189.447 17.3109 189.566 16.8746C189.657 16.5288 189.653 16.528 189.74 16.1814C189.808 15.906 189.795 15.6477 189.845 15.4643C189.896 15.2663 189.995 15.0551 190.065 14.857C190.125 15.052 190.227 15.2841 190.265 15.4427C190.292 15.5486 190.325 15.6856 190.359 15.8442C190.383 15.9733 190.423 16.1869 190.462 16.3168C190.561 16.6472 190.745 17.0223 190.864 17.3434C190.982 17.6822 191.079 18.0783 191.258 18.4063C191.467 18.7993 191.571 19.2759 191.849 19.6449C191.985 19.8251 192.141 20.1717 192.258 20.3682C192.435 20.642 192.508 20.8478 192.723 21.1549C192.828 21.295 192.92 21.4257 193.021 21.5371C193.208 21.739 193.399 22.0036 193.68 22.2256C193.932 22.4291 194.203 22.4608 194.432 22.6457C194.547 22.7393 194.718 22.9079 194.879 23.0154C195.024 23.1098 195.162 23.2661 195.309 23.3582C195.531 23.5198 195.9 23.6003 196.125 23.6699C196.376 23.7697 196.64 23.8803 196.92 23.9035C197.677 23.9654 198.126 23.7589 198.523 23.1005C198.718 22.8197 198.884 22.5118 198.988 22.1931C199.134 21.7785 199.145 21.2656 199.218 20.8316C199.246 20.6699 199.323 20.4053 199.341 20.2026C199.344 20.1632 199.328 19.9698 199.331 19.9249C199.343 19.7748 199.375 19.6201 199.377 19.453C199.379 19.1714 199.325 18.9788 199.302 18.7514C199.287 18.5525 199.302 18.3506 199.287 18.1216H199.288Z" fill="black"/>
</g>
<defs>
<clipPath id="clip0_17_126">
<rect width="240" height="26" fill="white"/>
</clipPath>
</defs>
</svg>
