<?xml version="1.0" encoding="UTF-8"?>
<svg id="Layer_3" data-name="Layer 3" xmlns="http://www.w3.org/2000/svg" viewBox="0 0 1605.45 1547.08">
  <g id="Exports">
    <path id="Point_Left" d="M1516.61,674.94c-63.31-102.15-114.13-143.96-172.97-192.37-23.76-19.55-48.34-39.77-76.23-66.02-64.52-60.73-85.37-137.12-105.54-211-21.96-80.45-44.66-163.63-129.91-194.17-61.18-21.92-120.77-11.97-167.81,28.01-66.08,56.17-95.97,161.97-76.16,269.55,14.9,80.87,54.01,140.77,75.03,172.96l.2.32c7.97,12.21,8.76,26.5,2.12,38.23-3.32,5.86-11.35,15.54-27.84,14.97-80.5-3.1-185.67-7.9-355.3-20.02-82.41-5.89-177.23-11.1-255.74-5.18-87.09,6.57-144.97,25.77-182.17,60.4C14.9,597.98,0,633.76,0,676.99c0,69.54,35.94,117.03,106.81,141.15,54.38,18.5,126.51,22.34,202.88,26.4,29.07,1.55,59.14,3.15,89.39,5.58,15.61,1.25,30.93,2.49,45.9,3.71,11,.9,17.99,12.42,13.41,22.47-14.46,31.76-15.64,76.29,7.64,105.77,4.92,6.23,4.72,15.03-.31,21.17-24.38,29.79-37.48,70.59-32.3,111.2,2.25,17.67,7.87,34.49,16.5,49.98,3.17,5.69,3.63,12.53,1.22,18.59-17.21,43.32-14.58,88.71,8.06,127.41,13.33,22.79,33.17,42.54,58.17,58.15,5.98,3.73,10.5,9.35,13.19,15.87,16.51,39.95,54.15,82.76,137.87,99.7,58.75,11.89,121.4,6.71,153.52,2.57,7.85-1.01,15.79,0,22.96,2.95,52.28,21.45,156.57,57.43,267.72,57.43,155.94,0,280.82-94.57,358.13-173.91,85.54-87.8,134.62-223.59,134.67-372.58.09-10.42.15-182.05-88.84-325.65ZM875.92,903.2c15.08,7.07,27.09,36.87,19.3,60-11.04,32.8-66.02,55.73-147.07,54.51-128.31-1.93-186.06-36.58-207.36-73.88-5.06-8.85-12.63-25.73-4.04-40.78,9.23-16.19,34.54-25.86,67.7-25.86.46,0,.93-.02,1.39-.02,198.81-3.83,239.23,11.57,270.08,26.04ZM513.62,1104.2c-2.56-20.03,5.43-39.76,16.87-52.27,2.14-2.34,5.64-2.8,8.35-1.15,10.42,6.34,21.63,12.14,33.6,17.31,46.91,20.28,103.05,30.54,166.99,30.54,3.33,0,6.69-.03,10.06-.08,61.61-1.02,111.9-11.22,149.47-30.33,7.44-3.78,14.16-7.81,20.26-11.99,2.89-1.98,6.83-1.38,8.93,1.41,8.06,10.71,13.3,24.15,8.78,39.4-6.15,20.76-28.65,41.47-61.74,56.83-45.21,20.99-108.08,31.85-181.92,31.3-106.12-.73-173.28-31-179.65-80.98ZM520.78,1240.04c-.03-4.21,4.34-6.99,8.14-5.18,42.51,20.23,97.43,30.72,163.81,31.18,1.9.01,3.77.02,5.66.02,50.69,0,96.52-4.72,137.08-14.07,3.11-.72,6.25,1.23,6.87,4.36,3.04,15.46-2.08,23.35-4.07,26.42-14.1,21.69-63.7,44.87-160.66,44.87-70.72,0-127.66-22.24-148.6-58.03-5.86-10.02-8.16-20.05-8.23-29.56ZM1524.6,999.92c0,.15,0,.31,0,.46,0,66.02-10.65,128.25-31.65,184.96-19.24,51.95-46.93,97.39-80.08,131.41-66.45,68.19-172.47,149.49-300.22,149.49-100.91,0-199.38-35.93-237.03-51.38-4.24-1.74-9.61-3.43-15.45-5.02-14.56-3.96-17.58-23.26-4.98-31.56,21.98-14.47,38.76-32.82,50.86-51.45,9.62-14.8,18.44-35.69,18.22-62.29-.09-10.82,2.26-21.63,7.55-31.07,1.71-3.05,3.68-5.88,5.89-8.03,11.39-11.1,57.38-47.1,170.03-44.12,19.09.52,35.85-12.36,40.35-30.87,4.49-18.51-4.55-37.65-21.7-45.94-65.18-31.49-106.86-80.35-123.88-145.21-12.86-49.02-11.18-108.55,4.61-163.31,6.19-21.45-6.19-43.86-27.64-50.05-21.46-6.18-43.86,6.19-50.05,27.64-2.36,8.19-4.91,18.04-7.28,29.26-3.02,14.33-18.15,22.52-31.83,17.29-31.3-11.97-335.2-38.6-484.76-50.62-31.35-2.52-61.97-4.15-91.58-5.72-70.62-3.75-137.33-7.3-181.13-22.2-32.11-10.92-52.01-25.54-52.01-64.61,0-20.43,5.89-35.43,18.53-47.2,53.19-49.53,212.66-45.49,377.06-33.75,170.8,12.2,276.8,17.04,357.96,20.16,42.63,1.62,80.53-19.26,101.29-55.91,21.51-37.98,19.68-84.83-4.77-122.28l-.2-.32c-17.91-27.43-51.25-78.49-63.21-143.4-14.22-77.2,5.93-156.68,49.01-193.29,24.76-21.05,54.43-25.59,88.18-13.5,43.48,15.58,57.73,60.78,79.18,139.34,20.95,76.74,47.02,172.25,128.12,248.59,29.86,28.1,56.65,50.14,80.28,69.58,55.51,45.66,99.35,81.73,155.61,172.53,77.19,124.56,76.73,280.88,76.71,282.39Z"/>
  </g>
</svg>