<?xml version="1.0" encoding="UTF-8"?>
<svg id="Layer_2" data-name="Layer 2" xmlns="http://www.w3.org/2000/svg" viewBox="0 0 1517.19 1571.07">
  <g id="Exports">
    <path id="Point_Right" d="M1514.33,549.04c-8.62-46.32-41.28-82.3-91.96-101.29-39.94-14.97-92.38-24.33-149.92-14.33-117.41,20.41-198.07,42.66-415.78,80.08-123.2,21.17-173.91-10.58-136.67-107.8,34.65-90.47,48.12-163.62,6.37-271.38-67-172.93-320.15-211.79-335.55,82.73-13.67,261.44-182.53,354.46-220.77,391.13-25.3,24.27-73.52,75.66-112.18,147.2C18.39,828.43-1.06,902.89.04,976.69c1.08,71.6,30.34,137.84,54.71,180.8,8.14,14.36,9.56,31.52,3.89,47.09-15.19,41.71-14.44,85.16,2.17,125.64,62.16,151.52,229.26,240.84,448.82,240.84,5.55,0,11.14-.06,16.75-.17,77.99-1.59,152.7-25.56,222.07-71.23,33.89-22.31,61.62-46.61,83.48-68.3,14.8-14.68,33.38-25.01,53.7-29.69,121.98-28.12,202.67-83.07,219.15-150.99,9.57-39.43-4.01-72.52-23.1-97.69-4.03-5.31-4.2-12.61-.32-18.03,24.47-34.21,35.52-72.56,30.28-108.82-3.27-22.61-13.67-50.99-41.53-76.6-5.28-4.85-6.31-12.78-2.63-18.93,18.53-30.97,26.43-65,21.76-97.65-1.09-7.59-2.82-14.92-5.16-21.96-2.79-8.41,2.26-17.4,10.87-19.5.05-.01.11-.03.16-.04,24.13-5.88,239.84-50.55,278.64-61.33,42.41-11.78,76.09-29.23,100.11-51.87,35.91-33.85,49.9-78.53,40.47-129.23ZM1026.22,1231.61c-8.33,34.3-78.73,79.13-197.26,98.87-11.96.75-23.3,1.11-34.02,1.11-114.08,0-159.59-39.56-167.72-62.52-4.14-11.68-.06-21.94,6.21-29.98,3.83-4.91,10.32-6.85,16.21-4.84,40.41,13.78,93.06,20.3,152.22,20.3,7.17,0,14.44-.18,21.8-.56,65.47-3.39,125.38-16.03,178.74-49.04,7.31-4.52,16.9-1.86,20.72,5.83,3.36,6.77,4.8,13.82,3.1,20.84ZM990.84,1114.19c-49.07,39.67-106.72,55.7-171.36,59.05-69.29,3.59-130.03-8.95-168.8-24.95-21.82-9-57.5-28.6-51.31-58.75,4.06-19.8,23.5-35.54,37.03-35.54.27,0,.53,0,.8,0,0,0,.02,0,.03,0,1.84,0,3.66.26,5.38.91,26.87,10.22,63.68,18.3,113,18.3,21.49,0,45.36-1.53,71.8-5.09,87.07-11.72,129.99-38.48,165.17-63.85,5.18-3.73,12.23-3.65,17.26.28,11.03,8.59,19.82,19.54,21.79,33.16,3.34,23.1-12.67,53.1-40.79,76.48ZM665.93,893.24c40.99-16.68,102.88-28.99,174.55-43.23,44.6-8.87,94.37-18.77,145.22-31.07,5.2-1.26,10.78.35,14.24,4.42,4.97,5.85,8.11,12.93,9.27,21.05,3.45,24.07-10.38,51.94-36.99,74.77-5.94,4.16-11.65,8.33-17.17,12.38-33.88,24.84-63.13,42.44-138.44,52.58-75.79,10.2-139.49,5.82-170.39-18.16-12.38-9.61-19-21.35-20.84-36.97-.7-5.97-2.16-18.39,40.54-35.76ZM1352.12,652.23c-37.56,10.43-477,108.46-527.41,118.48-62.47,12.42-117.88,23.46-162.39,37.94-10.86,3.53-21.87-5.04-21.1-16.43,1.23-18,1.77-35.31,1.77-51.57,0-22.6-18.55-40.87-41.26-40.42-21.59.44-38.8,18.39-39.54,39.98-1.68,49.21-1.91,104.44-13.28,156.38-1.41,4.38-2.47,8.87-3.22,13.44-16.69,63.88-52.37,121.41-131.43,154.62-16.85,7.08-27.01,24.68-24.35,43.11,2.25,15.55,13.7,28.21,28.67,32.98,11.28,3.59,22.01,6.67,32.4,9.65,31.54,9.03,56.45,16.17,71.21,30.27,8.96,8.56,20.64,25.22,22.39,71.43.08,2.24.05,4.49.04,6.73-.06,12.36,2.01,24.87,6.39,37.24,15.51,43.78,61.93,87.64,147.62,106.6,14.02,3.1,17.35,21.59,5.36,29.49h0c-56.44,37.16-116.75,56.64-179.26,57.92-91.69,1.84-175.72-13.74-242.92-45.15-71.07-33.22-120.25-82.13-146.2-145.37-8.97-21.85-9.3-44.49-1-67.29,13.78-37.86,10.31-79.65-9.54-114.64-19.71-34.75-43.37-87.62-44.19-142.13-2.33-155.26,110.49-275.73,145.13-308.95,47.44-45.51,212.88-134.61,236.02-455.25,13.47-186.72,155.93-169.4,197.68-35.45,37.75,121.11-1.17,158.86-34.05,264.53-26.95,86.62,26.95,171.32,165.55,152.07,146.65-20.37,257.28-43.73,490.89-82.38,80.91-13.38,143.99,6.79,152.74,53.78,3.17,17.01,11.57,62.21-82.73,88.41Z"/>
  </g>
</svg>