<?xml version="1.0" encoding="UTF-8"?>
<svg id="thickPointer" xmlns="http://www.w3.org/2000/svg" version="1.1" viewBox="0 0 500 500">
  <!-- Generator: Adobe Illustrator 29.8.2, SVG Export Plug-In . SVG Version: 2.1.1 Build 3)  -->
  <defs>
    <style>
      .st0 {
        fill: #fff;
      }
    </style>
  </defs>
  <path class="st0" d="M275.8,256.3l-45.5-40.5c-3.1-2.7-7.9-.6-7.9,3.6v60.9c0,4.9,6.2,7.1,9.3,3.2l11.4-14.5c2.5-3.2,6.5-5,10.6-4.7l18.4,1.2c4.9.3,7.5-5.8,3.8-9.1Z"/>
  <path d="M227.2,214.6c1.1,0,2.2.4,3.1,1.2l45.5,40.5c3.6,3.2,1.3,9.1-3.4,9.1s-.2,0-.4,0l-18.4-1.2c-.3,0-.5,0-.8,0-3.8,0-7.4,1.7-9.8,4.8l-11.4,14.5c-1.1,1.4-2.6,2-4,2-2.7,0-5.2-2-5.2-5.2v-60.9c0-2.9,2.3-4.8,4.8-4.8M227.2,206.6s0,0,0,0c-3.3,0-6.4,1.2-8.8,3.5-2.6,2.4-4,5.7-4,9.3v60.9c0,7.3,5.9,13.2,13.2,13.2s7.8-1.8,10.3-5.1l11.4-14.5c.8-1.1,2.1-1.7,3.5-1.7,0,0,.2,0,.3,0l18.4,1.2c.3,0,.6,0,.9,0,5.5,0,10.3-3.3,12.3-8.5,2-5.2.6-10.9-3.6-14.5l-45.5-40.5c-2.3-2.1-5.4-3.2-8.5-3.2h0Z"/>
</svg>